<mxfile host="app.diagrams.net" modified="2024-07-18T11:13:43.942Z" agent="Mozilla/5.0 (Windows NT 10.0; Win64; x64; rv:128.0) Gecko/20100101 Firefox/128.0" etag="eABOQpck_QX6hzJr82K0" version="24.7.1" type="github">
  <diagram name="Page-1" id="cCI0zkhlKhUhfMkDJvHl">
    <mxGraphModel dx="1514" dy="2349" grid="1" gridSize="10" guides="1" tooltips="1" connect="1" arrows="1" fold="1" page="1" pageScale="1" pageWidth="1169" pageHeight="827" math="0" shadow="0">
      <root>
        <mxCell id="0" />
        <mxCell id="1" parent="0" />
        <mxCell id="JOTjsFw0k6sc1S5XeHR1-2" value="" style="endArrow=none;dashed=1;html=1;strokeWidth=4;rounded=0;fillColor=#e51400;strokeColor=#B20000;curved=0;" parent="1" edge="1">
          <mxGeometry width="50" height="50" relative="1" as="geometry">
            <mxPoint x="1148" y="1180" as="sourcePoint" />
            <mxPoint x="1148.9790575916231" y="245" as="targetPoint" />
          </mxGeometry>
        </mxCell>
        <UserObject label="Server 1" lucidchartObjectId="HypIMii0T2fg" id="IuxpBFWN_IE3AxqQZIlk-2">
          <mxCell style="html=1;overflow=block;blockSpacing=1;whiteSpace=wrap;fontSize=18.3;fontColor=#333333;fontStyle=1;spacingLeft=8.4;spacingRight=8.4;spacingTop=2.4;spacing=3.6;verticalAlign=top;strokeOpacity=0;fillOpacity=100;rounded=1;absoluteArcSize=1;arcSize=12;fillColor=#ffdda6;strokeWidth=0.8;" parent="1" vertex="1">
            <mxGeometry x="2271" y="-600" width="212" height="270" as="geometry" />
          </mxCell>
        </UserObject>
        <UserObject label="Server 2" lucidchartObjectId="kbqIFTrSSb0c" id="IuxpBFWN_IE3AxqQZIlk-3">
          <mxCell style="html=1;overflow=block;blockSpacing=1;whiteSpace=wrap;fontSize=18.3;fontColor=#333333;fontStyle=1;spacingLeft=8.4;spacingRight=8.4;spacingTop=2.4;spacing=3.6;verticalAlign=top;strokeOpacity=0;fillOpacity=100;rounded=1;absoluteArcSize=1;arcSize=12;fillColor=#ffdda6;strokeWidth=0.8;" parent="1" vertex="1">
            <mxGeometry x="2497" y="-600" width="212" height="270" as="geometry" />
          </mxCell>
        </UserObject>
        <UserObject label="Server 3" lucidchartObjectId="kgqIT20~Yh46" id="IuxpBFWN_IE3AxqQZIlk-4">
          <mxCell style="html=1;overflow=block;blockSpacing=1;whiteSpace=wrap;fontSize=18.3;fontColor=#333333;fontStyle=1;spacingLeft=8.4;spacingRight=8.4;spacingTop=2.4;spacing=3.6;verticalAlign=top;strokeOpacity=0;fillOpacity=100;rounded=1;absoluteArcSize=1;arcSize=12;fillColor=#ffdda6;strokeWidth=0.8;" parent="1" vertex="1">
            <mxGeometry x="2724" y="-600" width="212" height="270" as="geometry" />
          </mxCell>
        </UserObject>
        <mxCell id="Moh9ykD4S1Io1xxOxNP5-1" value="" style="edgeStyle=orthogonalEdgeStyle;rounded=0;orthogonalLoop=1;jettySize=auto;html=1;" parent="1" source="IuxpBFWN_IE3AxqQZIlk-11" target="yILMz_F42p3W7vGwvf6j-89" edge="1">
          <mxGeometry relative="1" as="geometry" />
        </mxCell>
        <UserObject label="JOBMANAGER&lt;br&gt;&lt;font color=&quot;#33ff33&quot; style=&quot;font-size: 14px;&quot;&gt;&lt;b&gt;Leader&lt;/b&gt;&lt;/font&gt;" lucidchartObjectId="HypInYoTSrlu" id="IuxpBFWN_IE3AxqQZIlk-11">
          <mxCell style="html=1;overflow=block;blockSpacing=1;whiteSpace=wrap;fontSize=18.3;fontColor=#ffffff;align=center;spacingLeft=8.4;spacingRight=8.4;spacingTop=2.4;spacing=3.6;strokeOpacity=0;fillOpacity=100;rounded=1;absoluteArcSize=1;arcSize=12;fillColor=#636aff;strokeWidth=0.8;" parent="1" vertex="1">
            <mxGeometry x="2284" y="-568" width="184" height="49" as="geometry" />
          </mxCell>
        </UserObject>
        <mxCell id="Moh9ykD4S1Io1xxOxNP5-2" value="" style="edgeStyle=orthogonalEdgeStyle;rounded=0;orthogonalLoop=1;jettySize=auto;html=1;" parent="1" source="IuxpBFWN_IE3AxqQZIlk-13" target="yILMz_F42p3W7vGwvf6j-90" edge="1">
          <mxGeometry relative="1" as="geometry" />
        </mxCell>
        <UserObject label="JOBMANAGER&lt;br&gt;&lt;font style=&quot;font-size: 14px;&quot;&gt;Standby&lt;/font&gt;" lucidchartObjectId="RXpI0It2jUcH" id="IuxpBFWN_IE3AxqQZIlk-13">
          <mxCell style="html=1;overflow=block;blockSpacing=1;whiteSpace=wrap;fontSize=18.3;fontColor=#ffffff;align=center;spacingLeft=8.4;spacingRight=8.4;spacingTop=2.4;spacing=3.6;strokeOpacity=0;fillOpacity=100;rounded=1;absoluteArcSize=1;arcSize=12;fillColor=#636aff;strokeWidth=0.8;" parent="1" vertex="1">
            <mxGeometry x="2511" y="-568" width="184" height="49" as="geometry" />
          </mxCell>
        </UserObject>
        <UserObject label="JOBMANAGER&lt;font style=&quot;font-size: 11px;&quot;&gt;&lt;br&gt;&lt;/font&gt;&lt;font style=&quot;font-size: 14px;&quot;&gt;Standby&lt;/font&gt;" lucidchartObjectId="1XpI324HXPmj" id="IuxpBFWN_IE3AxqQZIlk-15">
          <mxCell style="html=1;overflow=block;blockSpacing=1;whiteSpace=wrap;fontSize=18.3;fontColor=#ffffff;align=center;spacingLeft=8.4;spacingRight=8.4;spacingTop=2.4;spacing=3.6;strokeOpacity=0;fillOpacity=100;rounded=1;absoluteArcSize=1;arcSize=12;fillColor=#636aff;strokeWidth=0.8;" parent="1" vertex="1">
            <mxGeometry x="2738" y="-568" width="184" height="49" as="geometry" />
          </mxCell>
        </UserObject>
        <mxCell id="yILMz_F42p3W7vGwvf6j-7" value="" style="endArrow=none;dashed=1;html=1;dashPattern=1 3;strokeWidth=2;rounded=0;" parent="1" edge="1">
          <mxGeometry width="50" height="50" relative="1" as="geometry">
            <mxPoint x="594" y="1170" as="sourcePoint" />
            <mxPoint x="595" y="215" as="targetPoint" />
          </mxGeometry>
        </mxCell>
        <UserObject label="Server 1" lucidchartObjectId="HypIMii0T2fg" id="yILMz_F42p3W7vGwvf6j-12">
          <mxCell style="html=1;overflow=block;blockSpacing=1;whiteSpace=wrap;fontSize=18.3;fontColor=#333333;fontStyle=1;spacingLeft=8.4;spacingRight=8.4;spacingTop=2.4;spacing=3.6;verticalAlign=top;strokeOpacity=0;fillOpacity=100;rounded=1;absoluteArcSize=1;arcSize=12;fillColor=#ffdda6;strokeWidth=0.8;" parent="1" vertex="1">
            <mxGeometry x="141.5" y="270" width="212" height="256" as="geometry" />
          </mxCell>
        </UserObject>
        <UserObject label="Server N" lucidchartObjectId="kbqIFTrSSb0c" id="yILMz_F42p3W7vGwvf6j-13">
          <mxCell style="html=1;overflow=block;blockSpacing=1;whiteSpace=wrap;fontSize=18.3;fontColor=#333333;fontStyle=1;spacingLeft=8.4;spacingRight=8.4;spacingTop=2.4;spacing=3.6;verticalAlign=top;strokeOpacity=0;fillOpacity=100;rounded=1;absoluteArcSize=1;arcSize=12;fillColor=#ffdda6;strokeWidth=0.8;" parent="1" vertex="1">
            <mxGeometry x="371.5" y="270" width="212" height="256" as="geometry" />
          </mxCell>
        </UserObject>
        <UserObject label="Server 1" lucidchartObjectId="kgqIT20~Yh46" id="yILMz_F42p3W7vGwvf6j-14">
          <mxCell style="html=1;overflow=block;blockSpacing=1;whiteSpace=wrap;fontSize=18.3;fontColor=#333333;fontStyle=1;spacingLeft=8.4;spacingRight=8.4;spacingTop=2.4;spacing=3.6;verticalAlign=top;strokeOpacity=0;fillOpacity=100;rounded=1;absoluteArcSize=1;arcSize=12;fillColor=#ffdda6;strokeWidth=0.8;" parent="1" vertex="1">
            <mxGeometry x="605.5" y="270" width="212" height="256" as="geometry" />
          </mxCell>
        </UserObject>
        <UserObject label="Server N" lucidchartObjectId="NgqIsRjEYktH" id="yILMz_F42p3W7vGwvf6j-15">
          <mxCell style="html=1;overflow=block;blockSpacing=1;whiteSpace=wrap;fontSize=18.3;fontColor=#333333;fontStyle=1;spacingLeft=8.4;spacingRight=8.4;spacingTop=2.4;spacing=3.6;verticalAlign=top;strokeOpacity=0;fillOpacity=100;rounded=1;absoluteArcSize=1;arcSize=12;fillColor=#ffdda6;strokeWidth=0.8;" parent="1" vertex="1">
            <mxGeometry x="835.5" y="270" width="212" height="256" as="geometry" />
          </mxCell>
        </UserObject>
        <object label="" tooltip="Синхронная репликация" id="_xkS5jxFh-QeE9HllDF4-49">
          <mxCell style="edgeStyle=orthogonalEdgeStyle;rounded=0;orthogonalLoop=1;jettySize=auto;html=1;entryX=1;entryY=0.5;entryDx=0;entryDy=0;dashed=1;dashPattern=1 1;fontColor=#3399FF;strokeColor=#0080ff;" parent="1" source="yILMz_F42p3W7vGwvf6j-27" target="_xkS5jxFh-QeE9HllDF4-46" edge="1">
            <mxGeometry relative="1" as="geometry">
              <mxPoint x="550" y="695" as="targetPoint" />
            </mxGeometry>
          </mxCell>
        </object>
        <UserObject label="&lt;div&gt;Объектное хранилище Ceph с георезервированием&lt;/div&gt;&lt;div&gt;&lt;br&gt;&lt;/div&gt;&lt;div&gt;&lt;br&gt;&lt;/div&gt;&lt;div style=&quot;font-size: 16px;&quot;&gt;&lt;br&gt;&lt;/div&gt;&lt;div&gt;&lt;font style=&quot;font-size: 9px;&quot;&gt;&lt;i&gt;2 бакета на 1 кластер Flink&lt;/i&gt;&lt;/font&gt;&lt;/div&gt;" lucidchartObjectId="_KpIE2-JrPc8" id="yILMz_F42p3W7vGwvf6j-27">
          <mxCell style="html=1;overflow=block;blockSpacing=1;whiteSpace=wrap;fontSize=20;fontStyle=1;align=center;spacing=9;verticalAlign=top;strokeOpacity=0;fillOpacity=100;rounded=1;absoluteArcSize=1;arcSize=12;fillColor=#d5e8d4;strokeWidth=0.8;strokeColor=#82b366;" parent="1" vertex="1">
            <mxGeometry x="645" y="630" width="360" height="150" as="geometry" />
          </mxCell>
        </UserObject>
        <UserObject label="Площадка 2, для часто обновляемых HA-метаданных и&amp;nbsp;инкрементных / полных снэпшотов кластера Flink " lucidchartObjectId="fSpIcaWIN3Va" id="yILMz_F42p3W7vGwvf6j-29">
          <mxCell style="html=1;overflow=block;blockSpacing=1;whiteSpace=wrap;fontSize=16.7;fontColor=#333333;align=left;spacing=9;verticalAlign=top;strokeOpacity=100;fillOpacity=100;rounded=1;absoluteArcSize=1;arcSize=12;fillColor=#ffffff;strokeWidth=0.8;" parent="1" vertex="1">
            <mxGeometry x="660" y="688" width="330" height="72" as="geometry" />
          </mxCell>
        </UserObject>
        <UserObject label="&lt;div style=&quot;line-height: 0.9;&quot;&gt;Кластер Apache Flink&lt;br&gt;&lt;/div&gt;&lt;div&gt;&lt;sup&gt;&lt;font style=&quot;font-size: 10px;&quot;&gt;УАСП&lt;/font&gt;&lt;/sup&gt;&lt;br&gt;&lt;/div&gt;" lucidchartObjectId="WnqImOF1_m_N" id="yILMz_F42p3W7vGwvf6j-40">
          <mxCell style="html=1;overflow=block;blockSpacing=1;whiteSpace=wrap;fontSize=20;fontColor=#ffffff;fontStyle=1;spacingLeft=8.4;spacingRight=8.4;spacingTop=2.4;spacing=3.6;verticalAlign=top;strokeOpacity=0;fillOpacity=100;rounded=1;absoluteArcSize=1;arcSize=12;fillColor=#8b90ff;strokeWidth=0.8;" parent="1" vertex="1">
            <mxGeometry x="130" y="355" width="929" height="164" as="geometry" />
          </mxCell>
        </UserObject>
        <UserObject label="&lt;div&gt;JOBMANAGER&lt;/div&gt;&lt;div&gt;&lt;font color=&quot;#33ff33&quot; style=&quot;font-size: 14px;&quot;&gt;&lt;b&gt;Leader&lt;/b&gt;&lt;/font&gt;&lt;/div&gt;" lucidchartObjectId="HypInYoTSrlu" id="yILMz_F42p3W7vGwvf6j-41">
          <mxCell style="html=1;overflow=block;blockSpacing=1;whiteSpace=wrap;fontSize=18.3;fontColor=#ffffff;align=center;spacingLeft=8.4;spacingRight=8.4;spacingTop=2.4;spacing=3.6;strokeOpacity=0;fillOpacity=100;rounded=1;absoluteArcSize=1;arcSize=12;fillColor=#636aff;strokeWidth=0.8;" parent="1" vertex="1">
            <mxGeometry x="156" y="399" width="184" height="48" as="geometry" />
          </mxCell>
        </UserObject>
        <UserObject label="TASKMANAGER" lucidchartObjectId="HypIgOagNPgA" id="yILMz_F42p3W7vGwvf6j-42">
          <mxCell style="html=1;overflow=block;blockSpacing=1;whiteSpace=wrap;fontSize=18.3;fontColor=#ffffff;align=center;spacingLeft=8.4;spacingRight=8.4;spacingTop=2.4;spacing=3.6;strokeOpacity=0;fillOpacity=100;rounded=1;absoluteArcSize=1;arcSize=12;fillColor=#636aff;strokeWidth=0.8;" parent="1" vertex="1">
            <mxGeometry x="156" y="463" width="184" height="48" as="geometry" />
          </mxCell>
        </UserObject>
        <UserObject label="JOBMANAGER&lt;br&gt;&lt;font style=&quot;font-size: 14px;&quot;&gt;Standby&lt;/font&gt;" lucidchartObjectId="RXpI0It2jUcH" id="yILMz_F42p3W7vGwvf6j-43">
          <mxCell style="html=1;overflow=block;blockSpacing=1;whiteSpace=wrap;fontSize=18.3;fontColor=#ffffff;align=center;spacingLeft=8.4;spacingRight=8.4;spacingTop=2.4;spacing=3.6;strokeOpacity=0;fillOpacity=100;rounded=1;absoluteArcSize=1;arcSize=12;fillColor=#636aff;strokeWidth=0.8;" parent="1" vertex="1">
            <mxGeometry x="387" y="399" width="184" height="48" as="geometry" />
          </mxCell>
        </UserObject>
        <UserObject label="TASKMANAGER" lucidchartObjectId="RXpIgnX.f~PW" id="yILMz_F42p3W7vGwvf6j-44">
          <mxCell style="html=1;overflow=block;blockSpacing=1;whiteSpace=wrap;fontSize=18.3;fontColor=#ffffff;align=center;spacingLeft=8.4;spacingRight=8.4;spacingTop=2.4;spacing=3.6;strokeOpacity=0;fillOpacity=100;rounded=1;absoluteArcSize=1;arcSize=12;fillColor=#636aff;strokeWidth=0.8;" parent="1" vertex="1">
            <mxGeometry x="387" y="463" width="184" height="48" as="geometry" />
          </mxCell>
        </UserObject>
        <UserObject label="JOBMANAGER&lt;br&gt;&lt;font style=&quot;font-size: 14px;&quot;&gt;Standby&lt;/font&gt;" lucidchartObjectId="1XpI324HXPmj" id="yILMz_F42p3W7vGwvf6j-45">
          <mxCell style="html=1;overflow=block;blockSpacing=1;whiteSpace=wrap;fontSize=18.3;fontColor=#ffffff;align=center;spacingLeft=8.4;spacingRight=8.4;spacingTop=2.4;spacing=3.6;strokeOpacity=0;fillOpacity=100;rounded=1;absoluteArcSize=1;arcSize=12;fillColor=#636aff;strokeWidth=0.8;" parent="1" vertex="1">
            <mxGeometry x="621" y="399" width="184" height="48" as="geometry" />
          </mxCell>
        </UserObject>
        <UserObject label="TASKMANAGER" lucidchartObjectId="1XpItajlC~17" id="yILMz_F42p3W7vGwvf6j-46">
          <mxCell style="html=1;overflow=block;blockSpacing=1;whiteSpace=wrap;fontSize=18.3;fontColor=#ffffff;align=center;spacingLeft=8.4;spacingRight=8.4;spacingTop=2.4;spacing=3.6;strokeOpacity=0;fillOpacity=100;rounded=1;absoluteArcSize=1;arcSize=12;fillColor=#636aff;strokeWidth=0.8;" parent="1" vertex="1">
            <mxGeometry x="621" y="463" width="184" height="48" as="geometry" />
          </mxCell>
        </UserObject>
        <UserObject label="HISTORYSERVER" lucidchartObjectId="8XpIVe4FQzVd" id="yILMz_F42p3W7vGwvf6j-47">
          <mxCell style="html=1;overflow=block;blockSpacing=1;whiteSpace=wrap;fontSize=18.3;fontColor=#ffffff;align=center;spacingLeft=8.4;spacingRight=8.4;spacingTop=2.4;spacing=3.6;strokeOpacity=0;fillOpacity=100;rounded=1;absoluteArcSize=1;arcSize=12;fillColor=#636aff;strokeWidth=0.8;" parent="1" vertex="1">
            <mxGeometry x="850" y="399" width="184" height="48" as="geometry" />
          </mxCell>
        </UserObject>
        <UserObject label="TASKMANAGER" lucidchartObjectId="8XpI6pTr3cQC" id="yILMz_F42p3W7vGwvf6j-48">
          <mxCell style="html=1;overflow=block;blockSpacing=1;whiteSpace=wrap;fontSize=18.3;fontColor=#ffffff;align=center;spacingLeft=8.4;spacingRight=8.4;spacingTop=2.4;spacing=3.6;strokeOpacity=0;fillOpacity=100;rounded=1;absoluteArcSize=1;arcSize=12;fillColor=#636aff;strokeWidth=0.8;" parent="1" vertex="1">
            <mxGeometry x="850" y="463" width="184" height="48" as="geometry" />
          </mxCell>
        </UserObject>
        <mxCell id="yILMz_F42p3W7vGwvf6j-58" style="edgeStyle=none;rounded=1;jumpStyle=none;orthogonalLoop=1;jettySize=auto;html=1;exitX=0.75;exitY=1;exitDx=0;exitDy=0;startArrow=oval;startFill=1;endArrow=oval;endFill=1;strokeColor=#82b366;strokeWidth=2;fillColor=#d5e8d4;" parent="1" edge="1">
          <mxGeometry relative="1" as="geometry">
            <mxPoint x="896" y="528" as="sourcePoint" />
            <mxPoint x="896" y="572" as="targetPoint" />
          </mxGeometry>
        </mxCell>
        <mxCell id="yILMz_F42p3W7vGwvf6j-59" style="edgeStyle=none;rounded=1;jumpStyle=none;orthogonalLoop=1;jettySize=auto;html=1;exitX=0.75;exitY=1;exitDx=0;exitDy=0;startArrow=oval;startFill=1;endArrow=oval;endFill=1;strokeColor=#82b366;strokeWidth=2;fillColor=#d5e8d4;" parent="1" edge="1">
          <mxGeometry relative="1" as="geometry">
            <mxPoint x="694" y="528" as="sourcePoint" />
            <mxPoint x="694" y="572" as="targetPoint" />
          </mxGeometry>
        </mxCell>
        <mxCell id="yILMz_F42p3W7vGwvf6j-60" style="edgeStyle=none;rounded=1;jumpStyle=none;orthogonalLoop=1;jettySize=auto;html=1;exitX=0.75;exitY=1;exitDx=0;exitDy=0;startArrow=oval;startFill=1;endArrow=oval;endFill=1;strokeColor=#82b366;strokeWidth=2;fillColor=#d5e8d4;" parent="1" edge="1">
          <mxGeometry relative="1" as="geometry">
            <mxPoint x="496" y="528" as="sourcePoint" />
            <mxPoint x="496" y="572" as="targetPoint" />
          </mxGeometry>
        </mxCell>
        <UserObject label="NGINX + nginx-ldap-auth" lucidchartObjectId="HypIE5tfspSB" id="yILMz_F42p3W7vGwvf6j-62">
          <mxCell style="html=1;overflow=block;blockSpacing=1;whiteSpace=wrap;fontSize=18.3;fontColor=#333333;align=center;spacingLeft=8.4;spacingRight=8.4;spacingTop=2.4;spacing=3.6;verticalAlign=middle;strokeOpacity=0;fillOpacity=100;rounded=1;absoluteArcSize=1;arcSize=12;fillColor=#CACBE8;strokeWidth=0.8;" parent="1" vertex="1">
            <mxGeometry x="155.5" y="297" width="184" height="51" as="geometry" />
          </mxCell>
        </UserObject>
        <UserObject label="NGINX + nginx-ldap-auth" lucidchartObjectId="RXpI~8YFsiHd" id="yILMz_F42p3W7vGwvf6j-63">
          <mxCell style="html=1;overflow=block;blockSpacing=1;whiteSpace=wrap;fontSize=18.3;fontColor=#333333;align=center;spacingLeft=8.4;spacingRight=8.4;spacingTop=2.4;spacing=3.6;verticalAlign=middle;strokeOpacity=0;fillOpacity=100;rounded=1;absoluteArcSize=1;arcSize=12;fillColor=#CACBE8;strokeWidth=0.8;" parent="1" vertex="1">
            <mxGeometry x="386.5" y="297" width="184" height="51" as="geometry" />
          </mxCell>
        </UserObject>
        <UserObject label="NGINX + nginx-ldap-auth" lucidchartObjectId="1XpIAn_rVOTK" id="yILMz_F42p3W7vGwvf6j-65">
          <mxCell style="html=1;overflow=block;blockSpacing=1;whiteSpace=wrap;fontSize=18.3;fontColor=#333333;align=center;spacingLeft=8.4;spacingRight=8.4;spacingTop=2.4;spacing=3.6;verticalAlign=middle;strokeOpacity=0;fillOpacity=100;rounded=1;absoluteArcSize=1;arcSize=12;fillColor=#CACBE8;strokeWidth=0.8;" parent="1" vertex="1">
            <mxGeometry x="620.5" y="297" width="184" height="51" as="geometry" />
          </mxCell>
        </UserObject>
        <UserObject label="NGINX + nginx-ldap-auth" lucidchartObjectId="8XpIHrtV3hBn" id="yILMz_F42p3W7vGwvf6j-66">
          <mxCell style="html=1;overflow=block;blockSpacing=1;whiteSpace=wrap;fontSize=18.3;fontColor=#333333;align=center;spacingLeft=8.4;spacingRight=8.4;spacingTop=2.4;spacing=3.6;verticalAlign=middle;strokeOpacity=0;fillOpacity=100;rounded=1;absoluteArcSize=1;arcSize=12;fillColor=#CACBE8;strokeWidth=0.8;strokeColor=#CACBE8;" parent="1" vertex="1">
            <mxGeometry x="849.5" y="297" width="184" height="51" as="geometry" />
          </mxCell>
        </UserObject>
        <mxCell id="yILMz_F42p3W7vGwvf6j-67" style="edgeStyle=none;rounded=1;jumpStyle=none;orthogonalLoop=1;jettySize=auto;html=1;startArrow=oval;startFill=1;endArrow=oval;endFill=1;strokeColor=#CACBE8;strokeWidth=2;entryX=0.183;entryY=0.994;entryDx=0;entryDy=0;entryPerimeter=0;exitX=0.187;exitY=-0.014;exitDx=0;exitDy=0;exitPerimeter=0;" parent="1" edge="1">
          <mxGeometry relative="1" as="geometry">
            <mxPoint x="418" y="346" as="targetPoint" />
            <mxPoint x="418" y="398" as="sourcePoint" />
          </mxGeometry>
        </mxCell>
        <mxCell id="yILMz_F42p3W7vGwvf6j-68" style="edgeStyle=none;rounded=1;jumpStyle=none;orthogonalLoop=1;jettySize=auto;html=1;exitX=0.75;exitY=0;exitDx=0;exitDy=0;startArrow=oval;startFill=1;endArrow=oval;endFill=1;strokeColor=#CACBE8;strokeWidth=2;entryX=0.75;entryY=1;entryDx=0;entryDy=0;" parent="1" edge="1">
          <mxGeometry relative="1" as="geometry">
            <mxPoint x="291" y="346" as="targetPoint" />
            <mxPoint x="291" y="399" as="sourcePoint" />
          </mxGeometry>
        </mxCell>
        <mxCell id="yILMz_F42p3W7vGwvf6j-69" style="edgeStyle=none;rounded=1;jumpStyle=none;orthogonalLoop=1;jettySize=auto;html=1;exitX=0.75;exitY=0;exitDx=0;exitDy=0;startArrow=oval;startFill=1;endArrow=oval;endFill=1;strokeColor=#CACBE8;strokeWidth=2;entryX=0.75;entryY=1;entryDx=0;entryDy=0;" parent="1" edge="1">
          <mxGeometry relative="1" as="geometry">
            <mxPoint x="985" y="346" as="targetPoint" />
            <mxPoint x="985" y="399" as="sourcePoint" />
          </mxGeometry>
        </mxCell>
        <mxCell id="yILMz_F42p3W7vGwvf6j-70" style="edgeStyle=none;rounded=1;jumpStyle=none;orthogonalLoop=1;jettySize=auto;html=1;startArrow=oval;startFill=1;endArrow=oval;endFill=1;strokeColor=#CACBE8;strokeWidth=2;exitX=0.812;exitY=0.994;exitDx=0;exitDy=0;exitPerimeter=0;entryX=0.815;entryY=-0.014;entryDx=0;entryDy=0;entryPerimeter=0;" parent="1" edge="1">
          <mxGeometry relative="1" as="geometry">
            <mxPoint x="768" y="398" as="targetPoint" />
            <mxPoint x="767" y="346" as="sourcePoint" />
          </mxGeometry>
        </mxCell>
        <mxCell id="yILMz_F42p3W7vGwvf6j-71" value="&lt;b style=&quot;font-size: 24px;&quot;&gt;DC1&lt;/b&gt;" style="rounded=0;whiteSpace=wrap;html=1;fontSize=24;" parent="1" vertex="1">
          <mxGeometry x="325" y="200" width="100" height="40" as="geometry" />
        </mxCell>
        <mxCell id="yILMz_F42p3W7vGwvf6j-72" value="&lt;b style=&quot;font-size: 24px;&quot;&gt;DC2&lt;/b&gt;" style="rounded=0;whiteSpace=wrap;html=1;fontSize=24;" parent="1" vertex="1">
          <mxGeometry x="775" y="200" width="100" height="40" as="geometry" />
        </mxCell>
        <mxCell id="yILMz_F42p3W7vGwvf6j-80" value="" style="endArrow=none;dashed=1;html=1;dashPattern=1 3;strokeWidth=6;rounded=0;entryX=0.818;entryY=0.058;entryDx=0;entryDy=0;entryPerimeter=0;strokeColor=#727272;exitX=0.252;exitY=0.066;exitDx=0;exitDy=0;exitPerimeter=0;" parent="1" edge="1">
          <mxGeometry width="50" height="50" relative="1" as="geometry">
            <mxPoint x="413.924" y="287.15999999999985" as="sourcePoint" />
            <mxPoint x="300.91599999999994" y="287.0799999999999" as="targetPoint" />
          </mxGeometry>
        </mxCell>
        <mxCell id="yILMz_F42p3W7vGwvf6j-81" value="" style="endArrow=none;dashed=1;html=1;dashPattern=1 3;strokeWidth=6;rounded=0;entryX=0.818;entryY=0.058;entryDx=0;entryDy=0;entryPerimeter=0;strokeColor=#727272;exitX=0.252;exitY=0.066;exitDx=0;exitDy=0;exitPerimeter=0;" parent="1" edge="1">
          <mxGeometry width="50" height="50" relative="1" as="geometry">
            <mxPoint x="877.924" y="288.15999999999985" as="sourcePoint" />
            <mxPoint x="764.9159999999999" y="288.0799999999999" as="targetPoint" />
          </mxGeometry>
        </mxCell>
        <mxCell id="yILMz_F42p3W7vGwvf6j-82" style="edgeStyle=none;rounded=0;jumpStyle=none;orthogonalLoop=1;jettySize=auto;html=1;exitX=1;exitY=0.5;exitDx=0;exitDy=0;entryX=0;entryY=0.5;entryDx=0;entryDy=0;startArrow=none;startFill=0;endArrow=classic;endFill=0;strokeColor=#7EA6E0;strokeWidth=2;" parent="1" source="yILMz_F42p3W7vGwvf6j-41" target="yILMz_F42p3W7vGwvf6j-43" edge="1">
          <mxGeometry relative="1" as="geometry">
            <mxPoint x="347" y="428" as="sourcePoint" />
            <mxPoint x="394" y="428" as="targetPoint" />
          </mxGeometry>
        </mxCell>
        <mxCell id="yILMz_F42p3W7vGwvf6j-83" style="edgeStyle=none;rounded=0;jumpStyle=none;orthogonalLoop=1;jettySize=auto;html=1;exitX=1;exitY=0.5;exitDx=0;exitDy=0;entryX=0;entryY=0.5;entryDx=0;entryDy=0;startArrow=none;startFill=0;endArrow=classic;endFill=0;strokeColor=#7EA6E0;strokeWidth=2;" parent="1" source="yILMz_F42p3W7vGwvf6j-43" target="yILMz_F42p3W7vGwvf6j-45" edge="1">
          <mxGeometry relative="1" as="geometry">
            <mxPoint x="572" y="418" as="sourcePoint" />
            <mxPoint x="619" y="418" as="targetPoint" />
          </mxGeometry>
        </mxCell>
        <mxCell id="yILMz_F42p3W7vGwvf6j-86" value="" style="endArrow=classic;html=1;rounded=0;" parent="1" edge="1">
          <mxGeometry width="50" height="50" relative="1" as="geometry">
            <mxPoint x="2254" y="-609" as="sourcePoint" />
            <mxPoint x="2254" y="-349" as="targetPoint" />
          </mxGeometry>
        </mxCell>
        <mxCell id="yILMz_F42p3W7vGwvf6j-87" value="&lt;i&gt;&lt;font style=&quot;font-size: 36px;&quot;&gt;t&lt;/font&gt;&lt;/i&gt;" style="text;whiteSpace=wrap;html=1;" parent="1" vertex="1">
          <mxGeometry x="2230" y="-640" width="20" height="40" as="geometry" />
        </mxCell>
        <mxCell id="Moh9ykD4S1Io1xxOxNP5-3" value="" style="edgeStyle=orthogonalEdgeStyle;rounded=0;orthogonalLoop=1;jettySize=auto;html=1;" parent="1" source="yILMz_F42p3W7vGwvf6j-88" target="yILMz_F42p3W7vGwvf6j-92" edge="1">
          <mxGeometry relative="1" as="geometry" />
        </mxCell>
        <mxCell id="Moh9ykD4S1Io1xxOxNP5-13" value="" style="edgeStyle=orthogonalEdgeStyle;rounded=0;orthogonalLoop=1;jettySize=auto;html=1;entryX=0.5;entryY=0;entryDx=0;entryDy=0;" parent="1" source="yILMz_F42p3W7vGwvf6j-88" target="yILMz_F42p3W7vGwvf6j-91" edge="1">
          <mxGeometry relative="1" as="geometry" />
        </mxCell>
        <UserObject label="" lucidchartObjectId="HypInYoTSrlu" id="yILMz_F42p3W7vGwvf6j-88">
          <mxCell style="html=1;overflow=block;blockSpacing=1;whiteSpace=wrap;fontSize=18.3;fontColor=#ffffff;align=center;spacingLeft=8.4;spacingRight=8.4;spacingTop=2.4;spacing=3.6;strokeOpacity=0;fillOpacity=100;rounded=1;absoluteArcSize=1;arcSize=12;fillColor=#636aff;strokeWidth=0.8;" parent="1" vertex="1">
            <mxGeometry x="2284" y="-510" width="184" height="49" as="geometry" />
          </mxCell>
        </UserObject>
        <mxCell id="csOe2-DRXb8adYqgt6AF-2" value="" style="endArrow=none;html=1;rounded=0;entryX=1.005;entryY=0.341;entryDx=0;entryDy=0;entryPerimeter=0;exitX=0;exitY=0.5;exitDx=0;exitDy=0;strokeColor=#FF0000;strokeWidth=7;" parent="1" source="IuxpBFWN_IE3AxqQZIlk-2" target="IuxpBFWN_IE3AxqQZIlk-2" edge="1">
          <mxGeometry width="50" height="50" relative="1" as="geometry">
            <mxPoint x="2151" y="-450" as="sourcePoint" />
            <mxPoint x="2201" y="-500" as="targetPoint" />
          </mxGeometry>
        </mxCell>
        <mxCell id="Moh9ykD4S1Io1xxOxNP5-4" value="" style="edgeStyle=orthogonalEdgeStyle;rounded=0;orthogonalLoop=1;jettySize=auto;html=1;" parent="1" source="yILMz_F42p3W7vGwvf6j-89" target="yILMz_F42p3W7vGwvf6j-93" edge="1">
          <mxGeometry relative="1" as="geometry" />
        </mxCell>
        <UserObject label="JOBMANAGER&lt;br&gt;&lt;font style=&quot;font-size: 14px;&quot;&gt;Standby&lt;/font&gt;" lucidchartObjectId="RXpI0It2jUcH" id="yILMz_F42p3W7vGwvf6j-89">
          <mxCell style="html=1;overflow=block;blockSpacing=1;whiteSpace=wrap;fontSize=18.3;fontColor=#ffffff;align=center;spacingLeft=8.4;spacingRight=8.4;spacingTop=2.4;spacing=3.6;strokeOpacity=0;fillOpacity=100;rounded=1;absoluteArcSize=1;arcSize=12;fillColor=#636aff;strokeWidth=0.8;" parent="1" vertex="1">
            <mxGeometry x="2511" y="-510" width="184" height="49" as="geometry" />
          </mxCell>
        </UserObject>
        <UserObject label="JOBMANAGER&lt;font style=&quot;font-size: 11px;&quot;&gt;&lt;br&gt;&lt;/font&gt;&lt;font style=&quot;font-size: 14px;&quot;&gt;Standby&lt;/font&gt;" lucidchartObjectId="1XpI324HXPmj" id="yILMz_F42p3W7vGwvf6j-90">
          <mxCell style="html=1;overflow=block;blockSpacing=1;whiteSpace=wrap;fontSize=18.3;fontColor=#ffffff;align=center;spacingLeft=8.4;spacingRight=8.4;spacingTop=2.4;spacing=3.6;strokeOpacity=0;fillOpacity=100;rounded=1;absoluteArcSize=1;arcSize=12;fillColor=#636aff;strokeWidth=0.8;" parent="1" vertex="1">
            <mxGeometry x="2738" y="-510" width="184" height="49" as="geometry" />
          </mxCell>
        </UserObject>
        <mxCell id="Moh9ykD4S1Io1xxOxNP5-5" value="" style="edgeStyle=orthogonalEdgeStyle;rounded=0;orthogonalLoop=1;jettySize=auto;html=1;" parent="1" source="yILMz_F42p3W7vGwvf6j-91" target="yILMz_F42p3W7vGwvf6j-95" edge="1">
          <mxGeometry relative="1" as="geometry" />
        </mxCell>
        <mxCell id="Moh9ykD4S1Io1xxOxNP5-14" value="" style="edgeStyle=orthogonalEdgeStyle;rounded=0;orthogonalLoop=1;jettySize=auto;html=1;" parent="1" source="yILMz_F42p3W7vGwvf6j-91" target="yILMz_F42p3W7vGwvf6j-94" edge="1">
          <mxGeometry relative="1" as="geometry" />
        </mxCell>
        <UserObject label="&lt;font color=&quot;#ffff00&quot;&gt;Восстанавливается&lt;/font&gt;" lucidchartObjectId="HypInYoTSrlu" id="yILMz_F42p3W7vGwvf6j-91">
          <mxCell style="html=1;overflow=block;blockSpacing=1;whiteSpace=wrap;fontSize=18.3;fontColor=#ffffff;align=center;spacingLeft=8.4;spacingRight=8.4;spacingTop=2.4;spacing=3.6;strokeOpacity=0;fillOpacity=100;rounded=1;absoluteArcSize=1;arcSize=12;fillColor=#636aff;strokeWidth=0.8;" parent="1" vertex="1">
            <mxGeometry x="2284" y="-450" width="184" height="49" as="geometry" />
          </mxCell>
        </UserObject>
        <mxCell id="Moh9ykD4S1Io1xxOxNP5-6" value="" style="edgeStyle=orthogonalEdgeStyle;rounded=0;orthogonalLoop=1;jettySize=auto;html=1;" parent="1" source="yILMz_F42p3W7vGwvf6j-92" target="yILMz_F42p3W7vGwvf6j-96" edge="1">
          <mxGeometry relative="1" as="geometry" />
        </mxCell>
        <UserObject label="JOBMANAGER&lt;br&gt;&lt;font color=&quot;#33ff33&quot; style=&quot;font-size: 14px;&quot;&gt;&lt;b&gt;Leader&lt;/b&gt;&lt;/font&gt;" lucidchartObjectId="RXpI0It2jUcH" id="yILMz_F42p3W7vGwvf6j-92">
          <mxCell style="html=1;overflow=block;blockSpacing=1;whiteSpace=wrap;fontSize=18.3;fontColor=#ffffff;align=center;spacingLeft=8.4;spacingRight=8.4;spacingTop=2.4;spacing=3.6;strokeOpacity=0;fillOpacity=100;rounded=1;absoluteArcSize=1;arcSize=12;fillColor=#636aff;strokeWidth=0.8;" parent="1" vertex="1">
            <mxGeometry x="2511" y="-450" width="184" height="49" as="geometry" />
          </mxCell>
        </UserObject>
        <UserObject label="JOBMANAGER&lt;font style=&quot;font-size: 11px;&quot;&gt;&lt;br&gt;&lt;/font&gt;&lt;font style=&quot;font-size: 14px;&quot;&gt;Standby&lt;/font&gt;" lucidchartObjectId="1XpI324HXPmj" id="yILMz_F42p3W7vGwvf6j-93">
          <mxCell style="html=1;overflow=block;blockSpacing=1;whiteSpace=wrap;fontSize=18.3;fontColor=#ffffff;align=center;spacingLeft=8.4;spacingRight=8.4;spacingTop=2.4;spacing=3.6;strokeOpacity=0;fillOpacity=100;rounded=1;absoluteArcSize=1;arcSize=12;fillColor=#636aff;strokeWidth=0.8;" parent="1" vertex="1">
            <mxGeometry x="2738" y="-450" width="184" height="49" as="geometry" />
          </mxCell>
        </UserObject>
        <mxCell id="Moh9ykD4S1Io1xxOxNP5-9" value="" style="edgeStyle=orthogonalEdgeStyle;rounded=0;orthogonalLoop=1;jettySize=auto;html=1;endArrow=none;endFill=0;" parent="1" source="yILMz_F42p3W7vGwvf6j-94" target="yILMz_F42p3W7vGwvf6j-95" edge="1">
          <mxGeometry relative="1" as="geometry" />
        </mxCell>
        <UserObject label="JOBMANAGER&lt;br&gt;&lt;font style=&quot;font-size: 14px;&quot;&gt;Standby&lt;/font&gt;" lucidchartObjectId="HypInYoTSrlu" id="yILMz_F42p3W7vGwvf6j-94">
          <mxCell style="html=1;overflow=block;blockSpacing=1;whiteSpace=wrap;fontSize=18.3;fontColor=#ffffff;align=center;spacingLeft=8.4;spacingRight=8.4;spacingTop=2.4;spacing=3.6;strokeOpacity=0;fillOpacity=100;rounded=1;absoluteArcSize=1;arcSize=12;fillColor=#636aff;strokeWidth=0.8;" parent="1" vertex="1">
            <mxGeometry x="2284" y="-390" width="184" height="49" as="geometry" />
          </mxCell>
        </UserObject>
        <mxCell id="Moh9ykD4S1Io1xxOxNP5-10" value="" style="edgeStyle=orthogonalEdgeStyle;rounded=0;orthogonalLoop=1;jettySize=auto;html=1;endArrow=none;endFill=0;" parent="1" source="yILMz_F42p3W7vGwvf6j-95" target="yILMz_F42p3W7vGwvf6j-96" edge="1">
          <mxGeometry relative="1" as="geometry" />
        </mxCell>
        <UserObject label="JOBMANAGER&lt;br&gt;&lt;font color=&quot;#33ff33&quot; style=&quot;font-size: 14px;&quot;&gt;&lt;b&gt;Leader&lt;/b&gt;&lt;/font&gt;" lucidchartObjectId="RXpI0It2jUcH" id="yILMz_F42p3W7vGwvf6j-95">
          <mxCell style="html=1;overflow=block;blockSpacing=1;whiteSpace=wrap;fontSize=18.3;fontColor=#ffffff;align=center;spacingLeft=8.4;spacingRight=8.4;spacingTop=2.4;spacing=3.6;strokeOpacity=0;fillOpacity=100;rounded=1;absoluteArcSize=1;arcSize=12;fillColor=#636aff;strokeWidth=0.8;" parent="1" vertex="1">
            <mxGeometry x="2511" y="-390" width="184" height="49" as="geometry" />
          </mxCell>
        </UserObject>
        <UserObject label="JOBMANAGER&lt;font style=&quot;font-size: 11px;&quot;&gt;&lt;br&gt;&lt;/font&gt;&lt;font style=&quot;font-size: 14px;&quot;&gt;Standby&lt;/font&gt;" lucidchartObjectId="1XpI324HXPmj" id="yILMz_F42p3W7vGwvf6j-96">
          <mxCell style="html=1;overflow=block;blockSpacing=1;whiteSpace=wrap;fontSize=18.3;fontColor=#ffffff;align=center;spacingLeft=8.4;spacingRight=8.4;spacingTop=2.4;spacing=3.6;strokeOpacity=0;fillOpacity=100;rounded=1;absoluteArcSize=1;arcSize=12;fillColor=#636aff;strokeWidth=0.8;" parent="1" vertex="1">
            <mxGeometry x="2738" y="-390" width="184" height="49" as="geometry" />
          </mxCell>
        </UserObject>
        <mxCell id="yILMz_F42p3W7vGwvf6j-98" value="" style="endArrow=none;dashed=1;html=1;rounded=0;" parent="1" edge="1">
          <mxGeometry width="50" height="50" relative="1" as="geometry">
            <mxPoint x="2241" y="-514" as="sourcePoint" />
            <mxPoint x="2961" y="-514" as="targetPoint" />
          </mxGeometry>
        </mxCell>
        <mxCell id="yILMz_F42p3W7vGwvf6j-99" value="" style="endArrow=none;dashed=1;html=1;rounded=0;" parent="1" edge="1">
          <mxGeometry width="50" height="50" relative="1" as="geometry">
            <mxPoint x="2241" y="-456" as="sourcePoint" />
            <mxPoint x="2961" y="-456" as="targetPoint" />
          </mxGeometry>
        </mxCell>
        <mxCell id="yILMz_F42p3W7vGwvf6j-100" value="" style="endArrow=none;dashed=1;html=1;rounded=0;" parent="1" edge="1">
          <mxGeometry width="50" height="50" relative="1" as="geometry">
            <mxPoint x="2241" y="-396" as="sourcePoint" />
            <mxPoint x="2961" y="-396" as="targetPoint" />
          </mxGeometry>
        </mxCell>
        <mxCell id="csOe2-DRXb8adYqgt6AF-3" value="" style="endArrow=none;html=1;rounded=0;entryX=1.005;entryY=0.341;entryDx=0;entryDy=0;entryPerimeter=0;exitX=0;exitY=0.5;exitDx=0;exitDy=0;strokeColor=#FF0000;strokeWidth=7;" parent="1" edge="1">
          <mxGeometry width="50" height="50" relative="1" as="geometry">
            <mxPoint x="2271" y="-508" as="sourcePoint" />
            <mxPoint x="2484" y="-465" as="targetPoint" />
          </mxGeometry>
        </mxCell>
        <mxCell id="csOe2-DRXb8adYqgt6AF-4" value="&lt;font color=&quot;#ffffff&quot; style=&quot;font-size: 18px;&quot;&gt;&lt;span style=&quot;background-color: rgb(255, 0, 0);&quot;&gt;! СБОЙ ! &lt;br&gt;&lt;/span&gt;&lt;/font&gt;" style="rounded=0;whiteSpace=wrap;html=1;fillColor=#FF0000;strokeColor=none;" parent="1" vertex="1">
          <mxGeometry x="2332" y="-500" width="90" height="30" as="geometry" />
        </mxCell>
        <mxCell id="csOe2-DRXb8adYqgt6AF-7" value="&lt;b&gt;&lt;font style=&quot;font-size: 18px;&quot;&gt;&lt;i&gt;Автоматический fail-over master-нод Apache Flink&lt;/i&gt;&lt;/font&gt;&lt;/b&gt;" style="shape=note;whiteSpace=wrap;html=1;backgroundOutline=1;fontColor=#000000;darkOpacity=0.05;fillColor=#FFF9B2;strokeColor=none;fillStyle=solid;direction=west;gradientDirection=north;gradientColor=#FFF2A1;shadow=1;size=20;pointerEvents=1;" parent="1" vertex="1">
          <mxGeometry x="2424" y="-680" width="358" height="50" as="geometry" />
        </mxCell>
        <mxCell id="Moh9ykD4S1Io1xxOxNP5-11" value="" style="edgeStyle=orthogonalEdgeStyle;rounded=0;orthogonalLoop=1;jettySize=auto;html=1;exitX=0.5;exitY=1;exitDx=0;exitDy=0;entryX=0.5;entryY=0;entryDx=0;entryDy=0;" parent="1" source="IuxpBFWN_IE3AxqQZIlk-11" target="yILMz_F42p3W7vGwvf6j-88" edge="1">
          <mxGeometry relative="1" as="geometry">
            <mxPoint x="2478" y="-533" as="sourcePoint" />
            <mxPoint x="2613" y="-500" as="targetPoint" />
          </mxGeometry>
        </mxCell>
        <UserObject label="&lt;div&gt;Объектное хранилище Ceph с георезервированием&lt;br&gt;&lt;/div&gt;&lt;div&gt;&lt;br&gt;&lt;/div&gt;&lt;div&gt;&lt;br&gt;&lt;/div&gt;&lt;div style=&quot;font-size: 15px;&quot;&gt;&lt;br&gt;&lt;/div&gt;&lt;div&gt;&lt;font style=&quot;font-size: 9px;&quot;&gt;&lt;i&gt;2 бакета на 1 кластер Flink&lt;/i&gt;&lt;/font&gt;&lt;br&gt;&lt;/div&gt;" lucidchartObjectId="_KpIE2-JrPc8" id="_xkS5jxFh-QeE9HllDF4-46">
          <mxCell style="html=1;overflow=block;blockSpacing=1;whiteSpace=wrap;fontSize=20;fontStyle=1;align=center;spacing=9;verticalAlign=top;strokeOpacity=0;fillOpacity=100;rounded=1;absoluteArcSize=1;arcSize=12;fillColor=#d5e8d4;strokeWidth=0.8;strokeColor=#82b366;" parent="1" vertex="1">
            <mxGeometry x="188" y="630" width="360" height="150" as="geometry" />
          </mxCell>
        </UserObject>
        <UserObject label="Площадка 1, для часто обновляемых HA-метаданных и инкрементных / полных снэпшотов кластера Flink" lucidchartObjectId="fSpIcaWIN3Va" id="_xkS5jxFh-QeE9HllDF4-47">
          <mxCell style="html=1;overflow=block;blockSpacing=1;whiteSpace=wrap;fontSize=16.7;fontColor=#333333;align=left;spacing=9;verticalAlign=top;strokeOpacity=100;fillOpacity=100;rounded=1;absoluteArcSize=1;arcSize=12;fillColor=#ffffff;strokeWidth=0.8;" parent="1" vertex="1">
            <mxGeometry x="203" y="688" width="330" height="72" as="geometry" />
          </mxCell>
        </UserObject>
        <mxCell id="_xkS5jxFh-QeE9HllDF4-50" value="Синхронная репликация" style="text;html=1;align=center;verticalAlign=middle;whiteSpace=wrap;rounded=0;fontSize=8;fontColor=#3399FF;fontStyle=1" parent="1" vertex="1">
          <mxGeometry x="555" y="674" width="79" height="31" as="geometry" />
        </mxCell>
        <UserObject label="Server 1" lucidchartObjectId="HypIMii0T2fg" id="_xkS5jxFh-QeE9HllDF4-51">
          <mxCell style="html=1;overflow=block;blockSpacing=1;whiteSpace=wrap;fontSize=18.3;fontColor=#333333;fontStyle=1;spacingLeft=8.4;spacingRight=8.4;spacingTop=2.4;spacing=3.6;verticalAlign=top;strokeOpacity=0;fillOpacity=100;rounded=1;absoluteArcSize=1;arcSize=12;fillColor=#ffdda6;strokeWidth=0.8;" parent="1" vertex="1">
            <mxGeometry x="141.5" y="880" width="212" height="256" as="geometry" />
          </mxCell>
        </UserObject>
        <UserObject label="Server N" lucidchartObjectId="kbqIFTrSSb0c" id="_xkS5jxFh-QeE9HllDF4-52">
          <mxCell style="html=1;overflow=block;blockSpacing=1;whiteSpace=wrap;fontSize=18.3;fontColor=#333333;fontStyle=1;spacingLeft=8.4;spacingRight=8.4;spacingTop=2.4;spacing=3.6;verticalAlign=top;strokeOpacity=0;fillOpacity=100;rounded=1;absoluteArcSize=1;arcSize=12;fillColor=#ffdda6;strokeWidth=0.8;" parent="1" vertex="1">
            <mxGeometry x="371.5" y="880" width="212" height="256" as="geometry" />
          </mxCell>
        </UserObject>
        <UserObject label="Server 1" lucidchartObjectId="kgqIT20~Yh46" id="_xkS5jxFh-QeE9HllDF4-53">
          <mxCell style="html=1;overflow=block;blockSpacing=1;whiteSpace=wrap;fontSize=18.3;fontColor=#333333;fontStyle=1;spacingLeft=8.4;spacingRight=8.4;spacingTop=2.4;spacing=3.6;verticalAlign=top;strokeOpacity=0;fillOpacity=100;rounded=1;absoluteArcSize=1;arcSize=12;fillColor=#ffdda6;strokeWidth=0.8;" parent="1" vertex="1">
            <mxGeometry x="605.5" y="880" width="212" height="256" as="geometry" />
          </mxCell>
        </UserObject>
        <UserObject label="Server N" lucidchartObjectId="NgqIsRjEYktH" id="_xkS5jxFh-QeE9HllDF4-54">
          <mxCell style="html=1;overflow=block;blockSpacing=1;whiteSpace=wrap;fontSize=18.3;fontColor=#333333;fontStyle=1;spacingLeft=8.4;spacingRight=8.4;spacingTop=2.4;spacing=3.6;verticalAlign=top;strokeOpacity=0;fillOpacity=100;rounded=1;absoluteArcSize=1;arcSize=12;fillColor=#ffdda6;strokeWidth=0.8;" parent="1" vertex="1">
            <mxGeometry x="835.5" y="880" width="212" height="256" as="geometry" />
          </mxCell>
        </UserObject>
        <UserObject label="&lt;div style=&quot;line-height: 0.9;&quot;&gt;Кластер Apache Flink&lt;br&gt;&lt;/div&gt;&lt;div&gt;&lt;sup&gt;&lt;font style=&quot;font-size: 10px;&quot;&gt;УАСП-СПМ&lt;/font&gt;&lt;/sup&gt;&lt;br&gt;&lt;/div&gt;" lucidchartObjectId="WnqImOF1_m_N" id="_xkS5jxFh-QeE9HllDF4-55">
          <mxCell style="html=1;overflow=block;blockSpacing=1;whiteSpace=wrap;fontSize=20;fontColor=#ffffff;fontStyle=1;spacingLeft=8.4;spacingRight=8.4;spacingTop=2.4;spacing=3.6;verticalAlign=top;strokeOpacity=0;fillOpacity=100;rounded=1;absoluteArcSize=1;arcSize=12;fillColor=#8b90ff;strokeWidth=0.8;" parent="1" vertex="1">
            <mxGeometry x="130" y="965" width="929" height="164" as="geometry" />
          </mxCell>
        </UserObject>
        <UserObject label="&lt;div&gt;JOBMANAGER&lt;/div&gt;&lt;div&gt;&lt;font style=&quot;font-size: 14px;&quot;&gt;Standby&lt;/font&gt;&lt;/div&gt;" lucidchartObjectId="HypInYoTSrlu" id="_xkS5jxFh-QeE9HllDF4-56">
          <mxCell style="html=1;overflow=block;blockSpacing=1;whiteSpace=wrap;fontSize=18.3;fontColor=#ffffff;align=center;spacingLeft=8.4;spacingRight=8.4;spacingTop=2.4;spacing=3.6;strokeOpacity=0;fillOpacity=100;rounded=1;absoluteArcSize=1;arcSize=12;fillColor=#636aff;strokeWidth=0.8;" parent="1" vertex="1">
            <mxGeometry x="156" y="1009" width="184" height="48" as="geometry" />
          </mxCell>
        </UserObject>
        <UserObject label="TASKMANAGER" lucidchartObjectId="HypIgOagNPgA" id="_xkS5jxFh-QeE9HllDF4-57">
          <mxCell style="html=1;overflow=block;blockSpacing=1;whiteSpace=wrap;fontSize=18.3;fontColor=#ffffff;align=center;spacingLeft=8.4;spacingRight=8.4;spacingTop=2.4;spacing=3.6;strokeOpacity=0;fillOpacity=100;rounded=1;absoluteArcSize=1;arcSize=12;fillColor=#636aff;strokeWidth=0.8;" parent="1" vertex="1">
            <mxGeometry x="156" y="1073" width="184" height="48" as="geometry" />
          </mxCell>
        </UserObject>
        <UserObject label="&lt;div&gt;JOBMANAGER&lt;/div&gt;&lt;div&gt;&lt;font style=&quot;font-size: 14px;&quot;&gt;Standby&lt;/font&gt;&lt;/div&gt;" lucidchartObjectId="RXpI0It2jUcH" id="_xkS5jxFh-QeE9HllDF4-58">
          <mxCell style="html=1;overflow=block;blockSpacing=1;whiteSpace=wrap;fontSize=18.3;fontColor=#ffffff;align=center;spacingLeft=8.4;spacingRight=8.4;spacingTop=2.4;spacing=3.6;strokeOpacity=0;fillOpacity=100;rounded=1;absoluteArcSize=1;arcSize=12;fillColor=#636aff;strokeWidth=0.8;" parent="1" vertex="1">
            <mxGeometry x="387" y="1009" width="184" height="48" as="geometry" />
          </mxCell>
        </UserObject>
        <UserObject label="TASKMANAGER" lucidchartObjectId="RXpIgnX.f~PW" id="_xkS5jxFh-QeE9HllDF4-59">
          <mxCell style="html=1;overflow=block;blockSpacing=1;whiteSpace=wrap;fontSize=18.3;fontColor=#ffffff;align=center;spacingLeft=8.4;spacingRight=8.4;spacingTop=2.4;spacing=3.6;strokeOpacity=0;fillOpacity=100;rounded=1;absoluteArcSize=1;arcSize=12;fillColor=#636aff;strokeWidth=0.8;" parent="1" vertex="1">
            <mxGeometry x="387" y="1073" width="184" height="48" as="geometry" />
          </mxCell>
        </UserObject>
        <UserObject label="JOBMANAGER&lt;font color=&quot;#33ff33&quot; style=&quot;font-size: 14px;&quot;&gt;&lt;b&gt;&lt;br&gt;Leader&lt;/b&gt;&lt;/font&gt;" lucidchartObjectId="1XpI324HXPmj" id="_xkS5jxFh-QeE9HllDF4-60">
          <mxCell style="html=1;overflow=block;blockSpacing=1;whiteSpace=wrap;fontSize=18.3;fontColor=#ffffff;align=center;spacingLeft=8.4;spacingRight=8.4;spacingTop=2.4;spacing=3.6;strokeOpacity=0;fillOpacity=100;rounded=1;absoluteArcSize=1;arcSize=12;fillColor=#636aff;strokeWidth=0.8;" parent="1" vertex="1">
            <mxGeometry x="621" y="1009" width="184" height="48" as="geometry" />
          </mxCell>
        </UserObject>
        <UserObject label="TASKMANAGER" lucidchartObjectId="1XpItajlC~17" id="_xkS5jxFh-QeE9HllDF4-61">
          <mxCell style="html=1;overflow=block;blockSpacing=1;whiteSpace=wrap;fontSize=18.3;fontColor=#ffffff;align=center;spacingLeft=8.4;spacingRight=8.4;spacingTop=2.4;spacing=3.6;strokeOpacity=0;fillOpacity=100;rounded=1;absoluteArcSize=1;arcSize=12;fillColor=#636aff;strokeWidth=0.8;" parent="1" vertex="1">
            <mxGeometry x="621" y="1073" width="184" height="48" as="geometry" />
          </mxCell>
        </UserObject>
        <UserObject label="HISTORYSERVER" lucidchartObjectId="8XpIVe4FQzVd" id="_xkS5jxFh-QeE9HllDF4-62">
          <mxCell style="html=1;overflow=block;blockSpacing=1;whiteSpace=wrap;fontSize=18.3;fontColor=#ffffff;align=center;spacingLeft=8.4;spacingRight=8.4;spacingTop=2.4;spacing=3.6;strokeOpacity=0;fillOpacity=100;rounded=1;absoluteArcSize=1;arcSize=12;fillColor=#636aff;strokeWidth=0.8;" parent="1" vertex="1">
            <mxGeometry x="850" y="1009" width="184" height="48" as="geometry" />
          </mxCell>
        </UserObject>
        <UserObject label="TASKMANAGER" lucidchartObjectId="8XpI6pTr3cQC" id="_xkS5jxFh-QeE9HllDF4-63">
          <mxCell style="html=1;overflow=block;blockSpacing=1;whiteSpace=wrap;fontSize=18.3;fontColor=#ffffff;align=center;spacingLeft=8.4;spacingRight=8.4;spacingTop=2.4;spacing=3.6;strokeOpacity=0;fillOpacity=100;rounded=1;absoluteArcSize=1;arcSize=12;fillColor=#636aff;strokeWidth=0.8;" parent="1" vertex="1">
            <mxGeometry x="850" y="1073" width="184" height="48" as="geometry" />
          </mxCell>
        </UserObject>
        <mxCell id="_xkS5jxFh-QeE9HllDF4-64" style="edgeStyle=none;rounded=1;jumpStyle=none;orthogonalLoop=1;jettySize=auto;html=1;exitX=0.75;exitY=1;exitDx=0;exitDy=0;startArrow=oval;startFill=1;endArrow=oval;endFill=1;strokeColor=#82b366;strokeWidth=2;fillColor=#d5e8d4;" parent="1" edge="1">
          <mxGeometry relative="1" as="geometry">
            <mxPoint x="898.5" y="880" as="sourcePoint" />
            <mxPoint x="898.5" y="836" as="targetPoint" />
          </mxGeometry>
        </mxCell>
        <mxCell id="_xkS5jxFh-QeE9HllDF4-65" style="edgeStyle=none;rounded=1;jumpStyle=none;orthogonalLoop=1;jettySize=auto;html=1;exitX=0.75;exitY=1;exitDx=0;exitDy=0;startArrow=oval;startFill=1;endArrow=oval;endFill=1;strokeColor=#82b366;strokeWidth=2;fillColor=#d5e8d4;" parent="1" edge="1">
          <mxGeometry relative="1" as="geometry">
            <mxPoint x="696.5" y="880" as="sourcePoint" />
            <mxPoint x="696.5" y="836" as="targetPoint" />
          </mxGeometry>
        </mxCell>
        <mxCell id="_xkS5jxFh-QeE9HllDF4-66" style="edgeStyle=none;rounded=1;jumpStyle=none;orthogonalLoop=1;jettySize=auto;html=1;exitX=0.75;exitY=1;exitDx=0;exitDy=0;startArrow=oval;startFill=1;endArrow=oval;endFill=1;strokeColor=#82b366;strokeWidth=2;fillColor=#d5e8d4;" parent="1" edge="1">
          <mxGeometry relative="1" as="geometry">
            <mxPoint x="498.5" y="880" as="sourcePoint" />
            <mxPoint x="498.5" y="836" as="targetPoint" />
          </mxGeometry>
        </mxCell>
        <UserObject label="NGINX + nginx-ldap-auth" lucidchartObjectId="HypIE5tfspSB" id="_xkS5jxFh-QeE9HllDF4-67">
          <mxCell style="html=1;overflow=block;blockSpacing=1;whiteSpace=wrap;fontSize=18.3;fontColor=#333333;align=center;spacingLeft=8.4;spacingRight=8.4;spacingTop=2.4;spacing=3.6;verticalAlign=middle;strokeOpacity=0;fillOpacity=100;rounded=1;absoluteArcSize=1;arcSize=12;fillColor=#CACBE8;strokeWidth=0.8;" parent="1" vertex="1">
            <mxGeometry x="155.5" y="907" width="184" height="51" as="geometry" />
          </mxCell>
        </UserObject>
        <UserObject label="NGINX + nginx-ldap-auth" lucidchartObjectId="RXpI~8YFsiHd" id="_xkS5jxFh-QeE9HllDF4-68">
          <mxCell style="html=1;overflow=block;blockSpacing=1;whiteSpace=wrap;fontSize=18.3;fontColor=#333333;align=center;spacingLeft=8.4;spacingRight=8.4;spacingTop=2.4;spacing=3.6;verticalAlign=middle;strokeOpacity=0;fillOpacity=100;rounded=1;absoluteArcSize=1;arcSize=12;fillColor=#CACBE8;strokeWidth=0.8;" parent="1" vertex="1">
            <mxGeometry x="386.5" y="907" width="184" height="51" as="geometry" />
          </mxCell>
        </UserObject>
        <UserObject label="NGINX + nginx-ldap-auth" lucidchartObjectId="1XpIAn_rVOTK" id="_xkS5jxFh-QeE9HllDF4-69">
          <mxCell style="html=1;overflow=block;blockSpacing=1;whiteSpace=wrap;fontSize=18.3;fontColor=#333333;align=center;spacingLeft=8.4;spacingRight=8.4;spacingTop=2.4;spacing=3.6;verticalAlign=middle;strokeOpacity=0;fillOpacity=100;rounded=1;absoluteArcSize=1;arcSize=12;fillColor=#CACBE8;strokeWidth=0.8;" parent="1" vertex="1">
            <mxGeometry x="620.5" y="907" width="184" height="51" as="geometry" />
          </mxCell>
        </UserObject>
        <UserObject label="NGINX + nginx-ldap-auth" lucidchartObjectId="8XpIHrtV3hBn" id="_xkS5jxFh-QeE9HllDF4-70">
          <mxCell style="html=1;overflow=block;blockSpacing=1;whiteSpace=wrap;fontSize=18.3;fontColor=#333333;align=center;spacingLeft=8.4;spacingRight=8.4;spacingTop=2.4;spacing=3.6;verticalAlign=middle;strokeOpacity=0;fillOpacity=100;rounded=1;absoluteArcSize=1;arcSize=12;fillColor=#CACBE8;strokeWidth=0.8;strokeColor=#CACBE8;" parent="1" vertex="1">
            <mxGeometry x="849.5" y="907" width="184" height="51" as="geometry" />
          </mxCell>
        </UserObject>
        <mxCell id="_xkS5jxFh-QeE9HllDF4-71" style="edgeStyle=none;rounded=1;jumpStyle=none;orthogonalLoop=1;jettySize=auto;html=1;startArrow=oval;startFill=1;endArrow=oval;endFill=1;strokeColor=#CACBE8;strokeWidth=2;entryX=0.183;entryY=0.994;entryDx=0;entryDy=0;entryPerimeter=0;exitX=0.187;exitY=-0.014;exitDx=0;exitDy=0;exitPerimeter=0;" parent="1" edge="1">
          <mxGeometry relative="1" as="geometry">
            <mxPoint x="418" y="956" as="targetPoint" />
            <mxPoint x="418" y="1008" as="sourcePoint" />
          </mxGeometry>
        </mxCell>
        <mxCell id="_xkS5jxFh-QeE9HllDF4-72" style="edgeStyle=none;rounded=1;jumpStyle=none;orthogonalLoop=1;jettySize=auto;html=1;exitX=0.75;exitY=0;exitDx=0;exitDy=0;startArrow=oval;startFill=1;endArrow=oval;endFill=1;strokeColor=#CACBE8;strokeWidth=2;entryX=0.75;entryY=1;entryDx=0;entryDy=0;" parent="1" edge="1">
          <mxGeometry relative="1" as="geometry">
            <mxPoint x="291" y="956" as="targetPoint" />
            <mxPoint x="291" y="1009" as="sourcePoint" />
          </mxGeometry>
        </mxCell>
        <mxCell id="_xkS5jxFh-QeE9HllDF4-73" style="edgeStyle=none;rounded=1;jumpStyle=none;orthogonalLoop=1;jettySize=auto;html=1;exitX=0.75;exitY=0;exitDx=0;exitDy=0;startArrow=oval;startFill=1;endArrow=oval;endFill=1;strokeColor=#CACBE8;strokeWidth=2;entryX=0.75;entryY=1;entryDx=0;entryDy=0;" parent="1" edge="1">
          <mxGeometry relative="1" as="geometry">
            <mxPoint x="985" y="956" as="targetPoint" />
            <mxPoint x="985" y="1009" as="sourcePoint" />
          </mxGeometry>
        </mxCell>
        <mxCell id="_xkS5jxFh-QeE9HllDF4-74" style="edgeStyle=none;rounded=1;jumpStyle=none;orthogonalLoop=1;jettySize=auto;html=1;startArrow=oval;startFill=1;endArrow=oval;endFill=1;strokeColor=#CACBE8;strokeWidth=2;exitX=0.812;exitY=0.994;exitDx=0;exitDy=0;exitPerimeter=0;entryX=0.815;entryY=-0.014;entryDx=0;entryDy=0;entryPerimeter=0;" parent="1" edge="1">
          <mxGeometry relative="1" as="geometry">
            <mxPoint x="768" y="1008" as="targetPoint" />
            <mxPoint x="767" y="956" as="sourcePoint" />
          </mxGeometry>
        </mxCell>
        <mxCell id="_xkS5jxFh-QeE9HllDF4-75" value="" style="endArrow=none;dashed=1;html=1;dashPattern=1 3;strokeWidth=6;rounded=0;entryX=0.818;entryY=0.058;entryDx=0;entryDy=0;entryPerimeter=0;strokeColor=#727272;exitX=0.252;exitY=0.066;exitDx=0;exitDy=0;exitPerimeter=0;" parent="1" edge="1">
          <mxGeometry width="50" height="50" relative="1" as="geometry">
            <mxPoint x="413.924" y="897.1599999999999" as="sourcePoint" />
            <mxPoint x="300.91599999999994" y="897.0799999999999" as="targetPoint" />
          </mxGeometry>
        </mxCell>
        <mxCell id="_xkS5jxFh-QeE9HllDF4-76" value="" style="endArrow=none;dashed=1;html=1;dashPattern=1 3;strokeWidth=6;rounded=0;entryX=0.818;entryY=0.058;entryDx=0;entryDy=0;entryPerimeter=0;strokeColor=#727272;exitX=0.252;exitY=0.066;exitDx=0;exitDy=0;exitPerimeter=0;" parent="1" edge="1">
          <mxGeometry width="50" height="50" relative="1" as="geometry">
            <mxPoint x="877.924" y="898.1599999999999" as="sourcePoint" />
            <mxPoint x="764.9159999999999" y="898.0799999999999" as="targetPoint" />
          </mxGeometry>
        </mxCell>
        <mxCell id="_xkS5jxFh-QeE9HllDF4-77" style="edgeStyle=none;rounded=0;jumpStyle=none;orthogonalLoop=1;jettySize=auto;html=1;exitX=1;exitY=0.5;exitDx=0;exitDy=0;entryX=0;entryY=0.5;entryDx=0;entryDy=0;startArrow=none;startFill=0;endArrow=classic;endFill=0;strokeColor=#7EA6E0;strokeWidth=2;" parent="1" source="_xkS5jxFh-QeE9HllDF4-56" target="_xkS5jxFh-QeE9HllDF4-58" edge="1">
          <mxGeometry relative="1" as="geometry">
            <mxPoint x="347" y="1038" as="sourcePoint" />
            <mxPoint x="394" y="1038" as="targetPoint" />
          </mxGeometry>
        </mxCell>
        <mxCell id="_xkS5jxFh-QeE9HllDF4-78" style="edgeStyle=none;rounded=0;jumpStyle=none;orthogonalLoop=1;jettySize=auto;html=1;exitX=1;exitY=0.5;exitDx=0;exitDy=0;entryX=0;entryY=0.5;entryDx=0;entryDy=0;startArrow=none;startFill=0;endArrow=classic;endFill=0;strokeColor=#7EA6E0;strokeWidth=2;" parent="1" source="_xkS5jxFh-QeE9HllDF4-58" target="_xkS5jxFh-QeE9HllDF4-60" edge="1">
          <mxGeometry relative="1" as="geometry">
            <mxPoint x="572" y="1028" as="sourcePoint" />
            <mxPoint x="619" y="1028" as="targetPoint" />
          </mxGeometry>
        </mxCell>
        <mxCell id="_xkS5jxFh-QeE9HllDF4-85" value="" style="endArrow=none;dashed=1;html=1;dashPattern=1 3;strokeWidth=2;rounded=0;" parent="1" edge="1">
          <mxGeometry width="50" height="50" relative="1" as="geometry">
            <mxPoint x="1694" y="1170" as="sourcePoint" />
            <mxPoint x="1695" y="215" as="targetPoint" />
          </mxGeometry>
        </mxCell>
        <UserObject label="Server 1" lucidchartObjectId="HypIMii0T2fg" id="_xkS5jxFh-QeE9HllDF4-86">
          <mxCell style="html=1;overflow=block;blockSpacing=1;whiteSpace=wrap;fontSize=18.3;fontColor=#333333;fontStyle=1;spacingLeft=8.4;spacingRight=8.4;spacingTop=2.4;spacing=3.6;verticalAlign=top;strokeOpacity=0;fillOpacity=100;rounded=1;absoluteArcSize=1;arcSize=12;fillColor=#ffdda6;strokeWidth=0.8;" parent="1" vertex="1">
            <mxGeometry x="1241.5" y="270" width="212" height="256" as="geometry" />
          </mxCell>
        </UserObject>
        <UserObject label="Server N" lucidchartObjectId="kbqIFTrSSb0c" id="_xkS5jxFh-QeE9HllDF4-87">
          <mxCell style="html=1;overflow=block;blockSpacing=1;whiteSpace=wrap;fontSize=18.3;fontColor=#333333;fontStyle=1;spacingLeft=8.4;spacingRight=8.4;spacingTop=2.4;spacing=3.6;verticalAlign=top;strokeOpacity=0;fillOpacity=100;rounded=1;absoluteArcSize=1;arcSize=12;fillColor=#ffdda6;strokeWidth=0.8;" parent="1" vertex="1">
            <mxGeometry x="1471.5" y="270" width="212" height="256" as="geometry" />
          </mxCell>
        </UserObject>
        <UserObject label="Server 1" lucidchartObjectId="kgqIT20~Yh46" id="_xkS5jxFh-QeE9HllDF4-88">
          <mxCell style="html=1;overflow=block;blockSpacing=1;whiteSpace=wrap;fontSize=18.3;fontColor=#333333;fontStyle=1;spacingLeft=8.4;spacingRight=8.4;spacingTop=2.4;spacing=3.6;verticalAlign=top;strokeOpacity=0;fillOpacity=100;rounded=1;absoluteArcSize=1;arcSize=12;fillColor=#ffdda6;strokeWidth=0.8;" parent="1" vertex="1">
            <mxGeometry x="1705.5" y="270" width="212" height="256" as="geometry" />
          </mxCell>
        </UserObject>
        <UserObject label="Server N" lucidchartObjectId="NgqIsRjEYktH" id="_xkS5jxFh-QeE9HllDF4-89">
          <mxCell style="html=1;overflow=block;blockSpacing=1;whiteSpace=wrap;fontSize=18.3;fontColor=#333333;fontStyle=1;spacingLeft=8.4;spacingRight=8.4;spacingTop=2.4;spacing=3.6;verticalAlign=top;strokeOpacity=0;fillOpacity=100;rounded=1;absoluteArcSize=1;arcSize=12;fillColor=#ffdda6;strokeWidth=0.8;" parent="1" vertex="1">
            <mxGeometry x="1935.5" y="270" width="212" height="256" as="geometry" />
          </mxCell>
        </UserObject>
        <object label="" tooltip="Синхронная репликация" id="_xkS5jxFh-QeE9HllDF4-90">
          <mxCell style="edgeStyle=orthogonalEdgeStyle;rounded=0;orthogonalLoop=1;jettySize=auto;html=1;entryX=1;entryY=0.5;entryDx=0;entryDy=0;dashed=1;dashPattern=1 1;fontColor=#3399FF;strokeColor=#0080ff;startArrow=classic;startFill=1;endArrow=none;endFill=0;" parent="1" source="_xkS5jxFh-QeE9HllDF4-91" target="_xkS5jxFh-QeE9HllDF4-120" edge="1">
            <mxGeometry relative="1" as="geometry">
              <mxPoint x="1650" y="695" as="targetPoint" />
            </mxGeometry>
          </mxCell>
        </object>
        <UserObject label="&lt;div&gt;Объектное хранилище Ceph с георезервированием&lt;/div&gt;&lt;div&gt;&lt;br&gt;&lt;/div&gt;&lt;div&gt;&lt;br&gt;&lt;/div&gt;&lt;div style=&quot;font-size: 16px;&quot;&gt;&lt;br&gt;&lt;/div&gt;&lt;div&gt;&lt;font style=&quot;font-size: 9px;&quot;&gt;&lt;i&gt;2 бакета на 1 кластер Flink&lt;/i&gt;&lt;/font&gt;&lt;/div&gt;" lucidchartObjectId="_KpIE2-JrPc8" id="_xkS5jxFh-QeE9HllDF4-91">
          <mxCell style="html=1;overflow=block;blockSpacing=1;whiteSpace=wrap;fontSize=20;fontStyle=1;align=center;spacing=9;verticalAlign=top;strokeOpacity=0;fillOpacity=100;rounded=1;absoluteArcSize=1;arcSize=12;fillColor=#d5e8d4;strokeWidth=0.8;strokeColor=#82b366;" parent="1" vertex="1">
            <mxGeometry x="1745" y="630" width="360" height="150" as="geometry" />
          </mxCell>
        </UserObject>
        <UserObject label="Площадка 2, для часто обновляемых HA-метаданных и&amp;nbsp;инкрементных / полных снэпшотов кластера Flink " lucidchartObjectId="fSpIcaWIN3Va" id="_xkS5jxFh-QeE9HllDF4-92">
          <mxCell style="html=1;overflow=block;blockSpacing=1;whiteSpace=wrap;fontSize=16.7;fontColor=#333333;align=left;spacing=9;verticalAlign=top;strokeOpacity=100;fillOpacity=100;rounded=1;absoluteArcSize=1;arcSize=12;fillColor=#ffffff;strokeWidth=0.8;" parent="1" vertex="1">
            <mxGeometry x="1760" y="688" width="330" height="72" as="geometry" />
          </mxCell>
        </UserObject>
        <UserObject label="&lt;div style=&quot;line-height: 0.9;&quot;&gt;Кластер Apache Flink&lt;br&gt;&lt;/div&gt;&lt;div&gt;&lt;sup&gt;&lt;font style=&quot;font-size: 10px;&quot;&gt;УАСП&lt;/font&gt;&lt;/sup&gt;&lt;br&gt;&lt;/div&gt;" lucidchartObjectId="WnqImOF1_m_N" id="_xkS5jxFh-QeE9HllDF4-93">
          <mxCell style="html=1;overflow=block;blockSpacing=1;whiteSpace=wrap;fontSize=20;fontColor=#ffffff;fontStyle=1;spacingLeft=8.4;spacingRight=8.4;spacingTop=2.4;spacing=3.6;verticalAlign=top;strokeOpacity=0;fillOpacity=100;rounded=1;absoluteArcSize=1;arcSize=12;fillColor=#8b90ff;strokeWidth=0.8;" parent="1" vertex="1">
            <mxGeometry x="1230" y="355" width="929" height="164" as="geometry" />
          </mxCell>
        </UserObject>
        <UserObject label="&lt;div&gt;JOBMANAGER&lt;/div&gt;&lt;div&gt;&lt;font color=&quot;#33ff33&quot; style=&quot;font-size: 14px;&quot;&gt;&lt;b&gt;Leader&lt;/b&gt;&lt;/font&gt;&lt;/div&gt;" lucidchartObjectId="HypInYoTSrlu" id="_xkS5jxFh-QeE9HllDF4-94">
          <mxCell style="html=1;overflow=block;blockSpacing=1;whiteSpace=wrap;fontSize=18.3;fontColor=#ffffff;align=center;spacingLeft=8.4;spacingRight=8.4;spacingTop=2.4;spacing=3.6;strokeOpacity=0;fillOpacity=100;rounded=1;absoluteArcSize=1;arcSize=12;fillColor=#636aff;strokeWidth=0.8;" parent="1" vertex="1">
            <mxGeometry x="1256" y="399" width="184" height="48" as="geometry" />
          </mxCell>
        </UserObject>
        <UserObject label="TASKMANAGER" lucidchartObjectId="HypIgOagNPgA" id="_xkS5jxFh-QeE9HllDF4-95">
          <mxCell style="html=1;overflow=block;blockSpacing=1;whiteSpace=wrap;fontSize=18.3;fontColor=#ffffff;align=center;spacingLeft=8.4;spacingRight=8.4;spacingTop=2.4;spacing=3.6;strokeOpacity=0;fillOpacity=100;rounded=1;absoluteArcSize=1;arcSize=12;fillColor=#636aff;strokeWidth=0.8;" parent="1" vertex="1">
            <mxGeometry x="1256" y="463" width="184" height="48" as="geometry" />
          </mxCell>
        </UserObject>
        <UserObject label="JOBMANAGER&lt;br&gt;&lt;font style=&quot;font-size: 14px;&quot;&gt;Standby&lt;/font&gt;" lucidchartObjectId="RXpI0It2jUcH" id="_xkS5jxFh-QeE9HllDF4-96">
          <mxCell style="html=1;overflow=block;blockSpacing=1;whiteSpace=wrap;fontSize=18.3;fontColor=#ffffff;align=center;spacingLeft=8.4;spacingRight=8.4;spacingTop=2.4;spacing=3.6;strokeOpacity=0;fillOpacity=100;rounded=1;absoluteArcSize=1;arcSize=12;fillColor=#636aff;strokeWidth=0.8;" parent="1" vertex="1">
            <mxGeometry x="1487" y="399" width="184" height="48" as="geometry" />
          </mxCell>
        </UserObject>
        <UserObject label="TASKMANAGER" lucidchartObjectId="RXpIgnX.f~PW" id="_xkS5jxFh-QeE9HllDF4-97">
          <mxCell style="html=1;overflow=block;blockSpacing=1;whiteSpace=wrap;fontSize=18.3;fontColor=#ffffff;align=center;spacingLeft=8.4;spacingRight=8.4;spacingTop=2.4;spacing=3.6;strokeOpacity=0;fillOpacity=100;rounded=1;absoluteArcSize=1;arcSize=12;fillColor=#636aff;strokeWidth=0.8;" parent="1" vertex="1">
            <mxGeometry x="1487" y="463" width="184" height="48" as="geometry" />
          </mxCell>
        </UserObject>
        <UserObject label="JOBMANAGER&lt;br&gt;&lt;font style=&quot;font-size: 14px;&quot;&gt;Standby&lt;/font&gt;" lucidchartObjectId="1XpI324HXPmj" id="_xkS5jxFh-QeE9HllDF4-98">
          <mxCell style="html=1;overflow=block;blockSpacing=1;whiteSpace=wrap;fontSize=18.3;fontColor=#ffffff;align=center;spacingLeft=8.4;spacingRight=8.4;spacingTop=2.4;spacing=3.6;strokeOpacity=0;fillOpacity=100;rounded=1;absoluteArcSize=1;arcSize=12;fillColor=#636aff;strokeWidth=0.8;" parent="1" vertex="1">
            <mxGeometry x="1721" y="399" width="184" height="48" as="geometry" />
          </mxCell>
        </UserObject>
        <UserObject label="TASKMANAGER" lucidchartObjectId="1XpItajlC~17" id="_xkS5jxFh-QeE9HllDF4-99">
          <mxCell style="html=1;overflow=block;blockSpacing=1;whiteSpace=wrap;fontSize=18.3;fontColor=#ffffff;align=center;spacingLeft=8.4;spacingRight=8.4;spacingTop=2.4;spacing=3.6;strokeOpacity=0;fillOpacity=100;rounded=1;absoluteArcSize=1;arcSize=12;fillColor=#636aff;strokeWidth=0.8;" parent="1" vertex="1">
            <mxGeometry x="1721" y="463" width="184" height="48" as="geometry" />
          </mxCell>
        </UserObject>
        <UserObject label="HISTORYSERVER" lucidchartObjectId="8XpIVe4FQzVd" id="_xkS5jxFh-QeE9HllDF4-100">
          <mxCell style="html=1;overflow=block;blockSpacing=1;whiteSpace=wrap;fontSize=18.3;fontColor=#ffffff;align=center;spacingLeft=8.4;spacingRight=8.4;spacingTop=2.4;spacing=3.6;strokeOpacity=0;fillOpacity=100;rounded=1;absoluteArcSize=1;arcSize=12;fillColor=#636aff;strokeWidth=0.8;" parent="1" vertex="1">
            <mxGeometry x="1950" y="399" width="184" height="48" as="geometry" />
          </mxCell>
        </UserObject>
        <UserObject label="TASKMANAGER" lucidchartObjectId="8XpI6pTr3cQC" id="_xkS5jxFh-QeE9HllDF4-101">
          <mxCell style="html=1;overflow=block;blockSpacing=1;whiteSpace=wrap;fontSize=18.3;fontColor=#ffffff;align=center;spacingLeft=8.4;spacingRight=8.4;spacingTop=2.4;spacing=3.6;strokeOpacity=0;fillOpacity=100;rounded=1;absoluteArcSize=1;arcSize=12;fillColor=#636aff;strokeWidth=0.8;" parent="1" vertex="1">
            <mxGeometry x="1950" y="463" width="184" height="48" as="geometry" />
          </mxCell>
        </UserObject>
        <mxCell id="_xkS5jxFh-QeE9HllDF4-102" style="edgeStyle=none;rounded=1;jumpStyle=none;orthogonalLoop=1;jettySize=auto;html=1;exitX=0.75;exitY=1;exitDx=0;exitDy=0;startArrow=oval;startFill=1;endArrow=oval;endFill=1;strokeColor=#82b366;strokeWidth=2;fillColor=#d5e8d4;" parent="1" edge="1">
          <mxGeometry relative="1" as="geometry">
            <mxPoint x="1826" y="528" as="sourcePoint" />
            <mxPoint x="1826" y="572" as="targetPoint" />
          </mxGeometry>
        </mxCell>
        <mxCell id="_xkS5jxFh-QeE9HllDF4-103" style="edgeStyle=none;rounded=1;jumpStyle=none;orthogonalLoop=1;jettySize=auto;html=1;exitX=0.75;exitY=1;exitDx=0;exitDy=0;startArrow=oval;startFill=1;endArrow=oval;endFill=1;strokeColor=#82b366;strokeWidth=2;fillColor=#d5e8d4;" parent="1" edge="1">
          <mxGeometry relative="1" as="geometry">
            <mxPoint x="1604" y="528" as="sourcePoint" />
            <mxPoint x="1604" y="572" as="targetPoint" />
          </mxGeometry>
        </mxCell>
        <mxCell id="_xkS5jxFh-QeE9HllDF4-104" style="edgeStyle=none;rounded=1;jumpStyle=none;orthogonalLoop=1;jettySize=auto;html=1;exitX=0.75;exitY=1;exitDx=0;exitDy=0;startArrow=oval;startFill=1;endArrow=oval;endFill=1;strokeColor=#82b366;strokeWidth=2;fillColor=#d5e8d4;" parent="1" edge="1">
          <mxGeometry relative="1" as="geometry">
            <mxPoint x="1416" y="528" as="sourcePoint" />
            <mxPoint x="1416" y="572" as="targetPoint" />
          </mxGeometry>
        </mxCell>
        <UserObject label="NGINX + nginx-ldap-auth" lucidchartObjectId="HypIE5tfspSB" id="_xkS5jxFh-QeE9HllDF4-105">
          <mxCell style="html=1;overflow=block;blockSpacing=1;whiteSpace=wrap;fontSize=18.3;fontColor=#333333;align=center;spacingLeft=8.4;spacingRight=8.4;spacingTop=2.4;spacing=3.6;verticalAlign=middle;strokeOpacity=0;fillOpacity=100;rounded=1;absoluteArcSize=1;arcSize=12;fillColor=#CACBE8;strokeWidth=0.8;" parent="1" vertex="1">
            <mxGeometry x="1255.5" y="297" width="184" height="51" as="geometry" />
          </mxCell>
        </UserObject>
        <UserObject label="NGINX + nginx-ldap-auth" lucidchartObjectId="RXpI~8YFsiHd" id="_xkS5jxFh-QeE9HllDF4-106">
          <mxCell style="html=1;overflow=block;blockSpacing=1;whiteSpace=wrap;fontSize=18.3;fontColor=#333333;align=center;spacingLeft=8.4;spacingRight=8.4;spacingTop=2.4;spacing=3.6;verticalAlign=middle;strokeOpacity=0;fillOpacity=100;rounded=1;absoluteArcSize=1;arcSize=12;fillColor=#CACBE8;strokeWidth=0.8;" parent="1" vertex="1">
            <mxGeometry x="1486.5" y="297" width="184" height="51" as="geometry" />
          </mxCell>
        </UserObject>
        <UserObject label="NGINX + nginx-ldap-auth" lucidchartObjectId="1XpIAn_rVOTK" id="_xkS5jxFh-QeE9HllDF4-107">
          <mxCell style="html=1;overflow=block;blockSpacing=1;whiteSpace=wrap;fontSize=18.3;fontColor=#333333;align=center;spacingLeft=8.4;spacingRight=8.4;spacingTop=2.4;spacing=3.6;verticalAlign=middle;strokeOpacity=0;fillOpacity=100;rounded=1;absoluteArcSize=1;arcSize=12;fillColor=#CACBE8;strokeWidth=0.8;" parent="1" vertex="1">
            <mxGeometry x="1720.5" y="297" width="184" height="51" as="geometry" />
          </mxCell>
        </UserObject>
        <UserObject label="NGINX + nginx-ldap-auth" lucidchartObjectId="8XpIHrtV3hBn" id="_xkS5jxFh-QeE9HllDF4-108">
          <mxCell style="html=1;overflow=block;blockSpacing=1;whiteSpace=wrap;fontSize=18.3;fontColor=#333333;align=center;spacingLeft=8.4;spacingRight=8.4;spacingTop=2.4;spacing=3.6;verticalAlign=middle;strokeOpacity=0;fillOpacity=100;rounded=1;absoluteArcSize=1;arcSize=12;fillColor=#CACBE8;strokeWidth=0.8;strokeColor=#CACBE8;" parent="1" vertex="1">
            <mxGeometry x="1949.5" y="297" width="184" height="51" as="geometry" />
          </mxCell>
        </UserObject>
        <mxCell id="_xkS5jxFh-QeE9HllDF4-109" style="edgeStyle=none;rounded=1;jumpStyle=none;orthogonalLoop=1;jettySize=auto;html=1;startArrow=oval;startFill=1;endArrow=oval;endFill=1;strokeColor=#CACBE8;strokeWidth=2;entryX=0.183;entryY=0.994;entryDx=0;entryDy=0;entryPerimeter=0;exitX=0.187;exitY=-0.014;exitDx=0;exitDy=0;exitPerimeter=0;" parent="1" edge="1">
          <mxGeometry relative="1" as="geometry">
            <mxPoint x="1518" y="346" as="targetPoint" />
            <mxPoint x="1518" y="398" as="sourcePoint" />
          </mxGeometry>
        </mxCell>
        <mxCell id="_xkS5jxFh-QeE9HllDF4-110" style="edgeStyle=none;rounded=1;jumpStyle=none;orthogonalLoop=1;jettySize=auto;html=1;exitX=0.75;exitY=0;exitDx=0;exitDy=0;startArrow=oval;startFill=1;endArrow=oval;endFill=1;strokeColor=#CACBE8;strokeWidth=2;entryX=0.75;entryY=1;entryDx=0;entryDy=0;" parent="1" edge="1">
          <mxGeometry relative="1" as="geometry">
            <mxPoint x="1391" y="346" as="targetPoint" />
            <mxPoint x="1391" y="399" as="sourcePoint" />
          </mxGeometry>
        </mxCell>
        <mxCell id="_xkS5jxFh-QeE9HllDF4-111" style="edgeStyle=none;rounded=1;jumpStyle=none;orthogonalLoop=1;jettySize=auto;html=1;exitX=0.75;exitY=0;exitDx=0;exitDy=0;startArrow=oval;startFill=1;endArrow=oval;endFill=1;strokeColor=#CACBE8;strokeWidth=2;entryX=0.75;entryY=1;entryDx=0;entryDy=0;" parent="1" edge="1">
          <mxGeometry relative="1" as="geometry">
            <mxPoint x="2085" y="346" as="targetPoint" />
            <mxPoint x="2085" y="399" as="sourcePoint" />
          </mxGeometry>
        </mxCell>
        <mxCell id="_xkS5jxFh-QeE9HllDF4-112" style="edgeStyle=none;rounded=1;jumpStyle=none;orthogonalLoop=1;jettySize=auto;html=1;startArrow=oval;startFill=1;endArrow=oval;endFill=1;strokeColor=#CACBE8;strokeWidth=2;exitX=0.812;exitY=0.994;exitDx=0;exitDy=0;exitPerimeter=0;entryX=0.815;entryY=-0.014;entryDx=0;entryDy=0;entryPerimeter=0;" parent="1" edge="1">
          <mxGeometry relative="1" as="geometry">
            <mxPoint x="1868" y="398" as="targetPoint" />
            <mxPoint x="1867" y="346" as="sourcePoint" />
          </mxGeometry>
        </mxCell>
        <mxCell id="_xkS5jxFh-QeE9HllDF4-113" value="&lt;b style=&quot;font-size: 24px;&quot;&gt;DC1&lt;/b&gt;" style="rounded=0;whiteSpace=wrap;html=1;fontSize=24;" parent="1" vertex="1">
          <mxGeometry x="1425" y="200" width="100" height="40" as="geometry" />
        </mxCell>
        <mxCell id="_xkS5jxFh-QeE9HllDF4-114" value="&lt;b style=&quot;font-size: 24px;&quot;&gt;DC2&lt;/b&gt;" style="rounded=0;whiteSpace=wrap;html=1;fontSize=24;" parent="1" vertex="1">
          <mxGeometry x="1875" y="200" width="100" height="40" as="geometry" />
        </mxCell>
        <mxCell id="_xkS5jxFh-QeE9HllDF4-115" value="" style="endArrow=none;dashed=1;html=1;dashPattern=1 3;strokeWidth=6;rounded=0;entryX=0.818;entryY=0.058;entryDx=0;entryDy=0;entryPerimeter=0;strokeColor=#727272;exitX=0.252;exitY=0.066;exitDx=0;exitDy=0;exitPerimeter=0;" parent="1" edge="1">
          <mxGeometry width="50" height="50" relative="1" as="geometry">
            <mxPoint x="1513.924" y="287.15999999999985" as="sourcePoint" />
            <mxPoint x="1400.916" y="287.0799999999999" as="targetPoint" />
          </mxGeometry>
        </mxCell>
        <mxCell id="_xkS5jxFh-QeE9HllDF4-116" value="" style="endArrow=none;dashed=1;html=1;dashPattern=1 3;strokeWidth=6;rounded=0;entryX=0.818;entryY=0.058;entryDx=0;entryDy=0;entryPerimeter=0;strokeColor=#727272;exitX=0.252;exitY=0.066;exitDx=0;exitDy=0;exitPerimeter=0;" parent="1" edge="1">
          <mxGeometry width="50" height="50" relative="1" as="geometry">
            <mxPoint x="1977.924" y="288.15999999999985" as="sourcePoint" />
            <mxPoint x="1864.916" y="288.0799999999999" as="targetPoint" />
          </mxGeometry>
        </mxCell>
        <mxCell id="_xkS5jxFh-QeE9HllDF4-117" style="edgeStyle=none;rounded=0;jumpStyle=none;orthogonalLoop=1;jettySize=auto;html=1;exitX=1;exitY=0.5;exitDx=0;exitDy=0;entryX=0;entryY=0.5;entryDx=0;entryDy=0;startArrow=none;startFill=0;endArrow=classic;endFill=0;strokeColor=#7EA6E0;strokeWidth=2;" parent="1" source="_xkS5jxFh-QeE9HllDF4-94" target="_xkS5jxFh-QeE9HllDF4-96" edge="1">
          <mxGeometry relative="1" as="geometry">
            <mxPoint x="1447" y="428" as="sourcePoint" />
            <mxPoint x="1494" y="428" as="targetPoint" />
          </mxGeometry>
        </mxCell>
        <mxCell id="_xkS5jxFh-QeE9HllDF4-118" style="edgeStyle=none;rounded=0;jumpStyle=none;orthogonalLoop=1;jettySize=auto;html=1;exitX=1;exitY=0.5;exitDx=0;exitDy=0;entryX=0;entryY=0.5;entryDx=0;entryDy=0;startArrow=none;startFill=0;endArrow=classic;endFill=0;strokeColor=#7EA6E0;strokeWidth=2;" parent="1" source="_xkS5jxFh-QeE9HllDF4-96" target="_xkS5jxFh-QeE9HllDF4-98" edge="1">
          <mxGeometry relative="1" as="geometry">
            <mxPoint x="1672" y="418" as="sourcePoint" />
            <mxPoint x="1719" y="418" as="targetPoint" />
          </mxGeometry>
        </mxCell>
        <UserObject label="&lt;div&gt;Объектное хранилище Ceph с георезервированием&lt;/div&gt;&lt;div&gt;&lt;br&gt;&lt;/div&gt;&lt;div&gt;&lt;br&gt;&lt;/div&gt;&lt;div style=&quot;font-size: 15px;&quot;&gt;&lt;br&gt;&lt;/div&gt;&lt;div&gt;&lt;font style=&quot;font-size: 9px;&quot;&gt;&lt;i&gt;2 бакета на 1 кластер Flink&lt;/i&gt;&lt;/font&gt;&lt;/div&gt;" lucidchartObjectId="_KpIE2-JrPc8" id="_xkS5jxFh-QeE9HllDF4-120">
          <mxCell style="html=1;overflow=block;blockSpacing=1;whiteSpace=wrap;fontSize=20;fontStyle=1;align=center;spacing=9;verticalAlign=top;strokeOpacity=0;fillOpacity=100;rounded=1;absoluteArcSize=1;arcSize=12;fillColor=#d5e8d4;strokeWidth=0.8;strokeColor=#82b366;" parent="1" vertex="1">
            <mxGeometry x="1288" y="630" width="360" height="150" as="geometry" />
          </mxCell>
        </UserObject>
        <UserObject label="Площадка 1, для часто обновляемых HA-метаданных и инкрементных / полных снэпшотов кластера Flink" lucidchartObjectId="fSpIcaWIN3Va" id="_xkS5jxFh-QeE9HllDF4-121">
          <mxCell style="html=1;overflow=block;blockSpacing=1;whiteSpace=wrap;fontSize=16.7;fontColor=#333333;align=left;spacing=9;verticalAlign=top;strokeOpacity=100;fillOpacity=100;rounded=1;absoluteArcSize=1;arcSize=12;fillColor=#ffffff;strokeWidth=0.8;" parent="1" vertex="1">
            <mxGeometry x="1303" y="688" width="330" height="72" as="geometry" />
          </mxCell>
        </UserObject>
        <mxCell id="_xkS5jxFh-QeE9HllDF4-122" value="Синхронная репликация" style="text;html=1;align=center;verticalAlign=middle;whiteSpace=wrap;rounded=0;fontSize=8;fontColor=#3399FF;fontStyle=1" parent="1" vertex="1">
          <mxGeometry x="1655" y="674" width="79" height="31" as="geometry" />
        </mxCell>
        <UserObject label="Server 1" lucidchartObjectId="HypIMii0T2fg" id="_xkS5jxFh-QeE9HllDF4-123">
          <mxCell style="html=1;overflow=block;blockSpacing=1;whiteSpace=wrap;fontSize=18.3;fontColor=#333333;fontStyle=1;spacingLeft=8.4;spacingRight=8.4;spacingTop=2.4;spacing=3.6;verticalAlign=top;strokeOpacity=0;fillOpacity=100;rounded=1;absoluteArcSize=1;arcSize=12;fillColor=#ffdda6;strokeWidth=0.8;" parent="1" vertex="1">
            <mxGeometry x="1241.5" y="880" width="212" height="256" as="geometry" />
          </mxCell>
        </UserObject>
        <UserObject label="Server N" lucidchartObjectId="kbqIFTrSSb0c" id="_xkS5jxFh-QeE9HllDF4-124">
          <mxCell style="html=1;overflow=block;blockSpacing=1;whiteSpace=wrap;fontSize=18.3;fontColor=#333333;fontStyle=1;spacingLeft=8.4;spacingRight=8.4;spacingTop=2.4;spacing=3.6;verticalAlign=top;strokeOpacity=0;fillOpacity=100;rounded=1;absoluteArcSize=1;arcSize=12;fillColor=#ffdda6;strokeWidth=0.8;" parent="1" vertex="1">
            <mxGeometry x="1471.5" y="880" width="212" height="256" as="geometry" />
          </mxCell>
        </UserObject>
        <UserObject label="Server 1" lucidchartObjectId="kgqIT20~Yh46" id="_xkS5jxFh-QeE9HllDF4-125">
          <mxCell style="html=1;overflow=block;blockSpacing=1;whiteSpace=wrap;fontSize=18.3;fontColor=#333333;fontStyle=1;spacingLeft=8.4;spacingRight=8.4;spacingTop=2.4;spacing=3.6;verticalAlign=top;strokeOpacity=0;fillOpacity=100;rounded=1;absoluteArcSize=1;arcSize=12;fillColor=#ffdda6;strokeWidth=0.8;" parent="1" vertex="1">
            <mxGeometry x="1705.5" y="880" width="212" height="256" as="geometry" />
          </mxCell>
        </UserObject>
        <UserObject label="Server N" lucidchartObjectId="NgqIsRjEYktH" id="_xkS5jxFh-QeE9HllDF4-126">
          <mxCell style="html=1;overflow=block;blockSpacing=1;whiteSpace=wrap;fontSize=18.3;fontColor=#333333;fontStyle=1;spacingLeft=8.4;spacingRight=8.4;spacingTop=2.4;spacing=3.6;verticalAlign=top;strokeOpacity=0;fillOpacity=100;rounded=1;absoluteArcSize=1;arcSize=12;fillColor=#ffdda6;strokeWidth=0.8;" parent="1" vertex="1">
            <mxGeometry x="1935.5" y="880" width="212" height="256" as="geometry" />
          </mxCell>
        </UserObject>
        <UserObject label="&lt;div style=&quot;line-height: 0.9;&quot;&gt;Кластер Apache Flink&lt;br&gt;&lt;/div&gt;&lt;div&gt;&lt;sup&gt;&lt;font style=&quot;font-size: 10px;&quot;&gt;УАСП-СПМ&lt;/font&gt;&lt;/sup&gt;&lt;br&gt;&lt;/div&gt;" lucidchartObjectId="WnqImOF1_m_N" id="_xkS5jxFh-QeE9HllDF4-127">
          <mxCell style="html=1;overflow=block;blockSpacing=1;whiteSpace=wrap;fontSize=20;fontColor=#ffffff;fontStyle=1;spacingLeft=8.4;spacingRight=8.4;spacingTop=2.4;spacing=3.6;verticalAlign=top;strokeOpacity=0;fillOpacity=100;rounded=1;absoluteArcSize=1;arcSize=12;fillColor=#8b90ff;strokeWidth=0.8;" parent="1" vertex="1">
            <mxGeometry x="1230" y="965" width="929" height="164" as="geometry" />
          </mxCell>
        </UserObject>
        <UserObject label="&lt;div&gt;JOBMANAGER&lt;/div&gt;&lt;div&gt;&lt;font style=&quot;font-size: 14px;&quot;&gt;Standby&lt;/font&gt;&lt;/div&gt;" lucidchartObjectId="HypInYoTSrlu" id="_xkS5jxFh-QeE9HllDF4-128">
          <mxCell style="html=1;overflow=block;blockSpacing=1;whiteSpace=wrap;fontSize=18.3;fontColor=#ffffff;align=center;spacingLeft=8.4;spacingRight=8.4;spacingTop=2.4;spacing=3.6;strokeOpacity=0;fillOpacity=100;rounded=1;absoluteArcSize=1;arcSize=12;fillColor=#636aff;strokeWidth=0.8;" parent="1" vertex="1">
            <mxGeometry x="1256" y="1009" width="184" height="48" as="geometry" />
          </mxCell>
        </UserObject>
        <UserObject label="TASKMANAGER" lucidchartObjectId="HypIgOagNPgA" id="_xkS5jxFh-QeE9HllDF4-129">
          <mxCell style="html=1;overflow=block;blockSpacing=1;whiteSpace=wrap;fontSize=18.3;fontColor=#ffffff;align=center;spacingLeft=8.4;spacingRight=8.4;spacingTop=2.4;spacing=3.6;strokeOpacity=0;fillOpacity=100;rounded=1;absoluteArcSize=1;arcSize=12;fillColor=#636aff;strokeWidth=0.8;" parent="1" vertex="1">
            <mxGeometry x="1256" y="1073" width="184" height="48" as="geometry" />
          </mxCell>
        </UserObject>
        <UserObject label="&lt;div&gt;JOBMANAGER&lt;/div&gt;&lt;div&gt;&lt;font style=&quot;font-size: 14px;&quot;&gt;Standby&lt;/font&gt;&lt;/div&gt;" lucidchartObjectId="RXpI0It2jUcH" id="_xkS5jxFh-QeE9HllDF4-130">
          <mxCell style="html=1;overflow=block;blockSpacing=1;whiteSpace=wrap;fontSize=18.3;fontColor=#ffffff;align=center;spacingLeft=8.4;spacingRight=8.4;spacingTop=2.4;spacing=3.6;strokeOpacity=0;fillOpacity=100;rounded=1;absoluteArcSize=1;arcSize=12;fillColor=#636aff;strokeWidth=0.8;" parent="1" vertex="1">
            <mxGeometry x="1487" y="1009" width="184" height="48" as="geometry" />
          </mxCell>
        </UserObject>
        <UserObject label="TASKMANAGER" lucidchartObjectId="RXpIgnX.f~PW" id="_xkS5jxFh-QeE9HllDF4-131">
          <mxCell style="html=1;overflow=block;blockSpacing=1;whiteSpace=wrap;fontSize=18.3;fontColor=#ffffff;align=center;spacingLeft=8.4;spacingRight=8.4;spacingTop=2.4;spacing=3.6;strokeOpacity=0;fillOpacity=100;rounded=1;absoluteArcSize=1;arcSize=12;fillColor=#636aff;strokeWidth=0.8;" parent="1" vertex="1">
            <mxGeometry x="1487" y="1073" width="184" height="48" as="geometry" />
          </mxCell>
        </UserObject>
        <UserObject label="JOBMANAGER&lt;font color=&quot;#33ff33&quot; style=&quot;font-size: 14px;&quot;&gt;&lt;b&gt;&lt;br&gt;Leader&lt;/b&gt;&lt;/font&gt;" lucidchartObjectId="1XpI324HXPmj" id="_xkS5jxFh-QeE9HllDF4-132">
          <mxCell style="html=1;overflow=block;blockSpacing=1;whiteSpace=wrap;fontSize=18.3;fontColor=#ffffff;align=center;spacingLeft=8.4;spacingRight=8.4;spacingTop=2.4;spacing=3.6;strokeOpacity=0;fillOpacity=100;rounded=1;absoluteArcSize=1;arcSize=12;fillColor=#636aff;strokeWidth=0.8;" parent="1" vertex="1">
            <mxGeometry x="1721" y="1009" width="184" height="48" as="geometry" />
          </mxCell>
        </UserObject>
        <UserObject label="TASKMANAGER" lucidchartObjectId="1XpItajlC~17" id="_xkS5jxFh-QeE9HllDF4-133">
          <mxCell style="html=1;overflow=block;blockSpacing=1;whiteSpace=wrap;fontSize=18.3;fontColor=#ffffff;align=center;spacingLeft=8.4;spacingRight=8.4;spacingTop=2.4;spacing=3.6;strokeOpacity=0;fillOpacity=100;rounded=1;absoluteArcSize=1;arcSize=12;fillColor=#636aff;strokeWidth=0.8;" parent="1" vertex="1">
            <mxGeometry x="1721" y="1073" width="184" height="48" as="geometry" />
          </mxCell>
        </UserObject>
        <UserObject label="HISTORYSERVER" lucidchartObjectId="8XpIVe4FQzVd" id="_xkS5jxFh-QeE9HllDF4-134">
          <mxCell style="html=1;overflow=block;blockSpacing=1;whiteSpace=wrap;fontSize=18.3;fontColor=#ffffff;align=center;spacingLeft=8.4;spacingRight=8.4;spacingTop=2.4;spacing=3.6;strokeOpacity=0;fillOpacity=100;rounded=1;absoluteArcSize=1;arcSize=12;fillColor=#636aff;strokeWidth=0.8;" parent="1" vertex="1">
            <mxGeometry x="1950" y="1009" width="184" height="48" as="geometry" />
          </mxCell>
        </UserObject>
        <UserObject label="TASKMANAGER" lucidchartObjectId="8XpI6pTr3cQC" id="_xkS5jxFh-QeE9HllDF4-135">
          <mxCell style="html=1;overflow=block;blockSpacing=1;whiteSpace=wrap;fontSize=18.3;fontColor=#ffffff;align=center;spacingLeft=8.4;spacingRight=8.4;spacingTop=2.4;spacing=3.6;strokeOpacity=0;fillOpacity=100;rounded=1;absoluteArcSize=1;arcSize=12;fillColor=#636aff;strokeWidth=0.8;" parent="1" vertex="1">
            <mxGeometry x="1950" y="1073" width="184" height="48" as="geometry" />
          </mxCell>
        </UserObject>
        <mxCell id="_xkS5jxFh-QeE9HllDF4-136" style="edgeStyle=none;rounded=1;jumpStyle=none;orthogonalLoop=1;jettySize=auto;html=1;exitX=0.75;exitY=1;exitDx=0;exitDy=0;startArrow=oval;startFill=1;endArrow=oval;endFill=1;strokeColor=#82b366;strokeWidth=2;fillColor=#d5e8d4;" parent="1" edge="1">
          <mxGeometry relative="1" as="geometry">
            <mxPoint x="1828.5" y="880" as="sourcePoint" />
            <mxPoint x="1828.5" y="836" as="targetPoint" />
          </mxGeometry>
        </mxCell>
        <mxCell id="_xkS5jxFh-QeE9HllDF4-137" style="edgeStyle=none;rounded=1;jumpStyle=none;orthogonalLoop=1;jettySize=auto;html=1;exitX=0.75;exitY=1;exitDx=0;exitDy=0;startArrow=oval;startFill=1;endArrow=oval;endFill=1;strokeColor=#82b366;strokeWidth=2;fillColor=#d5e8d4;" parent="1" edge="1">
          <mxGeometry relative="1" as="geometry">
            <mxPoint x="1616.5" y="880" as="sourcePoint" />
            <mxPoint x="1616.5" y="836" as="targetPoint" />
          </mxGeometry>
        </mxCell>
        <mxCell id="_xkS5jxFh-QeE9HllDF4-138" style="edgeStyle=none;rounded=1;jumpStyle=none;orthogonalLoop=1;jettySize=auto;html=1;exitX=0.75;exitY=1;exitDx=0;exitDy=0;startArrow=oval;startFill=1;endArrow=oval;endFill=1;strokeColor=#82b366;strokeWidth=2;fillColor=#d5e8d4;" parent="1" edge="1">
          <mxGeometry relative="1" as="geometry">
            <mxPoint x="1418.5" y="880" as="sourcePoint" />
            <mxPoint x="1418.5" y="836" as="targetPoint" />
          </mxGeometry>
        </mxCell>
        <UserObject label="NGINX + nginx-ldap-auth" lucidchartObjectId="HypIE5tfspSB" id="_xkS5jxFh-QeE9HllDF4-139">
          <mxCell style="html=1;overflow=block;blockSpacing=1;whiteSpace=wrap;fontSize=18.3;fontColor=#333333;align=center;spacingLeft=8.4;spacingRight=8.4;spacingTop=2.4;spacing=3.6;verticalAlign=middle;strokeOpacity=0;fillOpacity=100;rounded=1;absoluteArcSize=1;arcSize=12;fillColor=#CACBE8;strokeWidth=0.8;" parent="1" vertex="1">
            <mxGeometry x="1255.5" y="907" width="184" height="51" as="geometry" />
          </mxCell>
        </UserObject>
        <UserObject label="NGINX + nginx-ldap-auth" lucidchartObjectId="RXpI~8YFsiHd" id="_xkS5jxFh-QeE9HllDF4-140">
          <mxCell style="html=1;overflow=block;blockSpacing=1;whiteSpace=wrap;fontSize=18.3;fontColor=#333333;align=center;spacingLeft=8.4;spacingRight=8.4;spacingTop=2.4;spacing=3.6;verticalAlign=middle;strokeOpacity=0;fillOpacity=100;rounded=1;absoluteArcSize=1;arcSize=12;fillColor=#CACBE8;strokeWidth=0.8;" parent="1" vertex="1">
            <mxGeometry x="1486.5" y="907" width="184" height="51" as="geometry" />
          </mxCell>
        </UserObject>
        <UserObject label="NGINX + nginx-ldap-auth" lucidchartObjectId="1XpIAn_rVOTK" id="_xkS5jxFh-QeE9HllDF4-141">
          <mxCell style="html=1;overflow=block;blockSpacing=1;whiteSpace=wrap;fontSize=18.3;fontColor=#333333;align=center;spacingLeft=8.4;spacingRight=8.4;spacingTop=2.4;spacing=3.6;verticalAlign=middle;strokeOpacity=0;fillOpacity=100;rounded=1;absoluteArcSize=1;arcSize=12;fillColor=#CACBE8;strokeWidth=0.8;" parent="1" vertex="1">
            <mxGeometry x="1720.5" y="907" width="184" height="51" as="geometry" />
          </mxCell>
        </UserObject>
        <UserObject label="NGINX + nginx-ldap-auth" lucidchartObjectId="8XpIHrtV3hBn" id="_xkS5jxFh-QeE9HllDF4-142">
          <mxCell style="html=1;overflow=block;blockSpacing=1;whiteSpace=wrap;fontSize=18.3;fontColor=#333333;align=center;spacingLeft=8.4;spacingRight=8.4;spacingTop=2.4;spacing=3.6;verticalAlign=middle;strokeOpacity=0;fillOpacity=100;rounded=1;absoluteArcSize=1;arcSize=12;fillColor=#CACBE8;strokeWidth=0.8;strokeColor=#CACBE8;" parent="1" vertex="1">
            <mxGeometry x="1949.5" y="907" width="184" height="51" as="geometry" />
          </mxCell>
        </UserObject>
        <mxCell id="_xkS5jxFh-QeE9HllDF4-143" style="edgeStyle=none;rounded=1;jumpStyle=none;orthogonalLoop=1;jettySize=auto;html=1;startArrow=oval;startFill=1;endArrow=oval;endFill=1;strokeColor=#CACBE8;strokeWidth=2;entryX=0.183;entryY=0.994;entryDx=0;entryDy=0;entryPerimeter=0;exitX=0.187;exitY=-0.014;exitDx=0;exitDy=0;exitPerimeter=0;" parent="1" edge="1">
          <mxGeometry relative="1" as="geometry">
            <mxPoint x="1518" y="956" as="targetPoint" />
            <mxPoint x="1518" y="1008" as="sourcePoint" />
          </mxGeometry>
        </mxCell>
        <mxCell id="_xkS5jxFh-QeE9HllDF4-144" style="edgeStyle=none;rounded=1;jumpStyle=none;orthogonalLoop=1;jettySize=auto;html=1;exitX=0.75;exitY=0;exitDx=0;exitDy=0;startArrow=oval;startFill=1;endArrow=oval;endFill=1;strokeColor=#CACBE8;strokeWidth=2;entryX=0.75;entryY=1;entryDx=0;entryDy=0;" parent="1" edge="1">
          <mxGeometry relative="1" as="geometry">
            <mxPoint x="1391" y="956" as="targetPoint" />
            <mxPoint x="1391" y="1009" as="sourcePoint" />
          </mxGeometry>
        </mxCell>
        <mxCell id="_xkS5jxFh-QeE9HllDF4-145" style="edgeStyle=none;rounded=1;jumpStyle=none;orthogonalLoop=1;jettySize=auto;html=1;exitX=0.75;exitY=0;exitDx=0;exitDy=0;startArrow=oval;startFill=1;endArrow=oval;endFill=1;strokeColor=#CACBE8;strokeWidth=2;entryX=0.75;entryY=1;entryDx=0;entryDy=0;" parent="1" edge="1">
          <mxGeometry relative="1" as="geometry">
            <mxPoint x="2085" y="956" as="targetPoint" />
            <mxPoint x="2085" y="1009" as="sourcePoint" />
          </mxGeometry>
        </mxCell>
        <mxCell id="_xkS5jxFh-QeE9HllDF4-146" style="edgeStyle=none;rounded=1;jumpStyle=none;orthogonalLoop=1;jettySize=auto;html=1;startArrow=oval;startFill=1;endArrow=oval;endFill=1;strokeColor=#CACBE8;strokeWidth=2;exitX=0.812;exitY=0.994;exitDx=0;exitDy=0;exitPerimeter=0;entryX=0.815;entryY=-0.014;entryDx=0;entryDy=0;entryPerimeter=0;" parent="1" edge="1">
          <mxGeometry relative="1" as="geometry">
            <mxPoint x="1868" y="1008" as="targetPoint" />
            <mxPoint x="1867" y="956" as="sourcePoint" />
          </mxGeometry>
        </mxCell>
        <mxCell id="_xkS5jxFh-QeE9HllDF4-147" value="" style="endArrow=none;dashed=1;html=1;dashPattern=1 3;strokeWidth=6;rounded=0;entryX=0.818;entryY=0.058;entryDx=0;entryDy=0;entryPerimeter=0;strokeColor=#727272;exitX=0.252;exitY=0.066;exitDx=0;exitDy=0;exitPerimeter=0;" parent="1" edge="1">
          <mxGeometry width="50" height="50" relative="1" as="geometry">
            <mxPoint x="1513.924" y="897.1599999999999" as="sourcePoint" />
            <mxPoint x="1400.916" y="897.0799999999999" as="targetPoint" />
          </mxGeometry>
        </mxCell>
        <mxCell id="_xkS5jxFh-QeE9HllDF4-148" value="" style="endArrow=none;dashed=1;html=1;dashPattern=1 3;strokeWidth=6;rounded=0;entryX=0.818;entryY=0.058;entryDx=0;entryDy=0;entryPerimeter=0;strokeColor=#727272;exitX=0.252;exitY=0.066;exitDx=0;exitDy=0;exitPerimeter=0;" parent="1" edge="1">
          <mxGeometry width="50" height="50" relative="1" as="geometry">
            <mxPoint x="1977.924" y="898.1599999999999" as="sourcePoint" />
            <mxPoint x="1864.916" y="898.0799999999999" as="targetPoint" />
          </mxGeometry>
        </mxCell>
        <mxCell id="_xkS5jxFh-QeE9HllDF4-149" style="edgeStyle=none;rounded=0;jumpStyle=none;orthogonalLoop=1;jettySize=auto;html=1;exitX=1;exitY=0.5;exitDx=0;exitDy=0;entryX=0;entryY=0.5;entryDx=0;entryDy=0;startArrow=none;startFill=0;endArrow=classic;endFill=0;strokeColor=#7EA6E0;strokeWidth=2;" parent="1" source="_xkS5jxFh-QeE9HllDF4-128" target="_xkS5jxFh-QeE9HllDF4-130" edge="1">
          <mxGeometry relative="1" as="geometry">
            <mxPoint x="1447" y="1038" as="sourcePoint" />
            <mxPoint x="1494" y="1038" as="targetPoint" />
          </mxGeometry>
        </mxCell>
        <mxCell id="_xkS5jxFh-QeE9HllDF4-150" style="edgeStyle=none;rounded=0;jumpStyle=none;orthogonalLoop=1;jettySize=auto;html=1;exitX=1;exitY=0.5;exitDx=0;exitDy=0;entryX=0;entryY=0.5;entryDx=0;entryDy=0;startArrow=none;startFill=0;endArrow=classic;endFill=0;strokeColor=#7EA6E0;strokeWidth=2;" parent="1" source="_xkS5jxFh-QeE9HllDF4-130" target="_xkS5jxFh-QeE9HllDF4-132" edge="1">
          <mxGeometry relative="1" as="geometry">
            <mxPoint x="1672" y="1028" as="sourcePoint" />
            <mxPoint x="1719" y="1028" as="targetPoint" />
          </mxGeometry>
        </mxCell>
        <mxCell id="_xkS5jxFh-QeE9HllDF4-82" value="" style="endArrow=none;html=1;rounded=0;entryX=1.005;entryY=0.341;entryDx=0;entryDy=0;entryPerimeter=0;exitX=0;exitY=0.5;exitDx=0;exitDy=0;strokeColor=#FF0000;strokeWidth=7;" parent="1" edge="1">
          <mxGeometry width="50" height="50" relative="1" as="geometry">
            <mxPoint x="1818.5" y="683.5" as="sourcePoint" />
            <mxPoint x="2031.5" y="726.5" as="targetPoint" />
          </mxGeometry>
        </mxCell>
        <mxCell id="_xkS5jxFh-QeE9HllDF4-152" value="" style="endArrow=none;html=1;rounded=0;exitX=0;exitY=0.5;exitDx=0;exitDy=0;strokeColor=#FF0000;strokeWidth=7;" parent="1" edge="1">
          <mxGeometry width="50" height="50" relative="1" as="geometry">
            <mxPoint x="1818.5" y="683.5" as="sourcePoint" />
            <mxPoint x="2140" y="750" as="targetPoint" />
          </mxGeometry>
        </mxCell>
        <mxCell id="_xkS5jxFh-QeE9HllDF4-153" value="" style="endArrow=none;html=1;rounded=0;strokeColor=#FF0000;strokeWidth=7;" parent="1" edge="1">
          <mxGeometry width="50" height="50" relative="1" as="geometry">
            <mxPoint x="1710" y="660" as="sourcePoint" />
            <mxPoint x="2140" y="750" as="targetPoint" />
          </mxGeometry>
        </mxCell>
        <mxCell id="_xkS5jxFh-QeE9HllDF4-157" value="" style="endArrow=none;html=1;rounded=0;exitX=0;exitY=0.5;exitDx=0;exitDy=0;strokeColor=#FF0000;strokeWidth=7;" parent="1" edge="1">
          <mxGeometry width="50" height="50" relative="1" as="geometry">
            <mxPoint x="1818.5" y="726.5" as="sourcePoint" />
            <mxPoint x="2140" y="670" as="targetPoint" />
          </mxGeometry>
        </mxCell>
        <mxCell id="_xkS5jxFh-QeE9HllDF4-158" value="" style="endArrow=none;html=1;rounded=0;strokeColor=#FF0000;strokeWidth=7;" parent="1" edge="1">
          <mxGeometry width="50" height="50" relative="1" as="geometry">
            <mxPoint x="1710" y="750" as="sourcePoint" />
            <mxPoint x="2140" y="670" as="targetPoint" />
          </mxGeometry>
        </mxCell>
        <mxCell id="_xkS5jxFh-QeE9HllDF4-83" value="&lt;font color=&quot;#ffffff&quot; style=&quot;font-size: 18px;&quot;&gt;&lt;span style=&quot;background-color: rgb(255, 0, 0);&quot;&gt;! ПОЛНЫЙ СБОЙ ПЛОЩАДКИ ! &lt;br&gt;&lt;/span&gt;&lt;/font&gt;" style="rounded=0;whiteSpace=wrap;html=1;fillColor=#FF0000;strokeColor=none;" parent="1" vertex="1">
          <mxGeometry x="1779.5" y="691.5" width="290.5" height="28.5" as="geometry" />
        </mxCell>
        <mxCell id="_xkS5jxFh-QeE9HllDF4-159" value="&lt;font style=&quot;font-size: 10px;&quot; color=&quot;#008000&quot;&gt;Тенант p0-uasp&lt;br&gt;&lt;/font&gt;" style="text;html=1;align=center;verticalAlign=middle;whiteSpace=wrap;rounded=0;fontSize=8;fontColor=#3399FF;fontStyle=1" parent="1" vertex="1">
          <mxGeometry x="940" y="580" width="79" height="31" as="geometry" />
        </mxCell>
        <mxCell id="_xkS5jxFh-QeE9HllDF4-160" value="&lt;font color=&quot;#008000&quot;&gt;Тенант p0-uasp-spm&lt;/font&gt;" style="text;html=1;align=center;verticalAlign=middle;whiteSpace=wrap;rounded=0;fontSize=8;fontColor=#3399FF;fontStyle=1" parent="1" vertex="1">
          <mxGeometry x="940" y="790" width="79" height="31" as="geometry" />
        </mxCell>
        <mxCell id="_xkS5jxFh-QeE9HllDF4-161" value="&lt;font style=&quot;font-size: 10px;&quot; color=&quot;#008000&quot;&gt;Тенант p0-uasp&lt;br&gt;&lt;/font&gt;" style="text;html=1;align=center;verticalAlign=middle;whiteSpace=wrap;rounded=0;fontSize=8;fontColor=#3399FF;fontStyle=1" parent="1" vertex="1">
          <mxGeometry x="1290" y="580" width="79" height="31" as="geometry" />
        </mxCell>
        <mxCell id="_xkS5jxFh-QeE9HllDF4-162" value="&lt;font color=&quot;#008000&quot;&gt;Тенант p0-uasp-spm&lt;/font&gt;" style="text;html=1;align=center;verticalAlign=middle;whiteSpace=wrap;rounded=0;fontSize=8;fontColor=#3399FF;fontStyle=1" parent="1" vertex="1">
          <mxGeometry x="1290" y="790" width="79" height="31" as="geometry" />
        </mxCell>
        <mxCell id="JOTjsFw0k6sc1S5XeHR1-3" value="" style="edgeStyle=orthogonalEdgeStyle;rounded=0;orthogonalLoop=1;jettySize=auto;html=1;" parent="1" source="JOTjsFw0k6sc1S5XeHR1-1" target="yILMz_F42p3W7vGwvf6j-29" edge="1">
          <mxGeometry relative="1" as="geometry" />
        </mxCell>
        <mxCell id="JOTjsFw0k6sc1S5XeHR1-4" value="" style="edgeStyle=orthogonalEdgeStyle;rounded=0;orthogonalLoop=1;jettySize=auto;html=1;" parent="1" source="JOTjsFw0k6sc1S5XeHR1-1" target="_xkS5jxFh-QeE9HllDF4-121" edge="1">
          <mxGeometry relative="1" as="geometry" />
        </mxCell>
        <UserObject label="proxy-endpoint с переключением" lucidchartObjectId="8XpIHrtV3hBn" id="JOTjsFw0k6sc1S5XeHR1-1">
          <mxCell style="html=1;overflow=block;blockSpacing=1;whiteSpace=wrap;fontSize=18.3;fontColor=#333333;align=center;spacingLeft=8.4;spacingRight=8.4;spacingTop=2.4;spacing=3.6;verticalAlign=middle;strokeOpacity=0;fillOpacity=100;rounded=1;absoluteArcSize=1;arcSize=12;fillColor=#CACBE8;strokeWidth=0.8;strokeColor=#CACBE8;" parent="1" vertex="1">
            <mxGeometry x="1060" y="697.25" width="181.5" height="51" as="geometry" />
          </mxCell>
        </UserObject>
        <mxCell id="JOTjsFw0k6sc1S5XeHR1-6" style="edgeStyle=none;rounded=1;jumpStyle=none;orthogonalLoop=1;jettySize=auto;html=1;entryX=0.25;entryY=0;entryDx=0;entryDy=0;startArrow=oval;startFill=1;endArrow=oval;endFill=1;strokeColor=#82b366;strokeWidth=2;fillColor=#d5e8d4;" parent="1" target="JOTjsFw0k6sc1S5XeHR1-1" edge="1">
          <mxGeometry relative="1" as="geometry">
            <Array as="points">
              <mxPoint x="293" y="572" />
              <mxPoint x="1105" y="572" />
            </Array>
            <mxPoint x="293" y="528" as="sourcePoint" />
            <mxPoint x="1105" y="697" as="targetPoint" />
          </mxGeometry>
        </mxCell>
        <mxCell id="_xkS5jxFh-QeE9HllDF4-119" style="edgeStyle=none;rounded=1;jumpStyle=none;orthogonalLoop=1;jettySize=auto;html=1;entryX=0.75;entryY=0;entryDx=0;entryDy=0;startArrow=oval;startFill=1;endArrow=oval;endFill=1;strokeColor=#82b366;strokeWidth=2;fillColor=#d5e8d4;" parent="1" target="JOTjsFw0k6sc1S5XeHR1-1" edge="1">
          <mxGeometry relative="1" as="geometry">
            <Array as="points">
              <mxPoint x="2010.12" y="572" />
              <mxPoint x="1196" y="572" />
            </Array>
            <mxPoint x="2010.12" y="528" as="sourcePoint" />
            <mxPoint x="1373.12" y="628.9499999999998" as="targetPoint" />
          </mxGeometry>
        </mxCell>
        <mxCell id="_xkS5jxFh-QeE9HllDF4-79" style="edgeStyle=none;rounded=1;jumpStyle=none;orthogonalLoop=1;jettySize=auto;html=1;startArrow=oval;startFill=1;endArrow=oval;endFill=1;strokeColor=#82b366;strokeWidth=2;fillColor=#d5e8d4;entryX=0.25;entryY=1;entryDx=0;entryDy=0;" parent="1" target="JOTjsFw0k6sc1S5XeHR1-1" edge="1">
          <mxGeometry relative="1" as="geometry">
            <Array as="points">
              <mxPoint x="293" y="836" />
              <mxPoint x="1105" y="836" />
            </Array>
            <mxPoint x="293" y="880" as="sourcePoint" />
            <mxPoint x="930" y="780" as="targetPoint" />
          </mxGeometry>
        </mxCell>
        <mxCell id="_xkS5jxFh-QeE9HllDF4-151" style="edgeStyle=none;rounded=1;jumpStyle=none;orthogonalLoop=1;jettySize=auto;html=1;startArrow=oval;startFill=1;endArrow=oval;endFill=1;strokeColor=#82b366;strokeWidth=2;fillColor=#d5e8d4;entryX=0.75;entryY=1;entryDx=0;entryDy=0;" parent="1" target="JOTjsFw0k6sc1S5XeHR1-1" edge="1">
          <mxGeometry relative="1" as="geometry">
            <Array as="points">
              <mxPoint x="2010" y="836" />
              <mxPoint x="1196" y="836" />
            </Array>
            <mxPoint x="2010" y="880" as="sourcePoint" />
            <mxPoint x="1373" y="780" as="targetPoint" />
          </mxGeometry>
        </mxCell>
        <mxCell id="JOTjsFw0k6sc1S5XeHR1-11" value="ДО" style="text;strokeColor=#B20000;fillColor=#e51400;html=1;fontSize=15;fontStyle=1;verticalAlign=middle;align=center;fontColor=#ffffff;" parent="1" vertex="1">
          <mxGeometry x="1050" y="210" width="80" height="40" as="geometry" />
        </mxCell>
        <mxCell id="JOTjsFw0k6sc1S5XeHR1-12" value="ПОСЛЕ" style="text;strokeColor=#B20000;fillColor=#e51400;html=1;fontSize=15;fontStyle=1;verticalAlign=middle;align=center;fontColor=#ffffff;" parent="1" vertex="1">
          <mxGeometry x="1169" y="210" width="80" height="40" as="geometry" />
        </mxCell>
        <mxCell id="JOTjsFw0k6sc1S5XeHR1-15" value="" style="endArrow=none;dashed=1;html=1;strokeWidth=4;rounded=0;fillColor=#e51400;strokeColor=#B20000;curved=0;" parent="1" edge="1">
          <mxGeometry width="50" height="50" relative="1" as="geometry">
            <mxPoint x="1151" y="112" as="sourcePoint" />
            <mxPoint x="1151.9790575916231" y="-823" as="targetPoint" />
          </mxGeometry>
        </mxCell>
        <mxCell id="JOTjsFw0k6sc1S5XeHR1-16" value="" style="endArrow=none;dashed=1;html=1;dashPattern=1 3;strokeWidth=2;rounded=0;" parent="1" edge="1">
          <mxGeometry width="50" height="50" relative="1" as="geometry">
            <mxPoint x="597" y="102" as="sourcePoint" />
            <mxPoint x="598" y="-853" as="targetPoint" />
          </mxGeometry>
        </mxCell>
        <UserObject label="Server 1" lucidchartObjectId="HypIMii0T2fg" id="JOTjsFw0k6sc1S5XeHR1-17">
          <mxCell style="html=1;overflow=block;blockSpacing=1;whiteSpace=wrap;fontSize=18.3;fontColor=#333333;fontStyle=1;spacingLeft=8.4;spacingRight=8.4;spacingTop=2.4;spacing=3.6;verticalAlign=top;strokeOpacity=0;fillOpacity=100;rounded=1;absoluteArcSize=1;arcSize=12;fillColor=#ffdda6;strokeWidth=0.8;" parent="1" vertex="1">
            <mxGeometry x="144.5" y="-798" width="212" height="256" as="geometry" />
          </mxCell>
        </UserObject>
        <UserObject label="Server N" lucidchartObjectId="kbqIFTrSSb0c" id="JOTjsFw0k6sc1S5XeHR1-18">
          <mxCell style="html=1;overflow=block;blockSpacing=1;whiteSpace=wrap;fontSize=18.3;fontColor=#333333;fontStyle=1;spacingLeft=8.4;spacingRight=8.4;spacingTop=2.4;spacing=3.6;verticalAlign=top;strokeOpacity=0;fillOpacity=100;rounded=1;absoluteArcSize=1;arcSize=12;fillColor=#ffdda6;strokeWidth=0.8;" parent="1" vertex="1">
            <mxGeometry x="374.5" y="-798" width="212" height="256" as="geometry" />
          </mxCell>
        </UserObject>
        <UserObject label="Server 1" lucidchartObjectId="kgqIT20~Yh46" id="JOTjsFw0k6sc1S5XeHR1-19">
          <mxCell style="html=1;overflow=block;blockSpacing=1;whiteSpace=wrap;fontSize=18.3;fontColor=#333333;fontStyle=1;spacingLeft=8.4;spacingRight=8.4;spacingTop=2.4;spacing=3.6;verticalAlign=top;strokeOpacity=0;fillOpacity=100;rounded=1;absoluteArcSize=1;arcSize=12;fillColor=#ffdda6;strokeWidth=0.8;" parent="1" vertex="1">
            <mxGeometry x="608.5" y="-798" width="212" height="256" as="geometry" />
          </mxCell>
        </UserObject>
        <UserObject label="Server N" lucidchartObjectId="NgqIsRjEYktH" id="JOTjsFw0k6sc1S5XeHR1-20">
          <mxCell style="html=1;overflow=block;blockSpacing=1;whiteSpace=wrap;fontSize=18.3;fontColor=#333333;fontStyle=1;spacingLeft=8.4;spacingRight=8.4;spacingTop=2.4;spacing=3.6;verticalAlign=top;strokeOpacity=0;fillOpacity=100;rounded=1;absoluteArcSize=1;arcSize=12;fillColor=#ffdda6;strokeWidth=0.8;" parent="1" vertex="1">
            <mxGeometry x="838.5" y="-798" width="212" height="256" as="geometry" />
          </mxCell>
        </UserObject>
        <UserObject label="&lt;div&gt;Объектное хранилище Ceph без георезервирования&lt;br&gt;&lt;/div&gt;&lt;div&gt;&lt;br&gt;&lt;/div&gt;&lt;div&gt;&lt;br&gt;&lt;/div&gt;&lt;div style=&quot;font-size: 16px;&quot;&gt;&lt;br&gt;&lt;/div&gt;&lt;div&gt;&lt;font style=&quot;font-size: 9px;&quot;&gt;&lt;i&gt;2 бакета на 1 кластер Flink&lt;/i&gt;&lt;/font&gt;&lt;/div&gt;" lucidchartObjectId="_KpIE2-JrPc8" id="JOTjsFw0k6sc1S5XeHR1-22">
          <mxCell style="html=1;overflow=block;blockSpacing=1;whiteSpace=wrap;fontSize=20;fontStyle=1;align=center;spacing=9;verticalAlign=top;strokeOpacity=0;fillOpacity=100;rounded=1;absoluteArcSize=1;arcSize=12;fillColor=#d5e8d4;strokeWidth=0.8;strokeColor=#82b366;" parent="1" vertex="1">
            <mxGeometry x="648" y="-438" width="360" height="150" as="geometry" />
          </mxCell>
        </UserObject>
        <UserObject label="Площадка для часто обновляемых HA-метаданных и&amp;nbsp;инкрементных / полных снэпшотов кластера Flink " lucidchartObjectId="fSpIcaWIN3Va" id="JOTjsFw0k6sc1S5XeHR1-23">
          <mxCell style="html=1;overflow=block;blockSpacing=1;whiteSpace=wrap;fontSize=16.7;fontColor=#333333;align=left;spacing=9;verticalAlign=top;strokeOpacity=100;fillOpacity=100;rounded=1;absoluteArcSize=1;arcSize=12;fillColor=#ffffff;strokeWidth=0.8;" parent="1" vertex="1">
            <mxGeometry x="663" y="-380" width="330" height="72" as="geometry" />
          </mxCell>
        </UserObject>
        <UserObject label="&lt;div style=&quot;line-height: 0.9;&quot;&gt;Кластер Apache Flink&lt;br&gt;&lt;/div&gt;&lt;div&gt;&lt;sup&gt;&lt;font style=&quot;font-size: 10px;&quot;&gt;УАСП&lt;/font&gt;&lt;/sup&gt;&lt;br&gt;&lt;/div&gt;" lucidchartObjectId="WnqImOF1_m_N" id="JOTjsFw0k6sc1S5XeHR1-24">
          <mxCell style="html=1;overflow=block;blockSpacing=1;whiteSpace=wrap;fontSize=20;fontColor=#ffffff;fontStyle=1;spacingLeft=8.4;spacingRight=8.4;spacingTop=2.4;spacing=3.6;verticalAlign=top;strokeOpacity=0;fillOpacity=100;rounded=1;absoluteArcSize=1;arcSize=12;fillColor=#8b90ff;strokeWidth=0.8;" parent="1" vertex="1">
            <mxGeometry x="133" y="-713" width="929" height="164" as="geometry" />
          </mxCell>
        </UserObject>
        <UserObject label="&lt;div&gt;JOBMANAGER&lt;/div&gt;&lt;div&gt;&lt;font color=&quot;#33ff33&quot; style=&quot;font-size: 14px;&quot;&gt;&lt;b&gt;Leader&lt;/b&gt;&lt;/font&gt;&lt;/div&gt;" lucidchartObjectId="HypInYoTSrlu" id="JOTjsFw0k6sc1S5XeHR1-25">
          <mxCell style="html=1;overflow=block;blockSpacing=1;whiteSpace=wrap;fontSize=18.3;fontColor=#ffffff;align=center;spacingLeft=8.4;spacingRight=8.4;spacingTop=2.4;spacing=3.6;strokeOpacity=0;fillOpacity=100;rounded=1;absoluteArcSize=1;arcSize=12;fillColor=#636aff;strokeWidth=0.8;" parent="1" vertex="1">
            <mxGeometry x="159" y="-669" width="184" height="48" as="geometry" />
          </mxCell>
        </UserObject>
        <UserObject label="TASKMANAGER" lucidchartObjectId="HypIgOagNPgA" id="JOTjsFw0k6sc1S5XeHR1-26">
          <mxCell style="html=1;overflow=block;blockSpacing=1;whiteSpace=wrap;fontSize=18.3;fontColor=#ffffff;align=center;spacingLeft=8.4;spacingRight=8.4;spacingTop=2.4;spacing=3.6;strokeOpacity=0;fillOpacity=100;rounded=1;absoluteArcSize=1;arcSize=12;fillColor=#636aff;strokeWidth=0.8;" parent="1" vertex="1">
            <mxGeometry x="159" y="-605" width="184" height="48" as="geometry" />
          </mxCell>
        </UserObject>
        <UserObject label="JOBMANAGER&lt;br&gt;&lt;font style=&quot;font-size: 14px;&quot;&gt;Standby&lt;/font&gt;" lucidchartObjectId="RXpI0It2jUcH" id="JOTjsFw0k6sc1S5XeHR1-27">
          <mxCell style="html=1;overflow=block;blockSpacing=1;whiteSpace=wrap;fontSize=18.3;fontColor=#ffffff;align=center;spacingLeft=8.4;spacingRight=8.4;spacingTop=2.4;spacing=3.6;strokeOpacity=0;fillOpacity=100;rounded=1;absoluteArcSize=1;arcSize=12;fillColor=#636aff;strokeWidth=0.8;" parent="1" vertex="1">
            <mxGeometry x="390" y="-669" width="184" height="48" as="geometry" />
          </mxCell>
        </UserObject>
        <UserObject label="TASKMANAGER" lucidchartObjectId="RXpIgnX.f~PW" id="JOTjsFw0k6sc1S5XeHR1-28">
          <mxCell style="html=1;overflow=block;blockSpacing=1;whiteSpace=wrap;fontSize=18.3;fontColor=#ffffff;align=center;spacingLeft=8.4;spacingRight=8.4;spacingTop=2.4;spacing=3.6;strokeOpacity=0;fillOpacity=100;rounded=1;absoluteArcSize=1;arcSize=12;fillColor=#636aff;strokeWidth=0.8;" parent="1" vertex="1">
            <mxGeometry x="390" y="-605" width="184" height="48" as="geometry" />
          </mxCell>
        </UserObject>
        <UserObject label="JOBMANAGER&lt;br&gt;&lt;font style=&quot;font-size: 14px;&quot;&gt;Standby&lt;/font&gt;" lucidchartObjectId="1XpI324HXPmj" id="JOTjsFw0k6sc1S5XeHR1-29">
          <mxCell style="html=1;overflow=block;blockSpacing=1;whiteSpace=wrap;fontSize=18.3;fontColor=#ffffff;align=center;spacingLeft=8.4;spacingRight=8.4;spacingTop=2.4;spacing=3.6;strokeOpacity=0;fillOpacity=100;rounded=1;absoluteArcSize=1;arcSize=12;fillColor=#636aff;strokeWidth=0.8;" parent="1" vertex="1">
            <mxGeometry x="624" y="-669" width="184" height="48" as="geometry" />
          </mxCell>
        </UserObject>
        <UserObject label="TASKMANAGER" lucidchartObjectId="1XpItajlC~17" id="JOTjsFw0k6sc1S5XeHR1-30">
          <mxCell style="html=1;overflow=block;blockSpacing=1;whiteSpace=wrap;fontSize=18.3;fontColor=#ffffff;align=center;spacingLeft=8.4;spacingRight=8.4;spacingTop=2.4;spacing=3.6;strokeOpacity=0;fillOpacity=100;rounded=1;absoluteArcSize=1;arcSize=12;fillColor=#636aff;strokeWidth=0.8;" parent="1" vertex="1">
            <mxGeometry x="624" y="-605" width="184" height="48" as="geometry" />
          </mxCell>
        </UserObject>
        <UserObject label="HISTORYSERVER" lucidchartObjectId="8XpIVe4FQzVd" id="JOTjsFw0k6sc1S5XeHR1-31">
          <mxCell style="html=1;overflow=block;blockSpacing=1;whiteSpace=wrap;fontSize=18.3;fontColor=#ffffff;align=center;spacingLeft=8.4;spacingRight=8.4;spacingTop=2.4;spacing=3.6;strokeOpacity=0;fillOpacity=100;rounded=1;absoluteArcSize=1;arcSize=12;fillColor=#636aff;strokeWidth=0.8;" parent="1" vertex="1">
            <mxGeometry x="853" y="-669" width="184" height="48" as="geometry" />
          </mxCell>
        </UserObject>
        <UserObject label="TASKMANAGER" lucidchartObjectId="8XpI6pTr3cQC" id="JOTjsFw0k6sc1S5XeHR1-32">
          <mxCell style="html=1;overflow=block;blockSpacing=1;whiteSpace=wrap;fontSize=18.3;fontColor=#ffffff;align=center;spacingLeft=8.4;spacingRight=8.4;spacingTop=2.4;spacing=3.6;strokeOpacity=0;fillOpacity=100;rounded=1;absoluteArcSize=1;arcSize=12;fillColor=#636aff;strokeWidth=0.8;" parent="1" vertex="1">
            <mxGeometry x="853" y="-605" width="184" height="48" as="geometry" />
          </mxCell>
        </UserObject>
        <mxCell id="JOTjsFw0k6sc1S5XeHR1-33" style="edgeStyle=none;rounded=1;jumpStyle=none;orthogonalLoop=1;jettySize=auto;html=1;exitX=0.75;exitY=1;exitDx=0;exitDy=0;startArrow=oval;startFill=1;endArrow=oval;endFill=1;strokeColor=#82b366;strokeWidth=2;fillColor=#d5e8d4;" parent="1" edge="1">
          <mxGeometry relative="1" as="geometry">
            <mxPoint x="899" y="-540" as="sourcePoint" />
            <mxPoint x="899" y="-496" as="targetPoint" />
          </mxGeometry>
        </mxCell>
        <mxCell id="JOTjsFw0k6sc1S5XeHR1-34" style="edgeStyle=none;rounded=1;jumpStyle=none;orthogonalLoop=1;jettySize=auto;html=1;exitX=0.75;exitY=1;exitDx=0;exitDy=0;startArrow=oval;startFill=1;endArrow=oval;endFill=1;strokeColor=#82b366;strokeWidth=2;fillColor=#d5e8d4;" parent="1" edge="1">
          <mxGeometry relative="1" as="geometry">
            <mxPoint x="697" y="-540" as="sourcePoint" />
            <mxPoint x="697" y="-496" as="targetPoint" />
          </mxGeometry>
        </mxCell>
        <mxCell id="JOTjsFw0k6sc1S5XeHR1-35" style="edgeStyle=none;rounded=1;jumpStyle=none;orthogonalLoop=1;jettySize=auto;html=1;exitX=0.75;exitY=1;exitDx=0;exitDy=0;startArrow=oval;startFill=1;endArrow=oval;endFill=1;strokeColor=#82b366;strokeWidth=2;fillColor=#d5e8d4;" parent="1" edge="1">
          <mxGeometry relative="1" as="geometry">
            <mxPoint x="499" y="-540" as="sourcePoint" />
            <mxPoint x="499" y="-496" as="targetPoint" />
          </mxGeometry>
        </mxCell>
        <UserObject label="NGINX + nginx-ldap-auth" lucidchartObjectId="HypIE5tfspSB" id="JOTjsFw0k6sc1S5XeHR1-36">
          <mxCell style="html=1;overflow=block;blockSpacing=1;whiteSpace=wrap;fontSize=18.3;fontColor=#333333;align=center;spacingLeft=8.4;spacingRight=8.4;spacingTop=2.4;spacing=3.6;verticalAlign=middle;strokeOpacity=0;fillOpacity=100;rounded=1;absoluteArcSize=1;arcSize=12;fillColor=#CACBE8;strokeWidth=0.8;" parent="1" vertex="1">
            <mxGeometry x="158.5" y="-771" width="184" height="51" as="geometry" />
          </mxCell>
        </UserObject>
        <UserObject label="NGINX + nginx-ldap-auth" lucidchartObjectId="RXpI~8YFsiHd" id="JOTjsFw0k6sc1S5XeHR1-37">
          <mxCell style="html=1;overflow=block;blockSpacing=1;whiteSpace=wrap;fontSize=18.3;fontColor=#333333;align=center;spacingLeft=8.4;spacingRight=8.4;spacingTop=2.4;spacing=3.6;verticalAlign=middle;strokeOpacity=0;fillOpacity=100;rounded=1;absoluteArcSize=1;arcSize=12;fillColor=#CACBE8;strokeWidth=0.8;" parent="1" vertex="1">
            <mxGeometry x="389.5" y="-771" width="184" height="51" as="geometry" />
          </mxCell>
        </UserObject>
        <UserObject label="NGINX + nginx-ldap-auth" lucidchartObjectId="1XpIAn_rVOTK" id="JOTjsFw0k6sc1S5XeHR1-38">
          <mxCell style="html=1;overflow=block;blockSpacing=1;whiteSpace=wrap;fontSize=18.3;fontColor=#333333;align=center;spacingLeft=8.4;spacingRight=8.4;spacingTop=2.4;spacing=3.6;verticalAlign=middle;strokeOpacity=0;fillOpacity=100;rounded=1;absoluteArcSize=1;arcSize=12;fillColor=#CACBE8;strokeWidth=0.8;" parent="1" vertex="1">
            <mxGeometry x="623.5" y="-771" width="184" height="51" as="geometry" />
          </mxCell>
        </UserObject>
        <UserObject label="NGINX + nginx-ldap-auth" lucidchartObjectId="8XpIHrtV3hBn" id="JOTjsFw0k6sc1S5XeHR1-39">
          <mxCell style="html=1;overflow=block;blockSpacing=1;whiteSpace=wrap;fontSize=18.3;fontColor=#333333;align=center;spacingLeft=8.4;spacingRight=8.4;spacingTop=2.4;spacing=3.6;verticalAlign=middle;strokeOpacity=0;fillOpacity=100;rounded=1;absoluteArcSize=1;arcSize=12;fillColor=#CACBE8;strokeWidth=0.8;strokeColor=#CACBE8;" parent="1" vertex="1">
            <mxGeometry x="852.5" y="-771" width="184" height="51" as="geometry" />
          </mxCell>
        </UserObject>
        <mxCell id="JOTjsFw0k6sc1S5XeHR1-40" style="edgeStyle=none;rounded=1;jumpStyle=none;orthogonalLoop=1;jettySize=auto;html=1;startArrow=oval;startFill=1;endArrow=oval;endFill=1;strokeColor=#CACBE8;strokeWidth=2;entryX=0.183;entryY=0.994;entryDx=0;entryDy=0;entryPerimeter=0;exitX=0.187;exitY=-0.014;exitDx=0;exitDy=0;exitPerimeter=0;" parent="1" edge="1">
          <mxGeometry relative="1" as="geometry">
            <mxPoint x="421" y="-722" as="targetPoint" />
            <mxPoint x="421" y="-670" as="sourcePoint" />
          </mxGeometry>
        </mxCell>
        <mxCell id="JOTjsFw0k6sc1S5XeHR1-41" style="edgeStyle=none;rounded=1;jumpStyle=none;orthogonalLoop=1;jettySize=auto;html=1;exitX=0.75;exitY=0;exitDx=0;exitDy=0;startArrow=oval;startFill=1;endArrow=oval;endFill=1;strokeColor=#CACBE8;strokeWidth=2;entryX=0.75;entryY=1;entryDx=0;entryDy=0;" parent="1" edge="1">
          <mxGeometry relative="1" as="geometry">
            <mxPoint x="294" y="-722" as="targetPoint" />
            <mxPoint x="294" y="-669" as="sourcePoint" />
          </mxGeometry>
        </mxCell>
        <mxCell id="JOTjsFw0k6sc1S5XeHR1-42" style="edgeStyle=none;rounded=1;jumpStyle=none;orthogonalLoop=1;jettySize=auto;html=1;exitX=0.75;exitY=0;exitDx=0;exitDy=0;startArrow=oval;startFill=1;endArrow=oval;endFill=1;strokeColor=#CACBE8;strokeWidth=2;entryX=0.75;entryY=1;entryDx=0;entryDy=0;" parent="1" edge="1">
          <mxGeometry relative="1" as="geometry">
            <mxPoint x="988" y="-722" as="targetPoint" />
            <mxPoint x="988" y="-669" as="sourcePoint" />
          </mxGeometry>
        </mxCell>
        <mxCell id="JOTjsFw0k6sc1S5XeHR1-43" style="edgeStyle=none;rounded=1;jumpStyle=none;orthogonalLoop=1;jettySize=auto;html=1;startArrow=oval;startFill=1;endArrow=oval;endFill=1;strokeColor=#CACBE8;strokeWidth=2;exitX=0.812;exitY=0.994;exitDx=0;exitDy=0;exitPerimeter=0;entryX=0.815;entryY=-0.014;entryDx=0;entryDy=0;entryPerimeter=0;" parent="1" edge="1">
          <mxGeometry relative="1" as="geometry">
            <mxPoint x="771" y="-670" as="targetPoint" />
            <mxPoint x="770" y="-722" as="sourcePoint" />
          </mxGeometry>
        </mxCell>
        <mxCell id="JOTjsFw0k6sc1S5XeHR1-44" value="&lt;b style=&quot;font-size: 24px;&quot;&gt;DC1&lt;/b&gt;" style="rounded=0;whiteSpace=wrap;html=1;fontSize=24;" parent="1" vertex="1">
          <mxGeometry x="328" y="-868" width="100" height="40" as="geometry" />
        </mxCell>
        <mxCell id="JOTjsFw0k6sc1S5XeHR1-45" value="&lt;b style=&quot;font-size: 24px;&quot;&gt;DC2&lt;/b&gt;" style="rounded=0;whiteSpace=wrap;html=1;fontSize=24;" parent="1" vertex="1">
          <mxGeometry x="778" y="-868" width="100" height="40" as="geometry" />
        </mxCell>
        <mxCell id="JOTjsFw0k6sc1S5XeHR1-46" value="" style="endArrow=none;dashed=1;html=1;dashPattern=1 3;strokeWidth=6;rounded=0;entryX=0.818;entryY=0.058;entryDx=0;entryDy=0;entryPerimeter=0;strokeColor=#727272;exitX=0.252;exitY=0.066;exitDx=0;exitDy=0;exitPerimeter=0;" parent="1" edge="1">
          <mxGeometry width="50" height="50" relative="1" as="geometry">
            <mxPoint x="416.924" y="-780.8400000000001" as="sourcePoint" />
            <mxPoint x="303.91599999999994" y="-780.9200000000001" as="targetPoint" />
          </mxGeometry>
        </mxCell>
        <mxCell id="JOTjsFw0k6sc1S5XeHR1-47" value="" style="endArrow=none;dashed=1;html=1;dashPattern=1 3;strokeWidth=6;rounded=0;entryX=0.818;entryY=0.058;entryDx=0;entryDy=0;entryPerimeter=0;strokeColor=#727272;exitX=0.252;exitY=0.066;exitDx=0;exitDy=0;exitPerimeter=0;" parent="1" edge="1">
          <mxGeometry width="50" height="50" relative="1" as="geometry">
            <mxPoint x="880.924" y="-779.8400000000001" as="sourcePoint" />
            <mxPoint x="767.9159999999999" y="-779.9200000000001" as="targetPoint" />
          </mxGeometry>
        </mxCell>
        <mxCell id="JOTjsFw0k6sc1S5XeHR1-48" style="edgeStyle=none;rounded=0;jumpStyle=none;orthogonalLoop=1;jettySize=auto;html=1;exitX=1;exitY=0.5;exitDx=0;exitDy=0;entryX=0;entryY=0.5;entryDx=0;entryDy=0;startArrow=none;startFill=0;endArrow=classic;endFill=0;strokeColor=#7EA6E0;strokeWidth=2;" parent="1" source="JOTjsFw0k6sc1S5XeHR1-25" target="JOTjsFw0k6sc1S5XeHR1-27" edge="1">
          <mxGeometry relative="1" as="geometry">
            <mxPoint x="350" y="-640" as="sourcePoint" />
            <mxPoint x="397" y="-640" as="targetPoint" />
          </mxGeometry>
        </mxCell>
        <mxCell id="JOTjsFw0k6sc1S5XeHR1-49" style="edgeStyle=none;rounded=0;jumpStyle=none;orthogonalLoop=1;jettySize=auto;html=1;exitX=1;exitY=0.5;exitDx=0;exitDy=0;entryX=0;entryY=0.5;entryDx=0;entryDy=0;startArrow=none;startFill=0;endArrow=classic;endFill=0;strokeColor=#7EA6E0;strokeWidth=2;" parent="1" source="JOTjsFw0k6sc1S5XeHR1-27" target="JOTjsFw0k6sc1S5XeHR1-29" edge="1">
          <mxGeometry relative="1" as="geometry">
            <mxPoint x="575" y="-650" as="sourcePoint" />
            <mxPoint x="622" y="-650" as="targetPoint" />
          </mxGeometry>
        </mxCell>
        <UserObject label="Server 1" lucidchartObjectId="HypIMii0T2fg" id="JOTjsFw0k6sc1S5XeHR1-53">
          <mxCell style="html=1;overflow=block;blockSpacing=1;whiteSpace=wrap;fontSize=18.3;fontColor=#333333;fontStyle=1;spacingLeft=8.4;spacingRight=8.4;spacingTop=2.4;spacing=3.6;verticalAlign=top;strokeOpacity=0;fillOpacity=100;rounded=1;absoluteArcSize=1;arcSize=12;fillColor=#ffdda6;strokeWidth=0.8;" parent="1" vertex="1">
            <mxGeometry x="144.5" y="-188" width="212" height="256" as="geometry" />
          </mxCell>
        </UserObject>
        <UserObject label="Server N" lucidchartObjectId="kbqIFTrSSb0c" id="JOTjsFw0k6sc1S5XeHR1-54">
          <mxCell style="html=1;overflow=block;blockSpacing=1;whiteSpace=wrap;fontSize=18.3;fontColor=#333333;fontStyle=1;spacingLeft=8.4;spacingRight=8.4;spacingTop=2.4;spacing=3.6;verticalAlign=top;strokeOpacity=0;fillOpacity=100;rounded=1;absoluteArcSize=1;arcSize=12;fillColor=#ffdda6;strokeWidth=0.8;" parent="1" vertex="1">
            <mxGeometry x="374.5" y="-188" width="212" height="256" as="geometry" />
          </mxCell>
        </UserObject>
        <UserObject label="Server 1" lucidchartObjectId="kgqIT20~Yh46" id="JOTjsFw0k6sc1S5XeHR1-55">
          <mxCell style="html=1;overflow=block;blockSpacing=1;whiteSpace=wrap;fontSize=18.3;fontColor=#333333;fontStyle=1;spacingLeft=8.4;spacingRight=8.4;spacingTop=2.4;spacing=3.6;verticalAlign=top;strokeOpacity=0;fillOpacity=100;rounded=1;absoluteArcSize=1;arcSize=12;fillColor=#ffdda6;strokeWidth=0.8;" parent="1" vertex="1">
            <mxGeometry x="608.5" y="-188" width="212" height="256" as="geometry" />
          </mxCell>
        </UserObject>
        <UserObject label="Server N" lucidchartObjectId="NgqIsRjEYktH" id="JOTjsFw0k6sc1S5XeHR1-56">
          <mxCell style="html=1;overflow=block;blockSpacing=1;whiteSpace=wrap;fontSize=18.3;fontColor=#333333;fontStyle=1;spacingLeft=8.4;spacingRight=8.4;spacingTop=2.4;spacing=3.6;verticalAlign=top;strokeOpacity=0;fillOpacity=100;rounded=1;absoluteArcSize=1;arcSize=12;fillColor=#ffdda6;strokeWidth=0.8;" parent="1" vertex="1">
            <mxGeometry x="838.5" y="-188" width="212" height="256" as="geometry" />
          </mxCell>
        </UserObject>
        <UserObject label="&lt;div style=&quot;line-height: 0.9;&quot;&gt;Кластер Apache Flink&lt;br&gt;&lt;/div&gt;&lt;div&gt;&lt;sup&gt;&lt;font style=&quot;font-size: 10px;&quot;&gt;УАСП-СПМ&lt;/font&gt;&lt;/sup&gt;&lt;br&gt;&lt;/div&gt;" lucidchartObjectId="WnqImOF1_m_N" id="JOTjsFw0k6sc1S5XeHR1-57">
          <mxCell style="html=1;overflow=block;blockSpacing=1;whiteSpace=wrap;fontSize=20;fontColor=#ffffff;fontStyle=1;spacingLeft=8.4;spacingRight=8.4;spacingTop=2.4;spacing=3.6;verticalAlign=top;strokeOpacity=0;fillOpacity=100;rounded=1;absoluteArcSize=1;arcSize=12;fillColor=#8b90ff;strokeWidth=0.8;" parent="1" vertex="1">
            <mxGeometry x="133" y="-103" width="929" height="164" as="geometry" />
          </mxCell>
        </UserObject>
        <UserObject label="&lt;div&gt;JOBMANAGER&lt;/div&gt;&lt;div&gt;&lt;font style=&quot;font-size: 14px;&quot;&gt;Standby&lt;/font&gt;&lt;/div&gt;" lucidchartObjectId="HypInYoTSrlu" id="JOTjsFw0k6sc1S5XeHR1-58">
          <mxCell style="html=1;overflow=block;blockSpacing=1;whiteSpace=wrap;fontSize=18.3;fontColor=#ffffff;align=center;spacingLeft=8.4;spacingRight=8.4;spacingTop=2.4;spacing=3.6;strokeOpacity=0;fillOpacity=100;rounded=1;absoluteArcSize=1;arcSize=12;fillColor=#636aff;strokeWidth=0.8;" parent="1" vertex="1">
            <mxGeometry x="159" y="-59" width="184" height="48" as="geometry" />
          </mxCell>
        </UserObject>
        <UserObject label="TASKMANAGER" lucidchartObjectId="HypIgOagNPgA" id="JOTjsFw0k6sc1S5XeHR1-59">
          <mxCell style="html=1;overflow=block;blockSpacing=1;whiteSpace=wrap;fontSize=18.3;fontColor=#ffffff;align=center;spacingLeft=8.4;spacingRight=8.4;spacingTop=2.4;spacing=3.6;strokeOpacity=0;fillOpacity=100;rounded=1;absoluteArcSize=1;arcSize=12;fillColor=#636aff;strokeWidth=0.8;" parent="1" vertex="1">
            <mxGeometry x="159" y="5" width="184" height="48" as="geometry" />
          </mxCell>
        </UserObject>
        <UserObject label="&lt;div&gt;JOBMANAGER&lt;/div&gt;&lt;div&gt;&lt;font style=&quot;font-size: 14px;&quot;&gt;Standby&lt;/font&gt;&lt;/div&gt;" lucidchartObjectId="RXpI0It2jUcH" id="JOTjsFw0k6sc1S5XeHR1-60">
          <mxCell style="html=1;overflow=block;blockSpacing=1;whiteSpace=wrap;fontSize=18.3;fontColor=#ffffff;align=center;spacingLeft=8.4;spacingRight=8.4;spacingTop=2.4;spacing=3.6;strokeOpacity=0;fillOpacity=100;rounded=1;absoluteArcSize=1;arcSize=12;fillColor=#636aff;strokeWidth=0.8;" parent="1" vertex="1">
            <mxGeometry x="390" y="-59" width="184" height="48" as="geometry" />
          </mxCell>
        </UserObject>
        <UserObject label="TASKMANAGER" lucidchartObjectId="RXpIgnX.f~PW" id="JOTjsFw0k6sc1S5XeHR1-61">
          <mxCell style="html=1;overflow=block;blockSpacing=1;whiteSpace=wrap;fontSize=18.3;fontColor=#ffffff;align=center;spacingLeft=8.4;spacingRight=8.4;spacingTop=2.4;spacing=3.6;strokeOpacity=0;fillOpacity=100;rounded=1;absoluteArcSize=1;arcSize=12;fillColor=#636aff;strokeWidth=0.8;" parent="1" vertex="1">
            <mxGeometry x="390" y="5" width="184" height="48" as="geometry" />
          </mxCell>
        </UserObject>
        <UserObject label="JOBMANAGER&lt;font color=&quot;#33ff33&quot; style=&quot;font-size: 14px;&quot;&gt;&lt;b&gt;&lt;br&gt;Leader&lt;/b&gt;&lt;/font&gt;" lucidchartObjectId="1XpI324HXPmj" id="JOTjsFw0k6sc1S5XeHR1-62">
          <mxCell style="html=1;overflow=block;blockSpacing=1;whiteSpace=wrap;fontSize=18.3;fontColor=#ffffff;align=center;spacingLeft=8.4;spacingRight=8.4;spacingTop=2.4;spacing=3.6;strokeOpacity=0;fillOpacity=100;rounded=1;absoluteArcSize=1;arcSize=12;fillColor=#636aff;strokeWidth=0.8;" parent="1" vertex="1">
            <mxGeometry x="624" y="-59" width="184" height="48" as="geometry" />
          </mxCell>
        </UserObject>
        <UserObject label="TASKMANAGER" lucidchartObjectId="1XpItajlC~17" id="JOTjsFw0k6sc1S5XeHR1-63">
          <mxCell style="html=1;overflow=block;blockSpacing=1;whiteSpace=wrap;fontSize=18.3;fontColor=#ffffff;align=center;spacingLeft=8.4;spacingRight=8.4;spacingTop=2.4;spacing=3.6;strokeOpacity=0;fillOpacity=100;rounded=1;absoluteArcSize=1;arcSize=12;fillColor=#636aff;strokeWidth=0.8;" parent="1" vertex="1">
            <mxGeometry x="624" y="5" width="184" height="48" as="geometry" />
          </mxCell>
        </UserObject>
        <UserObject label="HISTORYSERVER" lucidchartObjectId="8XpIVe4FQzVd" id="JOTjsFw0k6sc1S5XeHR1-64">
          <mxCell style="html=1;overflow=block;blockSpacing=1;whiteSpace=wrap;fontSize=18.3;fontColor=#ffffff;align=center;spacingLeft=8.4;spacingRight=8.4;spacingTop=2.4;spacing=3.6;strokeOpacity=0;fillOpacity=100;rounded=1;absoluteArcSize=1;arcSize=12;fillColor=#636aff;strokeWidth=0.8;" parent="1" vertex="1">
            <mxGeometry x="853" y="-59" width="184" height="48" as="geometry" />
          </mxCell>
        </UserObject>
        <UserObject label="TASKMANAGER" lucidchartObjectId="8XpI6pTr3cQC" id="JOTjsFw0k6sc1S5XeHR1-65">
          <mxCell style="html=1;overflow=block;blockSpacing=1;whiteSpace=wrap;fontSize=18.3;fontColor=#ffffff;align=center;spacingLeft=8.4;spacingRight=8.4;spacingTop=2.4;spacing=3.6;strokeOpacity=0;fillOpacity=100;rounded=1;absoluteArcSize=1;arcSize=12;fillColor=#636aff;strokeWidth=0.8;" parent="1" vertex="1">
            <mxGeometry x="853" y="5" width="184" height="48" as="geometry" />
          </mxCell>
        </UserObject>
        <mxCell id="JOTjsFw0k6sc1S5XeHR1-66" style="edgeStyle=none;rounded=1;jumpStyle=none;orthogonalLoop=1;jettySize=auto;html=1;exitX=0.75;exitY=1;exitDx=0;exitDy=0;startArrow=oval;startFill=1;endArrow=oval;endFill=1;strokeColor=#82b366;strokeWidth=2;fillColor=#d5e8d4;" parent="1" edge="1">
          <mxGeometry relative="1" as="geometry">
            <mxPoint x="901.5" y="-188" as="sourcePoint" />
            <mxPoint x="901.5" y="-232" as="targetPoint" />
          </mxGeometry>
        </mxCell>
        <mxCell id="JOTjsFw0k6sc1S5XeHR1-67" style="edgeStyle=none;rounded=1;jumpStyle=none;orthogonalLoop=1;jettySize=auto;html=1;exitX=0.75;exitY=1;exitDx=0;exitDy=0;startArrow=oval;startFill=1;endArrow=oval;endFill=1;strokeColor=#82b366;strokeWidth=2;fillColor=#d5e8d4;" parent="1" edge="1">
          <mxGeometry relative="1" as="geometry">
            <mxPoint x="699.5" y="-188" as="sourcePoint" />
            <mxPoint x="699.5" y="-232" as="targetPoint" />
          </mxGeometry>
        </mxCell>
        <mxCell id="JOTjsFw0k6sc1S5XeHR1-68" style="edgeStyle=none;rounded=1;jumpStyle=none;orthogonalLoop=1;jettySize=auto;html=1;exitX=0.75;exitY=1;exitDx=0;exitDy=0;startArrow=oval;startFill=1;endArrow=oval;endFill=1;strokeColor=#82b366;strokeWidth=2;fillColor=#d5e8d4;" parent="1" edge="1">
          <mxGeometry relative="1" as="geometry">
            <mxPoint x="501.5" y="-188" as="sourcePoint" />
            <mxPoint x="501.5" y="-232" as="targetPoint" />
          </mxGeometry>
        </mxCell>
        <UserObject label="NGINX + nginx-ldap-auth" lucidchartObjectId="HypIE5tfspSB" id="JOTjsFw0k6sc1S5XeHR1-69">
          <mxCell style="html=1;overflow=block;blockSpacing=1;whiteSpace=wrap;fontSize=18.3;fontColor=#333333;align=center;spacingLeft=8.4;spacingRight=8.4;spacingTop=2.4;spacing=3.6;verticalAlign=middle;strokeOpacity=0;fillOpacity=100;rounded=1;absoluteArcSize=1;arcSize=12;fillColor=#CACBE8;strokeWidth=0.8;" parent="1" vertex="1">
            <mxGeometry x="158.5" y="-161" width="184" height="51" as="geometry" />
          </mxCell>
        </UserObject>
        <UserObject label="NGINX + nginx-ldap-auth" lucidchartObjectId="RXpI~8YFsiHd" id="JOTjsFw0k6sc1S5XeHR1-70">
          <mxCell style="html=1;overflow=block;blockSpacing=1;whiteSpace=wrap;fontSize=18.3;fontColor=#333333;align=center;spacingLeft=8.4;spacingRight=8.4;spacingTop=2.4;spacing=3.6;verticalAlign=middle;strokeOpacity=0;fillOpacity=100;rounded=1;absoluteArcSize=1;arcSize=12;fillColor=#CACBE8;strokeWidth=0.8;" parent="1" vertex="1">
            <mxGeometry x="389.5" y="-161" width="184" height="51" as="geometry" />
          </mxCell>
        </UserObject>
        <UserObject label="NGINX + nginx-ldap-auth" lucidchartObjectId="1XpIAn_rVOTK" id="JOTjsFw0k6sc1S5XeHR1-71">
          <mxCell style="html=1;overflow=block;blockSpacing=1;whiteSpace=wrap;fontSize=18.3;fontColor=#333333;align=center;spacingLeft=8.4;spacingRight=8.4;spacingTop=2.4;spacing=3.6;verticalAlign=middle;strokeOpacity=0;fillOpacity=100;rounded=1;absoluteArcSize=1;arcSize=12;fillColor=#CACBE8;strokeWidth=0.8;" parent="1" vertex="1">
            <mxGeometry x="623.5" y="-161" width="184" height="51" as="geometry" />
          </mxCell>
        </UserObject>
        <UserObject label="NGINX + nginx-ldap-auth" lucidchartObjectId="8XpIHrtV3hBn" id="JOTjsFw0k6sc1S5XeHR1-72">
          <mxCell style="html=1;overflow=block;blockSpacing=1;whiteSpace=wrap;fontSize=18.3;fontColor=#333333;align=center;spacingLeft=8.4;spacingRight=8.4;spacingTop=2.4;spacing=3.6;verticalAlign=middle;strokeOpacity=0;fillOpacity=100;rounded=1;absoluteArcSize=1;arcSize=12;fillColor=#CACBE8;strokeWidth=0.8;strokeColor=#CACBE8;" parent="1" vertex="1">
            <mxGeometry x="852.5" y="-161" width="184" height="51" as="geometry" />
          </mxCell>
        </UserObject>
        <mxCell id="JOTjsFw0k6sc1S5XeHR1-73" style="edgeStyle=none;rounded=1;jumpStyle=none;orthogonalLoop=1;jettySize=auto;html=1;startArrow=oval;startFill=1;endArrow=oval;endFill=1;strokeColor=#CACBE8;strokeWidth=2;entryX=0.183;entryY=0.994;entryDx=0;entryDy=0;entryPerimeter=0;exitX=0.187;exitY=-0.014;exitDx=0;exitDy=0;exitPerimeter=0;" parent="1" edge="1">
          <mxGeometry relative="1" as="geometry">
            <mxPoint x="421" y="-112" as="targetPoint" />
            <mxPoint x="421" y="-60" as="sourcePoint" />
          </mxGeometry>
        </mxCell>
        <mxCell id="JOTjsFw0k6sc1S5XeHR1-74" style="edgeStyle=none;rounded=1;jumpStyle=none;orthogonalLoop=1;jettySize=auto;html=1;exitX=0.75;exitY=0;exitDx=0;exitDy=0;startArrow=oval;startFill=1;endArrow=oval;endFill=1;strokeColor=#CACBE8;strokeWidth=2;entryX=0.75;entryY=1;entryDx=0;entryDy=0;" parent="1" edge="1">
          <mxGeometry relative="1" as="geometry">
            <mxPoint x="294" y="-112" as="targetPoint" />
            <mxPoint x="294" y="-59" as="sourcePoint" />
          </mxGeometry>
        </mxCell>
        <mxCell id="JOTjsFw0k6sc1S5XeHR1-75" style="edgeStyle=none;rounded=1;jumpStyle=none;orthogonalLoop=1;jettySize=auto;html=1;exitX=0.75;exitY=0;exitDx=0;exitDy=0;startArrow=oval;startFill=1;endArrow=oval;endFill=1;strokeColor=#CACBE8;strokeWidth=2;entryX=0.75;entryY=1;entryDx=0;entryDy=0;" parent="1" edge="1">
          <mxGeometry relative="1" as="geometry">
            <mxPoint x="988" y="-112" as="targetPoint" />
            <mxPoint x="988" y="-59" as="sourcePoint" />
          </mxGeometry>
        </mxCell>
        <mxCell id="JOTjsFw0k6sc1S5XeHR1-76" style="edgeStyle=none;rounded=1;jumpStyle=none;orthogonalLoop=1;jettySize=auto;html=1;startArrow=oval;startFill=1;endArrow=oval;endFill=1;strokeColor=#CACBE8;strokeWidth=2;exitX=0.812;exitY=0.994;exitDx=0;exitDy=0;exitPerimeter=0;entryX=0.815;entryY=-0.014;entryDx=0;entryDy=0;entryPerimeter=0;" parent="1" edge="1">
          <mxGeometry relative="1" as="geometry">
            <mxPoint x="771" y="-60" as="targetPoint" />
            <mxPoint x="770" y="-112" as="sourcePoint" />
          </mxGeometry>
        </mxCell>
        <mxCell id="JOTjsFw0k6sc1S5XeHR1-77" value="" style="endArrow=none;dashed=1;html=1;dashPattern=1 3;strokeWidth=6;rounded=0;entryX=0.818;entryY=0.058;entryDx=0;entryDy=0;entryPerimeter=0;strokeColor=#727272;exitX=0.252;exitY=0.066;exitDx=0;exitDy=0;exitPerimeter=0;" parent="1" edge="1">
          <mxGeometry width="50" height="50" relative="1" as="geometry">
            <mxPoint x="416.924" y="-170.84000000000015" as="sourcePoint" />
            <mxPoint x="303.91599999999994" y="-170.92000000000007" as="targetPoint" />
          </mxGeometry>
        </mxCell>
        <mxCell id="JOTjsFw0k6sc1S5XeHR1-78" value="" style="endArrow=none;dashed=1;html=1;dashPattern=1 3;strokeWidth=6;rounded=0;entryX=0.818;entryY=0.058;entryDx=0;entryDy=0;entryPerimeter=0;strokeColor=#727272;exitX=0.252;exitY=0.066;exitDx=0;exitDy=0;exitPerimeter=0;" parent="1" edge="1">
          <mxGeometry width="50" height="50" relative="1" as="geometry">
            <mxPoint x="880.924" y="-169.84000000000015" as="sourcePoint" />
            <mxPoint x="767.9159999999999" y="-169.92000000000007" as="targetPoint" />
          </mxGeometry>
        </mxCell>
        <mxCell id="JOTjsFw0k6sc1S5XeHR1-79" style="edgeStyle=none;rounded=0;jumpStyle=none;orthogonalLoop=1;jettySize=auto;html=1;exitX=1;exitY=0.5;exitDx=0;exitDy=0;entryX=0;entryY=0.5;entryDx=0;entryDy=0;startArrow=none;startFill=0;endArrow=classic;endFill=0;strokeColor=#7EA6E0;strokeWidth=2;" parent="1" source="JOTjsFw0k6sc1S5XeHR1-58" target="JOTjsFw0k6sc1S5XeHR1-60" edge="1">
          <mxGeometry relative="1" as="geometry">
            <mxPoint x="350" y="-30" as="sourcePoint" />
            <mxPoint x="397" y="-30" as="targetPoint" />
          </mxGeometry>
        </mxCell>
        <mxCell id="JOTjsFw0k6sc1S5XeHR1-80" style="edgeStyle=none;rounded=0;jumpStyle=none;orthogonalLoop=1;jettySize=auto;html=1;exitX=1;exitY=0.5;exitDx=0;exitDy=0;entryX=0;entryY=0.5;entryDx=0;entryDy=0;startArrow=none;startFill=0;endArrow=classic;endFill=0;strokeColor=#7EA6E0;strokeWidth=2;" parent="1" source="JOTjsFw0k6sc1S5XeHR1-60" target="JOTjsFw0k6sc1S5XeHR1-62" edge="1">
          <mxGeometry relative="1" as="geometry">
            <mxPoint x="575" y="-40" as="sourcePoint" />
            <mxPoint x="622" y="-40" as="targetPoint" />
          </mxGeometry>
        </mxCell>
        <mxCell id="JOTjsFw0k6sc1S5XeHR1-81" value="" style="endArrow=none;dashed=1;html=1;dashPattern=1 3;strokeWidth=2;rounded=0;strokeColor=#FF0000;" parent="1" edge="1">
          <mxGeometry width="50" height="50" relative="1" as="geometry">
            <mxPoint x="1697" y="102" as="sourcePoint" />
            <mxPoint x="1698" y="-853" as="targetPoint" />
          </mxGeometry>
        </mxCell>
        <UserObject label="Server 1" lucidchartObjectId="HypIMii0T2fg" id="JOTjsFw0k6sc1S5XeHR1-82">
          <mxCell style="html=1;overflow=block;blockSpacing=1;whiteSpace=wrap;fontSize=18.3;fontColor=#333333;fontStyle=1;spacingLeft=8.4;spacingRight=8.4;spacingTop=2.4;spacing=3.6;verticalAlign=top;strokeOpacity=0;fillOpacity=100;rounded=1;absoluteArcSize=1;arcSize=12;fillColor=#ffdda6;strokeWidth=0.8;" parent="1" vertex="1">
            <mxGeometry x="1244.5" y="-798" width="212" height="256" as="geometry" />
          </mxCell>
        </UserObject>
        <UserObject label="Server N" lucidchartObjectId="kbqIFTrSSb0c" id="JOTjsFw0k6sc1S5XeHR1-83">
          <mxCell style="html=1;overflow=block;blockSpacing=1;whiteSpace=wrap;fontSize=18.3;fontColor=#333333;fontStyle=1;spacingLeft=8.4;spacingRight=8.4;spacingTop=2.4;spacing=3.6;verticalAlign=top;strokeOpacity=0;fillOpacity=100;rounded=1;absoluteArcSize=1;arcSize=12;fillColor=#ffdda6;strokeWidth=0.8;" parent="1" vertex="1">
            <mxGeometry x="1474.5" y="-798" width="212" height="256" as="geometry" />
          </mxCell>
        </UserObject>
        <UserObject label="Server 1" lucidchartObjectId="kgqIT20~Yh46" id="JOTjsFw0k6sc1S5XeHR1-84">
          <mxCell style="html=1;overflow=block;blockSpacing=1;whiteSpace=wrap;fontSize=18.3;fontColor=#333333;fontStyle=1;spacingLeft=8.4;spacingRight=8.4;spacingTop=2.4;spacing=3.6;verticalAlign=top;strokeOpacity=0;fillOpacity=100;rounded=1;absoluteArcSize=1;arcSize=12;fillColor=#ffdda6;strokeWidth=0.8;" parent="1" vertex="1">
            <mxGeometry x="1708.5" y="-798" width="212" height="256" as="geometry" />
          </mxCell>
        </UserObject>
        <UserObject label="Server N" lucidchartObjectId="NgqIsRjEYktH" id="JOTjsFw0k6sc1S5XeHR1-85">
          <mxCell style="html=1;overflow=block;blockSpacing=1;whiteSpace=wrap;fontSize=18.3;fontColor=#333333;fontStyle=1;spacingLeft=8.4;spacingRight=8.4;spacingTop=2.4;spacing=3.6;verticalAlign=top;strokeOpacity=0;fillOpacity=100;rounded=1;absoluteArcSize=1;arcSize=12;fillColor=#ffdda6;strokeWidth=0.8;" parent="1" vertex="1">
            <mxGeometry x="1938.5" y="-798" width="212" height="256" as="geometry" />
          </mxCell>
        </UserObject>
        <UserObject label="&lt;div&gt;Объектное хранилище Ceph без георезервирования&lt;br&gt;&lt;/div&gt;&lt;div&gt;&lt;br&gt;&lt;/div&gt;&lt;div&gt;&lt;br&gt;&lt;/div&gt;&lt;div style=&quot;font-size: 16px;&quot;&gt;&lt;br&gt;&lt;/div&gt;&lt;div&gt;&lt;font style=&quot;font-size: 9px;&quot;&gt;&lt;i&gt;2 бакета на 1 кластер Flink&lt;/i&gt;&lt;/font&gt;&lt;/div&gt;" lucidchartObjectId="_KpIE2-JrPc8" id="JOTjsFw0k6sc1S5XeHR1-87">
          <mxCell style="html=1;overflow=block;blockSpacing=1;whiteSpace=wrap;fontSize=20;fontStyle=1;align=center;spacing=9;verticalAlign=top;strokeOpacity=0;fillOpacity=100;rounded=1;absoluteArcSize=1;arcSize=12;fillColor=#d5e8d4;strokeWidth=0.8;strokeColor=#82b366;" parent="1" vertex="1">
            <mxGeometry x="1748" y="-438" width="360" height="150" as="geometry" />
          </mxCell>
        </UserObject>
        <UserObject label="Площадка для часто обновляемых HA-метаданных и&amp;nbsp;инкрементных / полных снэпшотов кластера Flink " lucidchartObjectId="fSpIcaWIN3Va" id="JOTjsFw0k6sc1S5XeHR1-88">
          <mxCell style="html=1;overflow=block;blockSpacing=1;whiteSpace=wrap;fontSize=16.7;fontColor=#333333;align=left;spacing=9;verticalAlign=top;strokeOpacity=100;fillOpacity=100;rounded=1;absoluteArcSize=1;arcSize=12;fillColor=#ffffff;strokeWidth=0.8;" parent="1" vertex="1">
            <mxGeometry x="1763" y="-380" width="330" height="72" as="geometry" />
          </mxCell>
        </UserObject>
        <UserObject label="&lt;div style=&quot;line-height: 0.9;&quot;&gt;Кластер Apache Flink&lt;br&gt;&lt;/div&gt;&lt;div&gt;&lt;sup&gt;&lt;font style=&quot;font-size: 10px;&quot;&gt;УАСП&lt;/font&gt;&lt;/sup&gt;&lt;br&gt;&lt;/div&gt;" lucidchartObjectId="WnqImOF1_m_N" id="JOTjsFw0k6sc1S5XeHR1-89">
          <mxCell style="html=1;overflow=block;blockSpacing=1;whiteSpace=wrap;fontSize=20;fontColor=#ffffff;fontStyle=1;spacingLeft=8.4;spacingRight=8.4;spacingTop=2.4;spacing=3.6;verticalAlign=top;strokeOpacity=0;fillOpacity=100;rounded=1;absoluteArcSize=1;arcSize=12;fillColor=#8b90ff;strokeWidth=0.8;" parent="1" vertex="1">
            <mxGeometry x="1233" y="-713" width="929" height="164" as="geometry" />
          </mxCell>
        </UserObject>
        <UserObject label="&lt;div&gt;JOBMANAGER&lt;/div&gt;&lt;div&gt;&lt;font color=&quot;#33ff33&quot; style=&quot;font-size: 14px;&quot;&gt;&lt;b&gt;Leader&lt;/b&gt;&lt;/font&gt;&lt;/div&gt;" lucidchartObjectId="HypInYoTSrlu" id="JOTjsFw0k6sc1S5XeHR1-90">
          <mxCell style="html=1;overflow=block;blockSpacing=1;whiteSpace=wrap;fontSize=18.3;fontColor=#ffffff;align=center;spacingLeft=8.4;spacingRight=8.4;spacingTop=2.4;spacing=3.6;strokeOpacity=0;fillOpacity=100;rounded=1;absoluteArcSize=1;arcSize=12;fillColor=#636aff;strokeWidth=0.8;" parent="1" vertex="1">
            <mxGeometry x="1259" y="-669" width="184" height="48" as="geometry" />
          </mxCell>
        </UserObject>
        <UserObject label="TASKMANAGER" lucidchartObjectId="HypIgOagNPgA" id="JOTjsFw0k6sc1S5XeHR1-91">
          <mxCell style="html=1;overflow=block;blockSpacing=1;whiteSpace=wrap;fontSize=18.3;fontColor=#ffffff;align=center;spacingLeft=8.4;spacingRight=8.4;spacingTop=2.4;spacing=3.6;strokeOpacity=0;fillOpacity=100;rounded=1;absoluteArcSize=1;arcSize=12;fillColor=#636aff;strokeWidth=0.8;" parent="1" vertex="1">
            <mxGeometry x="1259" y="-605" width="184" height="48" as="geometry" />
          </mxCell>
        </UserObject>
        <UserObject label="JOBMANAGER&lt;br&gt;&lt;font style=&quot;font-size: 14px;&quot;&gt;Standby&lt;/font&gt;" lucidchartObjectId="RXpI0It2jUcH" id="JOTjsFw0k6sc1S5XeHR1-92">
          <mxCell style="html=1;overflow=block;blockSpacing=1;whiteSpace=wrap;fontSize=18.3;fontColor=#ffffff;align=center;spacingLeft=8.4;spacingRight=8.4;spacingTop=2.4;spacing=3.6;strokeOpacity=0;fillOpacity=100;rounded=1;absoluteArcSize=1;arcSize=12;fillColor=#636aff;strokeWidth=0.8;" parent="1" vertex="1">
            <mxGeometry x="1490" y="-669" width="184" height="48" as="geometry" />
          </mxCell>
        </UserObject>
        <UserObject label="TASKMANAGER" lucidchartObjectId="RXpIgnX.f~PW" id="JOTjsFw0k6sc1S5XeHR1-93">
          <mxCell style="html=1;overflow=block;blockSpacing=1;whiteSpace=wrap;fontSize=18.3;fontColor=#ffffff;align=center;spacingLeft=8.4;spacingRight=8.4;spacingTop=2.4;spacing=3.6;strokeOpacity=0;fillOpacity=100;rounded=1;absoluteArcSize=1;arcSize=12;fillColor=#636aff;strokeWidth=0.8;" parent="1" vertex="1">
            <mxGeometry x="1490" y="-605" width="184" height="48" as="geometry" />
          </mxCell>
        </UserObject>
        <UserObject label="JOBMANAGER&lt;br&gt;&lt;font style=&quot;font-size: 14px;&quot;&gt;Standby&lt;/font&gt;" lucidchartObjectId="1XpI324HXPmj" id="JOTjsFw0k6sc1S5XeHR1-94">
          <mxCell style="html=1;overflow=block;blockSpacing=1;whiteSpace=wrap;fontSize=18.3;fontColor=#ffffff;align=center;spacingLeft=8.4;spacingRight=8.4;spacingTop=2.4;spacing=3.6;strokeOpacity=0;fillOpacity=100;rounded=1;absoluteArcSize=1;arcSize=12;fillColor=#e51400;strokeWidth=0.8;strokeColor=#B20000;" parent="1" vertex="1">
            <mxGeometry x="1724" y="-669" width="184" height="48" as="geometry" />
          </mxCell>
        </UserObject>
        <UserObject label="TASKMANAGER" lucidchartObjectId="1XpItajlC~17" id="JOTjsFw0k6sc1S5XeHR1-95">
          <mxCell style="html=1;overflow=block;blockSpacing=1;whiteSpace=wrap;fontSize=18.3;fontColor=#ffffff;align=center;spacingLeft=8.4;spacingRight=8.4;spacingTop=2.4;spacing=3.6;strokeOpacity=0;fillOpacity=100;rounded=1;absoluteArcSize=1;arcSize=12;fillColor=#e51400;strokeWidth=0.8;strokeColor=#B20000;" parent="1" vertex="1">
            <mxGeometry x="1724" y="-605" width="184" height="48" as="geometry" />
          </mxCell>
        </UserObject>
        <UserObject label="HISTORYSERVER" lucidchartObjectId="8XpIVe4FQzVd" id="JOTjsFw0k6sc1S5XeHR1-96">
          <mxCell style="html=1;overflow=block;blockSpacing=1;whiteSpace=wrap;fontSize=18.3;fontColor=#ffffff;align=center;spacingLeft=8.4;spacingRight=8.4;spacingTop=2.4;spacing=3.6;strokeOpacity=0;fillOpacity=100;rounded=1;absoluteArcSize=1;arcSize=12;fillColor=#e51400;strokeWidth=0.8;strokeColor=#B20000;" parent="1" vertex="1">
            <mxGeometry x="1953" y="-669" width="184" height="48" as="geometry" />
          </mxCell>
        </UserObject>
        <UserObject label="TASKMANAGER" lucidchartObjectId="8XpI6pTr3cQC" id="JOTjsFw0k6sc1S5XeHR1-97">
          <mxCell style="html=1;overflow=block;blockSpacing=1;whiteSpace=wrap;fontSize=18.3;fontColor=#ffffff;align=center;spacingLeft=8.4;spacingRight=8.4;spacingTop=2.4;spacing=3.6;strokeOpacity=0;fillOpacity=100;rounded=1;absoluteArcSize=1;arcSize=12;fillColor=#e51400;strokeWidth=0.8;strokeColor=#B20000;" parent="1" vertex="1">
            <mxGeometry x="1953" y="-605" width="184" height="48" as="geometry" />
          </mxCell>
        </UserObject>
        <mxCell id="JOTjsFw0k6sc1S5XeHR1-100" style="edgeStyle=none;rounded=1;jumpStyle=none;orthogonalLoop=1;jettySize=auto;html=1;exitX=0.75;exitY=1;exitDx=0;exitDy=0;startArrow=oval;startFill=1;endArrow=oval;endFill=1;strokeColor=#82b366;strokeWidth=2;fillColor=#d5e8d4;" parent="1" edge="1">
          <mxGeometry relative="1" as="geometry">
            <mxPoint x="1419" y="-540" as="sourcePoint" />
            <mxPoint x="1419" y="-496" as="targetPoint" />
          </mxGeometry>
        </mxCell>
        <UserObject label="NGINX + nginx-ldap-auth" lucidchartObjectId="HypIE5tfspSB" id="JOTjsFw0k6sc1S5XeHR1-101">
          <mxCell style="html=1;overflow=block;blockSpacing=1;whiteSpace=wrap;fontSize=18.3;fontColor=#333333;align=center;spacingLeft=8.4;spacingRight=8.4;spacingTop=2.4;spacing=3.6;verticalAlign=middle;strokeOpacity=0;fillOpacity=100;rounded=1;absoluteArcSize=1;arcSize=12;fillColor=#CACBE8;strokeWidth=0.8;" parent="1" vertex="1">
            <mxGeometry x="1258.5" y="-771" width="184" height="51" as="geometry" />
          </mxCell>
        </UserObject>
        <UserObject label="NGINX + nginx-ldap-auth" lucidchartObjectId="RXpI~8YFsiHd" id="JOTjsFw0k6sc1S5XeHR1-102">
          <mxCell style="html=1;overflow=block;blockSpacing=1;whiteSpace=wrap;fontSize=18.3;fontColor=#333333;align=center;spacingLeft=8.4;spacingRight=8.4;spacingTop=2.4;spacing=3.6;verticalAlign=middle;strokeOpacity=0;fillOpacity=100;rounded=1;absoluteArcSize=1;arcSize=12;fillColor=#CACBE8;strokeWidth=0.8;" parent="1" vertex="1">
            <mxGeometry x="1489.5" y="-771" width="184" height="51" as="geometry" />
          </mxCell>
        </UserObject>
        <UserObject label="NGINX + nginx-ldap-auth" lucidchartObjectId="1XpIAn_rVOTK" id="JOTjsFw0k6sc1S5XeHR1-103">
          <mxCell style="html=1;overflow=block;blockSpacing=1;whiteSpace=wrap;fontSize=18.3;fontColor=#333333;align=center;spacingLeft=8.4;spacingRight=8.4;spacingTop=2.4;spacing=3.6;verticalAlign=middle;strokeOpacity=0;fillOpacity=100;rounded=1;absoluteArcSize=1;arcSize=12;fillColor=#CACBE8;strokeWidth=0.8;" parent="1" vertex="1">
            <mxGeometry x="1723.5" y="-771" width="184" height="51" as="geometry" />
          </mxCell>
        </UserObject>
        <UserObject label="NGINX + nginx-ldap-auth" lucidchartObjectId="8XpIHrtV3hBn" id="JOTjsFw0k6sc1S5XeHR1-104">
          <mxCell style="html=1;overflow=block;blockSpacing=1;whiteSpace=wrap;fontSize=18.3;fontColor=#333333;align=center;spacingLeft=8.4;spacingRight=8.4;spacingTop=2.4;spacing=3.6;verticalAlign=middle;strokeOpacity=0;fillOpacity=100;rounded=1;absoluteArcSize=1;arcSize=12;fillColor=#CACBE8;strokeWidth=0.8;strokeColor=#CACBE8;" parent="1" vertex="1">
            <mxGeometry x="1952.5" y="-771" width="184" height="51" as="geometry" />
          </mxCell>
        </UserObject>
        <mxCell id="JOTjsFw0k6sc1S5XeHR1-105" style="edgeStyle=none;rounded=1;jumpStyle=none;orthogonalLoop=1;jettySize=auto;html=1;startArrow=oval;startFill=1;endArrow=oval;endFill=1;strokeColor=#CACBE8;strokeWidth=2;entryX=0.183;entryY=0.994;entryDx=0;entryDy=0;entryPerimeter=0;exitX=0.187;exitY=-0.014;exitDx=0;exitDy=0;exitPerimeter=0;" parent="1" edge="1">
          <mxGeometry relative="1" as="geometry">
            <mxPoint x="1521" y="-722" as="targetPoint" />
            <mxPoint x="1521" y="-670" as="sourcePoint" />
          </mxGeometry>
        </mxCell>
        <mxCell id="JOTjsFw0k6sc1S5XeHR1-106" style="edgeStyle=none;rounded=1;jumpStyle=none;orthogonalLoop=1;jettySize=auto;html=1;exitX=0.75;exitY=0;exitDx=0;exitDy=0;startArrow=oval;startFill=1;endArrow=oval;endFill=1;strokeColor=#CACBE8;strokeWidth=2;entryX=0.75;entryY=1;entryDx=0;entryDy=0;" parent="1" edge="1">
          <mxGeometry relative="1" as="geometry">
            <mxPoint x="1394" y="-722" as="targetPoint" />
            <mxPoint x="1394" y="-669" as="sourcePoint" />
          </mxGeometry>
        </mxCell>
        <mxCell id="JOTjsFw0k6sc1S5XeHR1-107" style="edgeStyle=none;rounded=1;jumpStyle=none;orthogonalLoop=1;jettySize=auto;html=1;exitX=0.75;exitY=0;exitDx=0;exitDy=0;startArrow=oval;startFill=1;endArrow=oval;endFill=1;strokeColor=#CACBE8;strokeWidth=2;entryX=0.75;entryY=1;entryDx=0;entryDy=0;" parent="1" edge="1">
          <mxGeometry relative="1" as="geometry">
            <mxPoint x="2088" y="-722" as="targetPoint" />
            <mxPoint x="2088" y="-669" as="sourcePoint" />
          </mxGeometry>
        </mxCell>
        <mxCell id="JOTjsFw0k6sc1S5XeHR1-108" style="edgeStyle=none;rounded=1;jumpStyle=none;orthogonalLoop=1;jettySize=auto;html=1;startArrow=oval;startFill=1;endArrow=oval;endFill=1;strokeColor=#CACBE8;strokeWidth=2;exitX=0.812;exitY=0.994;exitDx=0;exitDy=0;exitPerimeter=0;entryX=0.815;entryY=-0.014;entryDx=0;entryDy=0;entryPerimeter=0;" parent="1" edge="1">
          <mxGeometry relative="1" as="geometry">
            <mxPoint x="1871" y="-670" as="targetPoint" />
            <mxPoint x="1870" y="-722" as="sourcePoint" />
          </mxGeometry>
        </mxCell>
        <mxCell id="JOTjsFw0k6sc1S5XeHR1-109" value="&lt;b style=&quot;font-size: 24px;&quot;&gt;DC1&lt;/b&gt;" style="rounded=0;whiteSpace=wrap;html=1;fontSize=24;" parent="1" vertex="1">
          <mxGeometry x="1428" y="-868" width="100" height="40" as="geometry" />
        </mxCell>
        <mxCell id="JOTjsFw0k6sc1S5XeHR1-110" value="&lt;b style=&quot;font-size: 24px;&quot;&gt;DC2&lt;/b&gt;" style="rounded=0;whiteSpace=wrap;html=1;fontSize=24;" parent="1" vertex="1">
          <mxGeometry x="1878" y="-868" width="100" height="40" as="geometry" />
        </mxCell>
        <mxCell id="JOTjsFw0k6sc1S5XeHR1-111" value="" style="endArrow=none;dashed=1;html=1;dashPattern=1 3;strokeWidth=6;rounded=0;entryX=0.818;entryY=0.058;entryDx=0;entryDy=0;entryPerimeter=0;strokeColor=#727272;exitX=0.252;exitY=0.066;exitDx=0;exitDy=0;exitPerimeter=0;" parent="1" edge="1">
          <mxGeometry width="50" height="50" relative="1" as="geometry">
            <mxPoint x="1516.924" y="-780.8400000000001" as="sourcePoint" />
            <mxPoint x="1403.916" y="-780.9200000000001" as="targetPoint" />
          </mxGeometry>
        </mxCell>
        <mxCell id="JOTjsFw0k6sc1S5XeHR1-112" value="" style="endArrow=none;dashed=1;html=1;dashPattern=1 3;strokeWidth=6;rounded=0;entryX=0.818;entryY=0.058;entryDx=0;entryDy=0;entryPerimeter=0;strokeColor=#727272;exitX=0.252;exitY=0.066;exitDx=0;exitDy=0;exitPerimeter=0;" parent="1" edge="1">
          <mxGeometry width="50" height="50" relative="1" as="geometry">
            <mxPoint x="1980.924" y="-779.8400000000001" as="sourcePoint" />
            <mxPoint x="1867.916" y="-779.9200000000001" as="targetPoint" />
          </mxGeometry>
        </mxCell>
        <mxCell id="JOTjsFw0k6sc1S5XeHR1-113" style="edgeStyle=none;rounded=0;jumpStyle=none;orthogonalLoop=1;jettySize=auto;html=1;exitX=1;exitY=0.5;exitDx=0;exitDy=0;entryX=0;entryY=0.5;entryDx=0;entryDy=0;startArrow=none;startFill=0;endArrow=classic;endFill=0;strokeColor=#7EA6E0;strokeWidth=2;" parent="1" source="JOTjsFw0k6sc1S5XeHR1-90" target="JOTjsFw0k6sc1S5XeHR1-92" edge="1">
          <mxGeometry relative="1" as="geometry">
            <mxPoint x="1450" y="-640" as="sourcePoint" />
            <mxPoint x="1497" y="-640" as="targetPoint" />
          </mxGeometry>
        </mxCell>
        <mxCell id="JOTjsFw0k6sc1S5XeHR1-114" style="edgeStyle=none;rounded=0;jumpStyle=none;orthogonalLoop=1;jettySize=auto;html=1;exitX=1;exitY=0.5;exitDx=0;exitDy=0;entryX=0;entryY=0.5;entryDx=0;entryDy=0;startArrow=none;startFill=0;endArrow=classic;endFill=0;strokeColor=#7EA6E0;strokeWidth=2;" parent="1" source="JOTjsFw0k6sc1S5XeHR1-92" target="JOTjsFw0k6sc1S5XeHR1-94" edge="1">
          <mxGeometry relative="1" as="geometry">
            <mxPoint x="1675" y="-650" as="sourcePoint" />
            <mxPoint x="1722" y="-650" as="targetPoint" />
          </mxGeometry>
        </mxCell>
        <UserObject label="Server 1" lucidchartObjectId="HypIMii0T2fg" id="JOTjsFw0k6sc1S5XeHR1-118">
          <mxCell style="html=1;overflow=block;blockSpacing=1;whiteSpace=wrap;fontSize=18.3;fontColor=#333333;fontStyle=1;spacingLeft=8.4;spacingRight=8.4;spacingTop=2.4;spacing=3.6;verticalAlign=top;strokeOpacity=0;fillOpacity=100;rounded=1;absoluteArcSize=1;arcSize=12;fillColor=#ffdda6;strokeWidth=0.8;" parent="1" vertex="1">
            <mxGeometry x="1244.5" y="-188" width="212" height="256" as="geometry" />
          </mxCell>
        </UserObject>
        <UserObject label="Server N" lucidchartObjectId="kbqIFTrSSb0c" id="JOTjsFw0k6sc1S5XeHR1-119">
          <mxCell style="html=1;overflow=block;blockSpacing=1;whiteSpace=wrap;fontSize=18.3;fontColor=#333333;fontStyle=1;spacingLeft=8.4;spacingRight=8.4;spacingTop=2.4;spacing=3.6;verticalAlign=top;strokeOpacity=0;fillOpacity=100;rounded=1;absoluteArcSize=1;arcSize=12;fillColor=#ffdda6;strokeWidth=0.8;" parent="1" vertex="1">
            <mxGeometry x="1474.5" y="-188" width="212" height="256" as="geometry" />
          </mxCell>
        </UserObject>
        <UserObject label="Server 1" lucidchartObjectId="kgqIT20~Yh46" id="JOTjsFw0k6sc1S5XeHR1-120">
          <mxCell style="html=1;overflow=block;blockSpacing=1;whiteSpace=wrap;fontSize=18.3;fontColor=#333333;fontStyle=1;spacingLeft=8.4;spacingRight=8.4;spacingTop=2.4;spacing=3.6;verticalAlign=top;strokeOpacity=0;fillOpacity=100;rounded=1;absoluteArcSize=1;arcSize=12;fillColor=#ffdda6;strokeWidth=0.8;" parent="1" vertex="1">
            <mxGeometry x="1708.5" y="-188" width="212" height="256" as="geometry" />
          </mxCell>
        </UserObject>
        <UserObject label="Server N" lucidchartObjectId="NgqIsRjEYktH" id="JOTjsFw0k6sc1S5XeHR1-121">
          <mxCell style="html=1;overflow=block;blockSpacing=1;whiteSpace=wrap;fontSize=18.3;fontColor=#333333;fontStyle=1;spacingLeft=8.4;spacingRight=8.4;spacingTop=2.4;spacing=3.6;verticalAlign=top;strokeOpacity=0;fillOpacity=100;rounded=1;absoluteArcSize=1;arcSize=12;fillColor=#ffdda6;strokeWidth=0.8;" parent="1" vertex="1">
            <mxGeometry x="1938.5" y="-188" width="212" height="256" as="geometry" />
          </mxCell>
        </UserObject>
        <UserObject label="&lt;div style=&quot;line-height: 0.9;&quot;&gt;Кластер Apache Flink&lt;br&gt;&lt;/div&gt;&lt;div&gt;&lt;sup&gt;&lt;font style=&quot;font-size: 10px;&quot;&gt;УАСП-СПМ&lt;/font&gt;&lt;/sup&gt;&lt;br&gt;&lt;/div&gt;" lucidchartObjectId="WnqImOF1_m_N" id="JOTjsFw0k6sc1S5XeHR1-122">
          <mxCell style="html=1;overflow=block;blockSpacing=1;whiteSpace=wrap;fontSize=20;fontColor=#ffffff;fontStyle=1;spacingLeft=8.4;spacingRight=8.4;spacingTop=2.4;spacing=3.6;verticalAlign=top;strokeOpacity=0;fillOpacity=100;rounded=1;absoluteArcSize=1;arcSize=12;fillColor=#8b90ff;strokeWidth=0.8;" parent="1" vertex="1">
            <mxGeometry x="1233" y="-103" width="929" height="164" as="geometry" />
          </mxCell>
        </UserObject>
        <UserObject label="&lt;div&gt;JOBMANAGER&lt;/div&gt;&lt;div&gt;&lt;font style=&quot;font-size: 14px;&quot;&gt;Standby&lt;/font&gt;&lt;/div&gt;" lucidchartObjectId="HypInYoTSrlu" id="JOTjsFw0k6sc1S5XeHR1-123">
          <mxCell style="html=1;overflow=block;blockSpacing=1;whiteSpace=wrap;fontSize=18.3;fontColor=#ffffff;align=center;spacingLeft=8.4;spacingRight=8.4;spacingTop=2.4;spacing=3.6;strokeOpacity=0;fillOpacity=100;rounded=1;absoluteArcSize=1;arcSize=12;fillColor=#e51400;strokeWidth=0.8;strokeColor=#B20000;" parent="1" vertex="1">
            <mxGeometry x="1259" y="-59" width="184" height="48" as="geometry" />
          </mxCell>
        </UserObject>
        <UserObject label="TASKMANAGER" lucidchartObjectId="HypIgOagNPgA" id="JOTjsFw0k6sc1S5XeHR1-124">
          <mxCell style="html=1;overflow=block;blockSpacing=1;whiteSpace=wrap;fontSize=18.3;fontColor=#ffffff;align=center;spacingLeft=8.4;spacingRight=8.4;spacingTop=2.4;spacing=3.6;strokeOpacity=0;fillOpacity=100;rounded=1;absoluteArcSize=1;arcSize=12;fillColor=#e51400;strokeWidth=0.8;strokeColor=#B20000;" parent="1" vertex="1">
            <mxGeometry x="1259" y="5" width="184" height="48" as="geometry" />
          </mxCell>
        </UserObject>
        <UserObject label="&lt;div&gt;JOBMANAGER&lt;/div&gt;&lt;div&gt;&lt;font style=&quot;font-size: 14px;&quot;&gt;Standby&lt;/font&gt;&lt;/div&gt;" lucidchartObjectId="RXpI0It2jUcH" id="JOTjsFw0k6sc1S5XeHR1-125">
          <mxCell style="html=1;overflow=block;blockSpacing=1;whiteSpace=wrap;fontSize=18.3;fontColor=#ffffff;align=center;spacingLeft=8.4;spacingRight=8.4;spacingTop=2.4;spacing=3.6;strokeOpacity=0;fillOpacity=100;rounded=1;absoluteArcSize=1;arcSize=12;fillColor=#e51400;strokeWidth=0.8;strokeColor=#B20000;" parent="1" vertex="1">
            <mxGeometry x="1490" y="-59" width="184" height="48" as="geometry" />
          </mxCell>
        </UserObject>
        <UserObject label="TASKMANAGER" lucidchartObjectId="RXpIgnX.f~PW" id="JOTjsFw0k6sc1S5XeHR1-126">
          <mxCell style="html=1;overflow=block;blockSpacing=1;whiteSpace=wrap;fontSize=18.3;fontColor=#ffffff;align=center;spacingLeft=8.4;spacingRight=8.4;spacingTop=2.4;spacing=3.6;strokeOpacity=0;fillOpacity=100;rounded=1;absoluteArcSize=1;arcSize=12;fillColor=#e51400;strokeWidth=0.8;strokeColor=#B20000;" parent="1" vertex="1">
            <mxGeometry x="1490" y="5" width="184" height="48" as="geometry" />
          </mxCell>
        </UserObject>
        <UserObject label="JOBMANAGER&lt;font color=&quot;#33ff33&quot; style=&quot;font-size: 14px;&quot;&gt;&lt;b&gt;&lt;br&gt;Leader&lt;/b&gt;&lt;/font&gt;" lucidchartObjectId="1XpI324HXPmj" id="JOTjsFw0k6sc1S5XeHR1-127">
          <mxCell style="html=1;overflow=block;blockSpacing=1;whiteSpace=wrap;fontSize=18.3;fontColor=#ffffff;align=center;spacingLeft=8.4;spacingRight=8.4;spacingTop=2.4;spacing=3.6;strokeOpacity=0;fillOpacity=100;rounded=1;absoluteArcSize=1;arcSize=12;fillColor=#636aff;strokeWidth=0.8;" parent="1" vertex="1">
            <mxGeometry x="1724" y="-59" width="184" height="48" as="geometry" />
          </mxCell>
        </UserObject>
        <UserObject label="TASKMANAGER" lucidchartObjectId="1XpItajlC~17" id="JOTjsFw0k6sc1S5XeHR1-128">
          <mxCell style="html=1;overflow=block;blockSpacing=1;whiteSpace=wrap;fontSize=18.3;fontColor=#ffffff;align=center;spacingLeft=8.4;spacingRight=8.4;spacingTop=2.4;spacing=3.6;strokeOpacity=0;fillOpacity=100;rounded=1;absoluteArcSize=1;arcSize=12;fillColor=#636aff;strokeWidth=0.8;" parent="1" vertex="1">
            <mxGeometry x="1724" y="5" width="184" height="48" as="geometry" />
          </mxCell>
        </UserObject>
        <UserObject label="HISTORYSERVER" lucidchartObjectId="8XpIVe4FQzVd" id="JOTjsFw0k6sc1S5XeHR1-129">
          <mxCell style="html=1;overflow=block;blockSpacing=1;whiteSpace=wrap;fontSize=18.3;fontColor=#ffffff;align=center;spacingLeft=8.4;spacingRight=8.4;spacingTop=2.4;spacing=3.6;strokeOpacity=0;fillOpacity=100;rounded=1;absoluteArcSize=1;arcSize=12;fillColor=#636aff;strokeWidth=0.8;" parent="1" vertex="1">
            <mxGeometry x="1953" y="-59" width="184" height="48" as="geometry" />
          </mxCell>
        </UserObject>
        <UserObject label="TASKMANAGER" lucidchartObjectId="8XpI6pTr3cQC" id="JOTjsFw0k6sc1S5XeHR1-130">
          <mxCell style="html=1;overflow=block;blockSpacing=1;whiteSpace=wrap;fontSize=18.3;fontColor=#ffffff;align=center;spacingLeft=8.4;spacingRight=8.4;spacingTop=2.4;spacing=3.6;strokeOpacity=0;fillOpacity=100;rounded=1;absoluteArcSize=1;arcSize=12;fillColor=#636aff;strokeWidth=0.8;" parent="1" vertex="1">
            <mxGeometry x="1953" y="5" width="184" height="48" as="geometry" />
          </mxCell>
        </UserObject>
        <UserObject label="NGINX + nginx-ldap-auth" lucidchartObjectId="HypIE5tfspSB" id="JOTjsFw0k6sc1S5XeHR1-134">
          <mxCell style="html=1;overflow=block;blockSpacing=1;whiteSpace=wrap;fontSize=18.3;fontColor=#333333;align=center;spacingLeft=8.4;spacingRight=8.4;spacingTop=2.4;spacing=3.6;verticalAlign=middle;strokeOpacity=0;fillOpacity=100;rounded=1;absoluteArcSize=1;arcSize=12;fillColor=#CACBE8;strokeWidth=0.8;" parent="1" vertex="1">
            <mxGeometry x="1258.5" y="-161" width="184" height="51" as="geometry" />
          </mxCell>
        </UserObject>
        <UserObject label="NGINX + nginx-ldap-auth" lucidchartObjectId="RXpI~8YFsiHd" id="JOTjsFw0k6sc1S5XeHR1-135">
          <mxCell style="html=1;overflow=block;blockSpacing=1;whiteSpace=wrap;fontSize=18.3;fontColor=#333333;align=center;spacingLeft=8.4;spacingRight=8.4;spacingTop=2.4;spacing=3.6;verticalAlign=middle;strokeOpacity=0;fillOpacity=100;rounded=1;absoluteArcSize=1;arcSize=12;fillColor=#CACBE8;strokeWidth=0.8;" parent="1" vertex="1">
            <mxGeometry x="1489.5" y="-161" width="184" height="51" as="geometry" />
          </mxCell>
        </UserObject>
        <UserObject label="NGINX + nginx-ldap-auth" lucidchartObjectId="1XpIAn_rVOTK" id="JOTjsFw0k6sc1S5XeHR1-136">
          <mxCell style="html=1;overflow=block;blockSpacing=1;whiteSpace=wrap;fontSize=18.3;fontColor=#333333;align=center;spacingLeft=8.4;spacingRight=8.4;spacingTop=2.4;spacing=3.6;verticalAlign=middle;strokeOpacity=0;fillOpacity=100;rounded=1;absoluteArcSize=1;arcSize=12;fillColor=#CACBE8;strokeWidth=0.8;" parent="1" vertex="1">
            <mxGeometry x="1723.5" y="-161" width="184" height="51" as="geometry" />
          </mxCell>
        </UserObject>
        <UserObject label="NGINX + nginx-ldap-auth" lucidchartObjectId="8XpIHrtV3hBn" id="JOTjsFw0k6sc1S5XeHR1-137">
          <mxCell style="html=1;overflow=block;blockSpacing=1;whiteSpace=wrap;fontSize=18.3;fontColor=#333333;align=center;spacingLeft=8.4;spacingRight=8.4;spacingTop=2.4;spacing=3.6;verticalAlign=middle;strokeOpacity=0;fillOpacity=100;rounded=1;absoluteArcSize=1;arcSize=12;fillColor=#CACBE8;strokeWidth=0.8;strokeColor=#CACBE8;" parent="1" vertex="1">
            <mxGeometry x="1952.5" y="-161" width="184" height="51" as="geometry" />
          </mxCell>
        </UserObject>
        <mxCell id="JOTjsFw0k6sc1S5XeHR1-138" style="edgeStyle=none;rounded=1;jumpStyle=none;orthogonalLoop=1;jettySize=auto;html=1;startArrow=oval;startFill=1;endArrow=oval;endFill=1;strokeColor=#CACBE8;strokeWidth=2;entryX=0.183;entryY=0.994;entryDx=0;entryDy=0;entryPerimeter=0;exitX=0.187;exitY=-0.014;exitDx=0;exitDy=0;exitPerimeter=0;" parent="1" edge="1">
          <mxGeometry relative="1" as="geometry">
            <mxPoint x="1521" y="-112" as="targetPoint" />
            <mxPoint x="1521" y="-60" as="sourcePoint" />
          </mxGeometry>
        </mxCell>
        <mxCell id="JOTjsFw0k6sc1S5XeHR1-139" style="edgeStyle=none;rounded=1;jumpStyle=none;orthogonalLoop=1;jettySize=auto;html=1;exitX=0.75;exitY=0;exitDx=0;exitDy=0;startArrow=oval;startFill=1;endArrow=oval;endFill=1;strokeColor=#CACBE8;strokeWidth=2;entryX=0.75;entryY=1;entryDx=0;entryDy=0;" parent="1" edge="1">
          <mxGeometry relative="1" as="geometry">
            <mxPoint x="1394" y="-112" as="targetPoint" />
            <mxPoint x="1394" y="-59" as="sourcePoint" />
          </mxGeometry>
        </mxCell>
        <mxCell id="JOTjsFw0k6sc1S5XeHR1-140" style="edgeStyle=none;rounded=1;jumpStyle=none;orthogonalLoop=1;jettySize=auto;html=1;exitX=0.75;exitY=0;exitDx=0;exitDy=0;startArrow=oval;startFill=1;endArrow=oval;endFill=1;strokeColor=#CACBE8;strokeWidth=2;entryX=0.75;entryY=1;entryDx=0;entryDy=0;" parent="1" edge="1">
          <mxGeometry relative="1" as="geometry">
            <mxPoint x="2088" y="-112" as="targetPoint" />
            <mxPoint x="2088" y="-59" as="sourcePoint" />
          </mxGeometry>
        </mxCell>
        <mxCell id="JOTjsFw0k6sc1S5XeHR1-141" style="edgeStyle=none;rounded=1;jumpStyle=none;orthogonalLoop=1;jettySize=auto;html=1;startArrow=oval;startFill=1;endArrow=oval;endFill=1;strokeColor=#CACBE8;strokeWidth=2;exitX=0.812;exitY=0.994;exitDx=0;exitDy=0;exitPerimeter=0;entryX=0.815;entryY=-0.014;entryDx=0;entryDy=0;entryPerimeter=0;" parent="1" edge="1">
          <mxGeometry relative="1" as="geometry">
            <mxPoint x="1871" y="-60" as="targetPoint" />
            <mxPoint x="1870" y="-112" as="sourcePoint" />
          </mxGeometry>
        </mxCell>
        <mxCell id="JOTjsFw0k6sc1S5XeHR1-142" value="" style="endArrow=none;dashed=1;html=1;dashPattern=1 3;strokeWidth=6;rounded=0;entryX=0.818;entryY=0.058;entryDx=0;entryDy=0;entryPerimeter=0;strokeColor=#727272;exitX=0.252;exitY=0.066;exitDx=0;exitDy=0;exitPerimeter=0;" parent="1" edge="1">
          <mxGeometry width="50" height="50" relative="1" as="geometry">
            <mxPoint x="1516.924" y="-170.84000000000015" as="sourcePoint" />
            <mxPoint x="1403.916" y="-170.92000000000007" as="targetPoint" />
          </mxGeometry>
        </mxCell>
        <mxCell id="JOTjsFw0k6sc1S5XeHR1-143" value="" style="endArrow=none;dashed=1;html=1;dashPattern=1 3;strokeWidth=6;rounded=0;entryX=0.818;entryY=0.058;entryDx=0;entryDy=0;entryPerimeter=0;strokeColor=#727272;exitX=0.252;exitY=0.066;exitDx=0;exitDy=0;exitPerimeter=0;" parent="1" edge="1">
          <mxGeometry width="50" height="50" relative="1" as="geometry">
            <mxPoint x="1980.924" y="-169.84000000000015" as="sourcePoint" />
            <mxPoint x="1867.916" y="-169.92000000000007" as="targetPoint" />
          </mxGeometry>
        </mxCell>
        <mxCell id="JOTjsFw0k6sc1S5XeHR1-144" style="edgeStyle=none;rounded=0;jumpStyle=none;orthogonalLoop=1;jettySize=auto;html=1;exitX=1;exitY=0.5;exitDx=0;exitDy=0;entryX=0;entryY=0.5;entryDx=0;entryDy=0;startArrow=none;startFill=0;endArrow=classic;endFill=0;strokeColor=#7EA6E0;strokeWidth=2;" parent="1" source="JOTjsFw0k6sc1S5XeHR1-123" target="JOTjsFw0k6sc1S5XeHR1-125" edge="1">
          <mxGeometry relative="1" as="geometry">
            <mxPoint x="1450" y="-30" as="sourcePoint" />
            <mxPoint x="1497" y="-30" as="targetPoint" />
          </mxGeometry>
        </mxCell>
        <mxCell id="JOTjsFw0k6sc1S5XeHR1-145" style="edgeStyle=none;rounded=0;jumpStyle=none;orthogonalLoop=1;jettySize=auto;html=1;exitX=1;exitY=0.5;exitDx=0;exitDy=0;entryX=0;entryY=0.5;entryDx=0;entryDy=0;startArrow=none;startFill=0;endArrow=classic;endFill=0;strokeColor=#7EA6E0;strokeWidth=2;" parent="1" source="JOTjsFw0k6sc1S5XeHR1-125" target="JOTjsFw0k6sc1S5XeHR1-127" edge="1">
          <mxGeometry relative="1" as="geometry">
            <mxPoint x="1675" y="-40" as="sourcePoint" />
            <mxPoint x="1722" y="-40" as="targetPoint" />
          </mxGeometry>
        </mxCell>
        <mxCell id="JOTjsFw0k6sc1S5XeHR1-146" value="" style="endArrow=none;html=1;rounded=0;entryX=1.005;entryY=0.341;entryDx=0;entryDy=0;entryPerimeter=0;exitX=0;exitY=0.5;exitDx=0;exitDy=0;strokeColor=#FF0000;strokeWidth=7;" parent="1" edge="1">
          <mxGeometry width="50" height="50" relative="1" as="geometry">
            <mxPoint x="1591.5" y="-974.5" as="sourcePoint" />
            <mxPoint x="1804.5" y="-931.5" as="targetPoint" />
          </mxGeometry>
        </mxCell>
        <mxCell id="JOTjsFw0k6sc1S5XeHR1-147" value="" style="endArrow=none;html=1;rounded=0;exitX=0;exitY=0.5;exitDx=0;exitDy=0;strokeColor=#FF0000;strokeWidth=7;" parent="1" edge="1">
          <mxGeometry width="50" height="50" relative="1" as="geometry">
            <mxPoint x="1591.5" y="-974.5" as="sourcePoint" />
            <mxPoint x="1913" y="-908" as="targetPoint" />
          </mxGeometry>
        </mxCell>
        <mxCell id="JOTjsFw0k6sc1S5XeHR1-148" value="" style="endArrow=none;html=1;rounded=0;strokeColor=#FF0000;strokeWidth=7;" parent="1" edge="1">
          <mxGeometry width="50" height="50" relative="1" as="geometry">
            <mxPoint x="1483" y="-998" as="sourcePoint" />
            <mxPoint x="1913" y="-908" as="targetPoint" />
          </mxGeometry>
        </mxCell>
        <mxCell id="JOTjsFw0k6sc1S5XeHR1-149" value="" style="endArrow=none;html=1;rounded=0;exitX=0;exitY=0.5;exitDx=0;exitDy=0;strokeColor=#FF0000;strokeWidth=7;" parent="1" edge="1">
          <mxGeometry width="50" height="50" relative="1" as="geometry">
            <mxPoint x="1591.5" y="-931.5" as="sourcePoint" />
            <mxPoint x="1913" y="-988" as="targetPoint" />
          </mxGeometry>
        </mxCell>
        <mxCell id="JOTjsFw0k6sc1S5XeHR1-150" value="" style="endArrow=none;html=1;rounded=0;strokeColor=#FF0000;strokeWidth=7;" parent="1" edge="1">
          <mxGeometry width="50" height="50" relative="1" as="geometry">
            <mxPoint x="1483" y="-908" as="sourcePoint" />
            <mxPoint x="1913" y="-988" as="targetPoint" />
          </mxGeometry>
        </mxCell>
        <mxCell id="JOTjsFw0k6sc1S5XeHR1-151" value="&lt;font color=&quot;#ffffff&quot; style=&quot;font-size: 18px;&quot;&gt;&lt;span style=&quot;background-color: rgb(255, 0, 0);&quot;&gt;! ПОТЕРЯ СЕТИ МЕЖДУ ЦОД ! &lt;br&gt;&lt;/span&gt;&lt;/font&gt;" style="rounded=0;whiteSpace=wrap;html=1;fillColor=#FF0000;strokeColor=none;" parent="1" vertex="1">
          <mxGeometry x="1552.5" y="-966.5" width="290.5" height="28.5" as="geometry" />
        </mxCell>
        <mxCell id="JOTjsFw0k6sc1S5XeHR1-152" value="&lt;font style=&quot;font-size: 10px;&quot; color=&quot;#008000&quot;&gt;Тенант p0-uasp&lt;br&gt;&lt;/font&gt;" style="text;html=1;align=center;verticalAlign=middle;whiteSpace=wrap;rounded=0;fontSize=8;fontColor=#3399FF;fontStyle=1" parent="1" vertex="1">
          <mxGeometry x="955" y="-488" width="79" height="31" as="geometry" />
        </mxCell>
        <mxCell id="JOTjsFw0k6sc1S5XeHR1-153" value="&lt;font color=&quot;#008000&quot;&gt;Тенант p0-uasp-spm&lt;/font&gt;" style="text;html=1;align=center;verticalAlign=middle;whiteSpace=wrap;rounded=0;fontSize=8;fontColor=#3399FF;fontStyle=1" parent="1" vertex="1">
          <mxGeometry x="962" y="-278" width="79" height="31" as="geometry" />
        </mxCell>
        <mxCell id="JOTjsFw0k6sc1S5XeHR1-154" value="&lt;font style=&quot;font-size: 10px;&quot; color=&quot;#008000&quot;&gt;Тенант p0-uasp&lt;br&gt;&lt;/font&gt;" style="text;html=1;align=center;verticalAlign=middle;whiteSpace=wrap;rounded=0;fontSize=8;fontColor=#3399FF;fontStyle=1" parent="1" vertex="1">
          <mxGeometry x="1293" y="-488" width="79" height="31" as="geometry" />
        </mxCell>
        <mxCell id="JOTjsFw0k6sc1S5XeHR1-155" value="&lt;font color=&quot;#008000&quot;&gt;Тенант p0-uasp-spm&lt;/font&gt;" style="text;html=1;align=center;verticalAlign=middle;whiteSpace=wrap;rounded=0;fontSize=8;fontColor=#3399FF;fontStyle=1" parent="1" vertex="1">
          <mxGeometry x="1923" y="-278" width="79" height="31" as="geometry" />
        </mxCell>
        <mxCell id="JOTjsFw0k6sc1S5XeHR1-159" style="edgeStyle=none;rounded=1;jumpStyle=none;orthogonalLoop=1;jettySize=auto;html=1;entryX=0.851;entryY=-0.002;entryDx=0;entryDy=0;startArrow=oval;startFill=1;endArrow=oval;endFill=1;strokeColor=#82b366;strokeWidth=2;fillColor=#d5e8d4;entryPerimeter=0;" parent="1" target="JOTjsFw0k6sc1S5XeHR1-22" edge="1">
          <mxGeometry relative="1" as="geometry">
            <Array as="points">
              <mxPoint x="296" y="-496" />
              <mxPoint x="954" y="-496" />
            </Array>
            <mxPoint x="296" y="-540" as="sourcePoint" />
            <mxPoint x="1108.375" y="-370.75" as="targetPoint" />
          </mxGeometry>
        </mxCell>
        <mxCell id="JOTjsFw0k6sc1S5XeHR1-160" style="edgeStyle=none;rounded=1;jumpStyle=none;orthogonalLoop=1;jettySize=auto;html=1;entryX=0.75;entryY=0;entryDx=0;entryDy=0;startArrow=oval;startFill=1;endArrow=oval;endFill=1;strokeColor=#82b366;strokeWidth=2;fillColor=#d5e8d4;exitX=0.5;exitY=1;exitDx=0;exitDy=0;" parent="1" source="JOTjsFw0k6sc1S5XeHR1-83" edge="1">
          <mxGeometry relative="1" as="geometry">
            <Array as="points">
              <mxPoint x="1581" y="-496" />
              <mxPoint x="1199" y="-496" />
            </Array>
            <mxPoint x="2013.12" y="-540" as="sourcePoint" />
            <mxPoint x="1199.125" y="-370.75" as="targetPoint" />
          </mxGeometry>
        </mxCell>
        <mxCell id="JOTjsFw0k6sc1S5XeHR1-161" style="edgeStyle=none;rounded=1;jumpStyle=none;orthogonalLoop=1;jettySize=auto;html=1;startArrow=oval;startFill=1;endArrow=oval;endFill=1;strokeColor=#82b366;strokeWidth=2;fillColor=#d5e8d4;entryX=0.867;entryY=0.987;entryDx=0;entryDy=0;entryPerimeter=0;" parent="1" target="JOTjsFw0k6sc1S5XeHR1-22" edge="1">
          <mxGeometry relative="1" as="geometry">
            <Array as="points">
              <mxPoint x="296" y="-232" />
              <mxPoint x="960" y="-232" />
            </Array>
            <mxPoint x="296" y="-188" as="sourcePoint" />
            <mxPoint x="1108.375" y="-319.75" as="targetPoint" />
          </mxGeometry>
        </mxCell>
        <mxCell id="JOTjsFw0k6sc1S5XeHR1-163" value="ДО" style="text;strokeColor=#B20000;fillColor=#e51400;html=1;fontSize=15;fontStyle=1;verticalAlign=middle;align=center;fontColor=#ffffff;" parent="1" vertex="1">
          <mxGeometry x="1053" y="-858" width="80" height="40" as="geometry" />
        </mxCell>
        <mxCell id="JOTjsFw0k6sc1S5XeHR1-164" value="ПОСЛЕ" style="text;strokeColor=#B20000;fillColor=#e51400;html=1;fontSize=15;fontStyle=1;verticalAlign=middle;align=center;fontColor=#ffffff;" parent="1" vertex="1">
          <mxGeometry x="1172" y="-858" width="80" height="40" as="geometry" />
        </mxCell>
        <mxCell id="JOTjsFw0k6sc1S5XeHR1-166" style="edgeStyle=none;rounded=1;jumpStyle=none;orthogonalLoop=1;jettySize=auto;html=1;exitX=0.75;exitY=1;exitDx=0;exitDy=0;startArrow=oval;startFill=1;endArrow=oval;endFill=1;strokeColor=#82b366;strokeWidth=2;fillColor=#d5e8d4;" parent="1" edge="1">
          <mxGeometry relative="1" as="geometry">
            <mxPoint x="1981.5" y="-187" as="sourcePoint" />
            <mxPoint x="1981.5" y="-231" as="targetPoint" />
          </mxGeometry>
        </mxCell>
        <mxCell id="JOTjsFw0k6sc1S5XeHR1-169" style="edgeStyle=none;rounded=1;jumpStyle=none;orthogonalLoop=1;jettySize=auto;html=1;startArrow=oval;startFill=1;endArrow=oval;endFill=1;strokeColor=#82b366;strokeWidth=2;fillColor=#d5e8d4;entryX=0.867;entryY=0.987;entryDx=0;entryDy=0;entryPerimeter=0;exitX=0.5;exitY=0;exitDx=0;exitDy=0;" parent="1" source="JOTjsFw0k6sc1S5XeHR1-120" edge="1">
          <mxGeometry relative="1" as="geometry">
            <Array as="points">
              <mxPoint x="1815" y="-231" />
              <mxPoint x="2040" y="-231" />
            </Array>
            <mxPoint x="1376" y="-187" as="sourcePoint" />
            <mxPoint x="2040" y="-289" as="targetPoint" />
          </mxGeometry>
        </mxCell>
        <mxCell id="JOTjsFw0k6sc1S5XeHR1-172" value="" style="endArrow=none;html=1;rounded=0;strokeWidth=5;strokeColor=#FF0000;" parent="1" edge="1">
          <mxGeometry width="50" height="50" relative="1" as="geometry">
            <mxPoint x="1173" y="-344" as="sourcePoint" />
            <mxPoint x="1223" y="-394" as="targetPoint" />
          </mxGeometry>
        </mxCell>
        <mxCell id="JOTjsFw0k6sc1S5XeHR1-173" value="" style="endArrow=none;html=1;rounded=0;strokeWidth=5;strokeColor=#FF0000;" parent="1" edge="1">
          <mxGeometry width="50" height="50" relative="1" as="geometry">
            <mxPoint x="1227" y="-343" as="sourcePoint" />
            <mxPoint x="1172" y="-392" as="targetPoint" />
          </mxGeometry>
        </mxCell>
      </root>
    </mxGraphModel>
  </diagram>
</mxfile>
